%TF.GenerationSoftware,KiCad,Pcbnew,8.0.8*%
%TF.CreationDate,2025-02-02T11:15:27+01:00*%
%TF.ProjectId,NoTimekeeper,4e6f5469-6d65-46b6-9565-7065722e6b69,rev?*%
%TF.SameCoordinates,Original*%
%TF.FileFunction,Copper,L2,Bot*%
%TF.FilePolarity,Positive*%
%FSLAX46Y46*%
G04 Gerber Fmt 4.6, Leading zero omitted, Abs format (unit mm)*
G04 Created by KiCad (PCBNEW 8.0.8) date 2025-02-02 11:15:27*
%MOMM*%
%LPD*%
G01*
G04 APERTURE LIST*
G04 Aperture macros list*
%AMRoundRect*
0 Rectangle with rounded corners*
0 $1 Rounding radius*
0 $2 $3 $4 $5 $6 $7 $8 $9 X,Y pos of 4 corners*
0 Add a 4 corners polygon primitive as box body*
4,1,4,$2,$3,$4,$5,$6,$7,$8,$9,$2,$3,0*
0 Add four circle primitives for the rounded corners*
1,1,$1+$1,$2,$3*
1,1,$1+$1,$4,$5*
1,1,$1+$1,$6,$7*
1,1,$1+$1,$8,$9*
0 Add four rect primitives between the rounded corners*
20,1,$1+$1,$2,$3,$4,$5,0*
20,1,$1+$1,$4,$5,$6,$7,0*
20,1,$1+$1,$6,$7,$8,$9,0*
20,1,$1+$1,$8,$9,$2,$3,0*%
G04 Aperture macros list end*
%TA.AperFunction,ComponentPad*%
%ADD10C,1.600000*%
%TD*%
%TA.AperFunction,ComponentPad*%
%ADD11O,1.600000X1.600000*%
%TD*%
%TA.AperFunction,SMDPad,CuDef*%
%ADD12RoundRect,0.250000X-0.250000X-0.475000X0.250000X-0.475000X0.250000X0.475000X-0.250000X0.475000X0*%
%TD*%
%TA.AperFunction,SMDPad,CuDef*%
%ADD13RoundRect,0.100000X0.450000X0.100000X-0.450000X0.100000X-0.450000X-0.100000X0.450000X-0.100000X0*%
%TD*%
%TA.AperFunction,ViaPad*%
%ADD14C,0.600000*%
%TD*%
%TA.AperFunction,Conductor*%
%ADD15C,0.400000*%
%TD*%
%TA.AperFunction,Conductor*%
%ADD16C,0.600000*%
%TD*%
%TA.AperFunction,Conductor*%
%ADD17C,0.300000*%
%TD*%
G04 APERTURE END LIST*
D10*
%TO.P,U4,1,FT*%
%TO.N,unconnected-(U4-FT-Pad1)*%
X110185000Y-53505000D03*
D11*
%TO.P,U4,2,A12*%
%TO.N,/A12*%
X110185000Y-56045000D03*
%TO.P,U4,3,A7*%
%TO.N,/A7*%
X110185000Y-58585000D03*
%TO.P,U4,4,A6*%
%TO.N,/A6*%
X110185000Y-61125000D03*
%TO.P,U4,5,A5*%
%TO.N,/A5*%
X110185000Y-63665000D03*
%TO.P,U4,6,A4*%
%TO.N,/A4*%
X110185000Y-66205000D03*
%TO.P,U4,7,A3*%
%TO.N,/A3*%
X110185000Y-68745000D03*
%TO.P,U4,8,A2*%
%TO.N,/A2*%
X110185000Y-71285000D03*
%TO.P,U4,9,A1*%
%TO.N,/A1*%
X110185000Y-73825000D03*
%TO.P,U4,10,A0*%
%TO.N,/A0*%
X110185000Y-76365000D03*
%TO.P,U4,11,DQ0*%
%TO.N,/D0*%
X110185000Y-78905000D03*
%TO.P,U4,12,DQ1*%
%TO.N,/D1*%
X110185000Y-81445000D03*
%TO.P,U4,13,DQ2*%
%TO.N,/D2*%
X110185000Y-83985000D03*
%TO.P,U4,14,VSS*%
%TO.N,GND*%
X110185000Y-86525000D03*
%TO.P,U4,15,DQ3*%
%TO.N,/D3*%
X125425000Y-86525000D03*
%TO.P,U4,16,DQ4*%
%TO.N,/D4*%
X125425000Y-83985000D03*
%TO.P,U4,17,DQ5*%
%TO.N,/D5*%
X125425000Y-81445000D03*
%TO.P,U4,18,DQ6*%
%TO.N,/D6*%
X125425000Y-78905000D03*
%TO.P,U4,19,DQ7*%
%TO.N,/D7*%
X125425000Y-76365000D03*
%TO.P,U4,20,~{E1}*%
%TO.N,/~{E1}*%
X125425000Y-73825000D03*
%TO.P,U4,21,A10*%
%TO.N,/A10*%
X125425000Y-71285000D03*
%TO.P,U4,22,~{G}*%
%TO.N,/~{OE}*%
X125425000Y-68745000D03*
%TO.P,U4,23,A11*%
%TO.N,/A11*%
X125425000Y-66205000D03*
%TO.P,U4,24,A9*%
%TO.N,/A9*%
X125425000Y-63665000D03*
%TO.P,U4,25,A8*%
%TO.N,/A8*%
X125425000Y-61125000D03*
%TO.P,U4,26,E2*%
%TO.N,/E2*%
X125425000Y-58585000D03*
%TO.P,U4,27,~{W}*%
%TO.N,/~{WE}*%
X125425000Y-56045000D03*
%TO.P,U4,28,VCC*%
%TO.N,+5V*%
X125425000Y-53505000D03*
%TD*%
D12*
%TO.P,C1,1*%
%TO.N,+5V*%
X116842500Y-67801224D03*
%TO.P,C1,2*%
%TO.N,GND*%
X118742500Y-67801224D03*
%TD*%
D13*
%TO.P,U2,1*%
%TO.N,/~{E1}*%
X119955000Y-70628724D03*
%TO.P,U2,2*%
X119955000Y-71278724D03*
%TO.P,U2,3*%
%TO.N,/~{CE}*%
X119955000Y-71928724D03*
%TO.P,U2,4,GND*%
%TO.N,GND*%
X119955000Y-72578724D03*
%TO.P,U2,5*%
%TO.N,/E2*%
X115655000Y-72578724D03*
%TO.P,U2,6*%
%TO.N,/E1*%
X115655000Y-71928724D03*
%TO.P,U2,7*%
X115655000Y-71278724D03*
%TO.P,U2,8,VCC*%
%TO.N,+5V*%
X115655000Y-70628724D03*
%TD*%
D14*
%TO.N,GND*%
X120345000Y-85255000D03*
X120345000Y-54775000D03*
X118742500Y-66213724D03*
X115265000Y-85255000D03*
X118598750Y-72578724D03*
X118742500Y-63673724D03*
X115265000Y-54775000D03*
%TO.N,/D4*%
X120027500Y-77008724D03*
%TO.N,/D5*%
X120980000Y-75738724D03*
%TO.N,/A5*%
X114630000Y-66848724D03*
%TO.N,/D2*%
X115582500Y-77008724D03*
%TO.N,/~{CE}*%
X120980000Y-71928724D03*
%TO.N,/A6*%
X114630000Y-65578724D03*
%TO.N,/D0*%
X114630000Y-74468724D03*
%TO.N,/D7*%
X120980000Y-73198724D03*
%TO.N,/A8*%
X120980000Y-65578724D03*
%TO.N,/A0*%
X114630000Y-73198724D03*
%TO.N,/D1*%
X114630000Y-75738724D03*
%TO.N,/D6*%
X120980000Y-74468724D03*
%TO.N,/A7*%
X114630000Y-64308724D03*
%TO.N,/A9*%
X120980000Y-66848724D03*
%TO.N,/~{WE}*%
X120345000Y-63038724D03*
%TO.N,/A12*%
X115582500Y-63038724D03*
%TD*%
D15*
%TO.N,/E2*%
X116005000Y-72578724D02*
X115305000Y-72578724D01*
D16*
%TO.N,+5V*%
X125425000Y-53505000D02*
X117993410Y-60936590D01*
X116842500Y-63715133D02*
X116842500Y-67801224D01*
D15*
X115655000Y-70628724D02*
G75*
G02*
X116814579Y-67829109I3959100J124D01*
G01*
D16*
X116842500Y-63715133D02*
G75*
G02*
X117993384Y-60936564I3929500J33D01*
G01*
D17*
%TO.N,/D4*%
X121143880Y-79703880D02*
X125425000Y-83985000D01*
X120027500Y-77008724D02*
G75*
G03*
X121143872Y-79703888I3811600J24D01*
G01*
%TO.N,/D5*%
X121871798Y-77891798D02*
X125425000Y-81445000D01*
X120980000Y-75738724D02*
G75*
G03*
X121871799Y-77891797I3044800J-76D01*
G01*
%TO.N,/A5*%
X112476886Y-65956886D02*
X110185000Y-63665000D01*
X114630000Y-66848724D02*
G75*
G02*
X112476900Y-65956872I0J3044924D01*
G01*
%TO.N,/D2*%
X114466140Y-79703860D02*
X110185000Y-83985000D01*
X114466140Y-79703860D02*
G75*
G03*
X115582518Y-77008724I-2695140J2695160D01*
G01*
%TO.N,/~{CE}*%
X119955000Y-71928724D02*
X120980000Y-71928724D01*
%TO.N,/A6*%
X110185000Y-61133724D02*
X110185000Y-61125000D01*
X114630000Y-65578724D02*
X110185000Y-61133724D01*
%TO.N,/D0*%
X114630000Y-74468724D02*
X110193724Y-78905000D01*
X110193724Y-78905000D02*
X110185000Y-78905000D01*
%TO.N,/D7*%
X123162907Y-74102907D02*
X125425000Y-76365000D01*
X120980000Y-73198724D02*
G75*
G02*
X123162899Y-74102915I0J-3087076D01*
G01*
%TO.N,/A8*%
X125425000Y-61133724D02*
X125425000Y-61125000D01*
X120980000Y-65578724D02*
X125425000Y-61133724D01*
%TO.N,/A0*%
X112447150Y-74102850D02*
X110185000Y-76365000D01*
X112447150Y-74102850D02*
G75*
G02*
X114630000Y-73198725I2182750J-2182750D01*
G01*
%TO.N,/D1*%
X113738141Y-77891859D02*
X110185000Y-81445000D01*
X114630000Y-75738724D02*
G75*
G02*
X113738131Y-77891849I-3045000J24D01*
G01*
%TO.N,/D6*%
X125416276Y-78905000D02*
X125425000Y-78905000D01*
X120980000Y-74468724D02*
X125416276Y-78905000D01*
%TO.N,/A7*%
X113725770Y-62125770D02*
X110185000Y-58585000D01*
X114630000Y-64308724D02*
G75*
G03*
X113725750Y-62125790I-3087200J-76D01*
G01*
%TO.N,/A9*%
X123133126Y-65956874D02*
X125425000Y-63665000D01*
X123133126Y-65956874D02*
G75*
G02*
X120980000Y-66848743I-2153126J2153074D01*
G01*
%TO.N,/~{WE}*%
X121698221Y-59771779D02*
X125425000Y-56045000D01*
X120345000Y-63038724D02*
G75*
G02*
X121698196Y-59771754I4620200J24D01*
G01*
%TO.N,/A12*%
X114453846Y-60313846D02*
X110185000Y-56045000D01*
X114453846Y-60313846D02*
G75*
G02*
X115582520Y-63038724I-2724846J-2724854D01*
G01*
%TO.N,/E1*%
X115655000Y-71278724D02*
X115655000Y-71928724D01*
%TO.N,/~{E1}*%
X119955000Y-70628724D02*
X120768273Y-70628724D01*
X119955000Y-70628724D02*
X119955000Y-71278724D01*
X123261418Y-71661418D02*
X125425000Y-73825000D01*
X123261418Y-71661418D02*
G75*
G03*
X120768273Y-70628753I-2493118J-2493182D01*
G01*
%TO.N,/E2*%
X119975000Y-68384435D02*
X119975000Y-65589008D01*
X118280000Y-69653724D02*
X118705711Y-69653724D01*
X115655000Y-72578724D02*
X116400000Y-72578724D01*
X120392136Y-64581952D02*
X121615000Y-63359088D01*
X124155000Y-59855000D02*
X125425000Y-58585000D01*
X117155000Y-71823724D02*
X117155000Y-70778724D01*
X116400000Y-72578724D02*
G75*
G03*
X117155024Y-71823724I0J755024D01*
G01*
X117155000Y-70778724D02*
G75*
G02*
X118280000Y-69653700I1125000J24D01*
G01*
X122885000Y-61607044D02*
G75*
G02*
X124155014Y-59855014I6126900J-3104956D01*
G01*
X119975000Y-65589008D02*
G75*
G02*
X120392131Y-64581947I1424200J8D01*
G01*
X119975000Y-68384435D02*
G75*
G02*
X118705711Y-69653700I-1269300J35D01*
G01*
X121615000Y-63359088D02*
G75*
G03*
X122884998Y-61607043I-4857000J4856988D01*
G01*
%TD*%
%TA.AperFunction,Conductor*%
%TO.N,GND*%
G36*
X118963849Y-70205771D02*
G01*
X119016105Y-70252151D01*
X119035000Y-70317945D01*
X119035000Y-72063539D01*
X119015315Y-72130578D01*
X119009376Y-72139025D01*
X118980901Y-72176134D01*
X118980900Y-72176136D01*
X118920444Y-72322092D01*
X118912987Y-72378724D01*
X119600198Y-72378724D01*
X119662197Y-72395336D01*
X119681218Y-72406318D01*
X119738470Y-72439373D01*
X119742515Y-72441708D01*
X119863096Y-72474018D01*
X119922754Y-72510381D01*
X119953283Y-72573228D01*
X119953627Y-72577351D01*
X119955000Y-72578724D01*
X120031000Y-72578724D01*
X120098039Y-72598409D01*
X120143794Y-72651213D01*
X120155000Y-72702724D01*
X120155000Y-73278723D01*
X120175807Y-73278723D01*
X120242846Y-73298408D01*
X120288601Y-73351212D01*
X120291902Y-73360695D01*
X120292200Y-73360583D01*
X120355182Y-73526654D01*
X120355182Y-73526655D01*
X120396996Y-73587232D01*
X120448879Y-73662397D01*
X120451818Y-73666654D01*
X120535634Y-73740909D01*
X120572761Y-73800098D01*
X120571993Y-73869964D01*
X120535634Y-73926539D01*
X120451818Y-74000793D01*
X120355182Y-74140792D01*
X120294860Y-74299849D01*
X120294859Y-74299854D01*
X120274355Y-74468724D01*
X120294859Y-74637593D01*
X120294860Y-74637598D01*
X120355182Y-74796655D01*
X120451818Y-74936654D01*
X120535634Y-75010909D01*
X120572761Y-75070098D01*
X120571993Y-75139964D01*
X120535634Y-75196539D01*
X120451818Y-75270793D01*
X120355182Y-75410792D01*
X120294860Y-75569849D01*
X120294859Y-75569854D01*
X120274355Y-75738724D01*
X120294859Y-75907593D01*
X120294860Y-75907597D01*
X120323204Y-75982337D01*
X120327567Y-75996265D01*
X120334213Y-76022879D01*
X120334224Y-76022924D01*
X120340320Y-76037272D01*
X120358650Y-76080416D01*
X120359771Y-76083029D01*
X120359852Y-76083216D01*
X120361557Y-76087095D01*
X120363842Y-76092222D01*
X120386526Y-76143128D01*
X120388574Y-76147650D01*
X120399623Y-76171648D01*
X120409778Y-76240776D01*
X120380948Y-76304420D01*
X120322286Y-76342374D01*
X120257313Y-76343902D01*
X120112557Y-76308224D01*
X120112556Y-76308224D01*
X119942444Y-76308224D01*
X119777273Y-76348934D01*
X119626650Y-76427987D01*
X119499316Y-76540796D01*
X119402682Y-76680792D01*
X119342360Y-76839849D01*
X119342359Y-76839854D01*
X119321855Y-77008724D01*
X119342359Y-77177593D01*
X119342360Y-77177598D01*
X119360312Y-77224933D01*
X119369840Y-77250057D01*
X119370394Y-77251516D01*
X119374821Y-77265700D01*
X119380408Y-77288278D01*
X119381362Y-77292131D01*
X119405347Y-77348914D01*
X119406030Y-77350521D01*
X119406078Y-77350634D01*
X119406083Y-77350644D01*
X119407307Y-77353480D01*
X119414585Y-77370142D01*
X119414689Y-77370963D01*
X119432555Y-77411259D01*
X119447180Y-77444247D01*
X119452449Y-77456130D01*
X119452788Y-77456902D01*
X119463207Y-77480841D01*
X119464797Y-77484494D01*
X119467477Y-77490650D01*
X119468585Y-77493280D01*
X119473462Y-77505238D01*
X119478035Y-77516453D01*
X119479741Y-77520879D01*
X119481415Y-77525482D01*
X119486250Y-77538774D01*
X119488044Y-77544077D01*
X119494394Y-77564341D01*
X119495848Y-77569347D01*
X119503800Y-77599057D01*
X119504798Y-77603046D01*
X119515102Y-77647379D01*
X119515713Y-77650156D01*
X119524933Y-77694513D01*
X119527029Y-77704598D01*
X119534239Y-77733802D01*
X119536246Y-77739489D01*
X119535606Y-77739714D01*
X119542437Y-77761381D01*
X119576355Y-77953733D01*
X119576356Y-77953740D01*
X119587077Y-77993749D01*
X119674940Y-78321659D01*
X119797371Y-78658034D01*
X119805221Y-78679600D01*
X119966181Y-79024781D01*
X119966193Y-79024805D01*
X120048531Y-79167418D01*
X120156639Y-79354668D01*
X120156651Y-79354685D01*
X120375115Y-79666687D01*
X120375116Y-79666688D01*
X120619945Y-79958467D01*
X120697986Y-80036509D01*
X120698011Y-80036537D01*
X123872272Y-83210797D01*
X123888277Y-83230469D01*
X123894952Y-83240646D01*
X123994764Y-83350490D01*
X124004103Y-83362098D01*
X124052894Y-83430832D01*
X124062373Y-83446529D01*
X124066449Y-83454569D01*
X124085252Y-83491658D01*
X124092558Y-83509331D01*
X124105977Y-83550537D01*
X124109833Y-83565476D01*
X124121738Y-83627270D01*
X124123015Y-83635314D01*
X124135353Y-83733796D01*
X124135361Y-83733939D01*
X124135371Y-83733938D01*
X124150848Y-83858640D01*
X124152254Y-83868897D01*
X124152341Y-83869472D01*
X124153957Y-83879390D01*
X124178409Y-84018504D01*
X124181583Y-84034633D01*
X124181795Y-84035605D01*
X124185633Y-84051630D01*
X124226933Y-84209789D01*
X124232052Y-84227701D01*
X124232361Y-84228696D01*
X124232366Y-84228710D01*
X124238389Y-84246604D01*
X124238392Y-84246615D01*
X124238394Y-84246618D01*
X124296716Y-84407411D01*
X124299410Y-84415747D01*
X124300771Y-84420528D01*
X124302621Y-84424243D01*
X124304846Y-84428958D01*
X124320406Y-84463827D01*
X124320407Y-84463829D01*
X124320530Y-84463998D01*
X124331131Y-84481500D01*
X124399938Y-84619683D01*
X124399943Y-84619691D01*
X124534020Y-84797238D01*
X124698437Y-84947123D01*
X124698439Y-84947125D01*
X124887595Y-85064245D01*
X124887596Y-85064245D01*
X124887599Y-85064247D01*
X125081524Y-85139374D01*
X125136924Y-85181946D01*
X125160515Y-85247713D01*
X125144804Y-85315793D01*
X125094780Y-85364572D01*
X125081533Y-85370622D01*
X124933488Y-85427975D01*
X124887601Y-85445752D01*
X124887595Y-85445754D01*
X124698439Y-85562874D01*
X124698437Y-85562876D01*
X124534020Y-85712761D01*
X124399943Y-85890308D01*
X124399938Y-85890316D01*
X124300775Y-86089461D01*
X124300769Y-86089476D01*
X124239885Y-86303462D01*
X124239884Y-86303464D01*
X124219357Y-86524999D01*
X124219357Y-86525000D01*
X124239884Y-86746535D01*
X124239885Y-86746537D01*
X124300769Y-86960523D01*
X124300775Y-86960538D01*
X124399938Y-87159683D01*
X124399943Y-87159691D01*
X124534020Y-87337238D01*
X124598878Y-87396363D01*
X124635160Y-87456074D01*
X124633399Y-87525921D01*
X124594156Y-87583729D01*
X124529889Y-87611144D01*
X124515340Y-87612000D01*
X111235840Y-87612000D01*
X111168801Y-87592315D01*
X111123046Y-87539511D01*
X111113102Y-87470353D01*
X111142127Y-87406797D01*
X111148159Y-87400319D01*
X111184657Y-87363820D01*
X111315134Y-87177482D01*
X111411265Y-86971326D01*
X111411269Y-86971317D01*
X111463872Y-86775000D01*
X110500686Y-86775000D01*
X110505080Y-86770606D01*
X110557741Y-86679394D01*
X110585000Y-86577661D01*
X110585000Y-86472339D01*
X110557741Y-86370606D01*
X110505080Y-86279394D01*
X110500686Y-86275000D01*
X111463872Y-86275000D01*
X111463872Y-86274999D01*
X111411269Y-86078682D01*
X111411265Y-86078673D01*
X111315134Y-85872517D01*
X111184657Y-85686179D01*
X111023820Y-85525342D01*
X110837482Y-85394865D01*
X110661612Y-85312856D01*
X110609173Y-85266684D01*
X110590021Y-85199490D01*
X110610237Y-85132609D01*
X110663402Y-85087274D01*
X110669206Y-85084854D01*
X110696440Y-85074304D01*
X110722392Y-85064251D01*
X110722396Y-85064248D01*
X110722401Y-85064247D01*
X110911562Y-84947124D01*
X111075981Y-84797236D01*
X111210058Y-84619689D01*
X111309229Y-84420528D01*
X111310590Y-84415740D01*
X111313281Y-84407411D01*
X111371602Y-84246623D01*
X111377638Y-84228689D01*
X111377959Y-84227656D01*
X111383068Y-84209778D01*
X111424357Y-84051662D01*
X111428204Y-84035597D01*
X111428407Y-84034666D01*
X111431594Y-84018473D01*
X111456032Y-83879432D01*
X111457627Y-83869658D01*
X111457715Y-83869074D01*
X111459154Y-83858600D01*
X111474685Y-83733471D01*
X111474684Y-83733468D01*
X111486982Y-83635307D01*
X111488258Y-83627276D01*
X111500163Y-83565480D01*
X111504018Y-83550542D01*
X111517439Y-83509328D01*
X111524747Y-83491652D01*
X111547622Y-83446532D01*
X111557102Y-83430832D01*
X111605904Y-83362083D01*
X111615226Y-83350495D01*
X111715041Y-83240652D01*
X111729481Y-83223863D01*
X111729486Y-83223853D01*
X111732800Y-83219195D01*
X111733283Y-83219538D01*
X111747587Y-83200936D01*
X114906650Y-80041875D01*
X114906651Y-80041872D01*
X114912472Y-80036052D01*
X114912648Y-80035850D01*
X114990056Y-79958445D01*
X115234893Y-79666662D01*
X115453368Y-79354650D01*
X115643818Y-79024785D01*
X115804794Y-78679576D01*
X115935070Y-78321650D01*
X116033655Y-77953733D01*
X116070873Y-77742662D01*
X116077024Y-77720285D01*
X116082974Y-77704578D01*
X116094290Y-77650125D01*
X116094896Y-77647371D01*
X116105202Y-77603030D01*
X116106170Y-77599157D01*
X116114168Y-77569276D01*
X116115592Y-77564373D01*
X116121954Y-77544066D01*
X116123742Y-77538785D01*
X116130268Y-77520844D01*
X116131961Y-77516451D01*
X116141420Y-77493256D01*
X116142476Y-77490749D01*
X116157333Y-77456617D01*
X116177444Y-77411256D01*
X116177443Y-77411255D01*
X116196348Y-77368616D01*
X116197184Y-77366086D01*
X116197909Y-77364425D01*
X116202644Y-77353587D01*
X116203912Y-77350652D01*
X116203968Y-77350521D01*
X116203993Y-77350460D01*
X116204037Y-77350360D01*
X116204283Y-77349778D01*
X116204649Y-77348919D01*
X116228635Y-77292136D01*
X116228633Y-77292135D01*
X116239377Y-77266703D01*
X116239316Y-77266085D01*
X116239999Y-77263074D01*
X116241540Y-77253542D01*
X116248008Y-77229358D01*
X116267640Y-77177596D01*
X116288145Y-77008724D01*
X116267640Y-76839852D01*
X116258064Y-76814603D01*
X116207317Y-76680792D01*
X116157570Y-76608722D01*
X116110683Y-76540795D01*
X116006423Y-76448429D01*
X115983349Y-76427987D01*
X115832726Y-76348934D01*
X115667556Y-76308224D01*
X115497444Y-76308224D01*
X115497442Y-76308224D01*
X115352702Y-76343898D01*
X115282900Y-76340828D01*
X115225838Y-76300508D01*
X115199633Y-76235739D01*
X115210464Y-76171488D01*
X115220379Y-76150030D01*
X115220564Y-76149492D01*
X115221358Y-76147769D01*
X115222788Y-76144628D01*
X115222847Y-76144497D01*
X115223484Y-76143075D01*
X115223551Y-76142926D01*
X115236574Y-76113709D01*
X115248414Y-76087149D01*
X115250043Y-76083447D01*
X115250125Y-76083258D01*
X115250149Y-76083202D01*
X115250202Y-76083080D01*
X115250660Y-76082010D01*
X115251335Y-76080440D01*
X115275768Y-76022938D01*
X115275766Y-76022937D01*
X115286584Y-75997480D01*
X115286536Y-75996981D01*
X115287575Y-75992449D01*
X115287832Y-75990856D01*
X115287834Y-75990853D01*
X115288999Y-75983645D01*
X115295465Y-75959474D01*
X115315140Y-75907596D01*
X115335645Y-75738724D01*
X115315140Y-75569852D01*
X115308659Y-75552764D01*
X115254817Y-75410792D01*
X115168509Y-75285755D01*
X115158183Y-75270795D01*
X115074363Y-75196537D01*
X115037238Y-75137350D01*
X115038006Y-75067485D01*
X115074363Y-75010910D01*
X115158183Y-74936653D01*
X115254818Y-74796654D01*
X115315140Y-74637596D01*
X115335645Y-74468724D01*
X115315140Y-74299852D01*
X115254818Y-74140794D01*
X115252905Y-74138023D01*
X115215089Y-74083237D01*
X115158183Y-74000795D01*
X115074363Y-73926537D01*
X115037238Y-73867350D01*
X115038006Y-73797485D01*
X115074363Y-73740910D01*
X115158183Y-73666653D01*
X115254818Y-73526654D01*
X115315140Y-73367596D01*
X115324771Y-73288277D01*
X115352393Y-73224100D01*
X115410327Y-73185043D01*
X115447867Y-73179224D01*
X116048181Y-73179224D01*
X116067167Y-73181407D01*
X116067268Y-73180744D01*
X116072092Y-73181474D01*
X116079998Y-73182042D01*
X116092678Y-73182753D01*
X116171183Y-73173551D01*
X116218677Y-73167985D01*
X116218677Y-73167984D01*
X116218684Y-73167984D01*
X116238621Y-73162384D01*
X116241167Y-73161702D01*
X116258160Y-73157356D01*
X116260754Y-73156724D01*
X116279382Y-73152408D01*
X116282342Y-73151760D01*
X116299777Y-73148179D01*
X116302609Y-73147633D01*
X116310573Y-73146197D01*
X116319730Y-73144547D01*
X116322712Y-73144047D01*
X116339812Y-73141393D01*
X116342709Y-73140980D01*
X116359652Y-73138778D01*
X116362604Y-73138431D01*
X116376619Y-73136962D01*
X116379437Y-73136667D01*
X116382505Y-73136384D01*
X116399180Y-73135054D01*
X116402233Y-73134848D01*
X116414127Y-73134201D01*
X116414131Y-73134200D01*
X116414143Y-73134200D01*
X116427326Y-73133066D01*
X116439406Y-73132028D01*
X116439413Y-73132025D01*
X116443816Y-73131226D01*
X116466008Y-73129224D01*
X116480381Y-73129224D01*
X116480748Y-73129200D01*
X116502747Y-73129200D01*
X116581456Y-73116733D01*
X116705699Y-73097056D01*
X116901128Y-73033558D01*
X117084219Y-72940271D01*
X117250462Y-72819492D01*
X117291230Y-72778725D01*
X118912988Y-72778725D01*
X118920442Y-72835351D01*
X118920444Y-72835357D01*
X118980899Y-72981309D01*
X119077075Y-73106648D01*
X119202413Y-73202824D01*
X119348365Y-73263278D01*
X119348369Y-73263279D01*
X119465676Y-73278723D01*
X119754999Y-73278723D01*
X119755000Y-73278722D01*
X119755000Y-72778724D01*
X118912990Y-72778724D01*
X118912988Y-72778725D01*
X117291230Y-72778725D01*
X117395765Y-72674194D01*
X117516550Y-72507954D01*
X117609842Y-72324867D01*
X117673346Y-72129440D01*
X117705497Y-71926485D01*
X117705497Y-71908808D01*
X117705500Y-71908779D01*
X117705500Y-71823708D01*
X117705500Y-71823706D01*
X117705502Y-71756899D01*
X117705500Y-71756894D01*
X117705501Y-71750135D01*
X117705500Y-71750097D01*
X117705500Y-70845559D01*
X117705501Y-70845555D01*
X117705500Y-70785678D01*
X117706279Y-70771797D01*
X117718338Y-70664753D01*
X117724517Y-70637682D01*
X117757777Y-70542625D01*
X117769818Y-70517618D01*
X117823403Y-70432336D01*
X117840709Y-70410633D01*
X117911928Y-70339414D01*
X117933620Y-70322114D01*
X118018910Y-70268522D01*
X118043914Y-70256481D01*
X118138974Y-70223217D01*
X118166042Y-70217039D01*
X118272864Y-70205003D01*
X118286747Y-70204224D01*
X118786323Y-70204224D01*
X118786695Y-70204199D01*
X118824982Y-70204199D01*
X118824989Y-70204199D01*
X118894814Y-70195006D01*
X118963849Y-70205771D01*
G37*
%TD.AperFunction*%
%TA.AperFunction,Conductor*%
G36*
X124089014Y-55934154D02*
G01*
X124144947Y-55976026D01*
X124169364Y-56041490D01*
X124167808Y-56071801D01*
X124153965Y-56150560D01*
X124152410Y-56160065D01*
X124152369Y-56160339D01*
X124152331Y-56160588D01*
X124150846Y-56171368D01*
X124135371Y-56296058D01*
X124135371Y-56296061D01*
X124123015Y-56394683D01*
X124121738Y-56402728D01*
X124109832Y-56464522D01*
X124105978Y-56479455D01*
X124092560Y-56520662D01*
X124085251Y-56538341D01*
X124062371Y-56583470D01*
X124052888Y-56599174D01*
X124004107Y-56667894D01*
X123994764Y-56679508D01*
X123894962Y-56789341D01*
X123880496Y-56806163D01*
X123877183Y-56810824D01*
X123876701Y-56810481D01*
X123862396Y-56829077D01*
X121345823Y-59345651D01*
X121345717Y-59345708D01*
X121165280Y-59526148D01*
X120901402Y-59835114D01*
X120662581Y-60163829D01*
X120662574Y-60163839D01*
X120450287Y-60510267D01*
X120450274Y-60510290D01*
X120265830Y-60872290D01*
X120265815Y-60872322D01*
X120110338Y-61247686D01*
X120110335Y-61247693D01*
X119984789Y-61634093D01*
X119984779Y-61634130D01*
X119889936Y-62029188D01*
X119859102Y-62223879D01*
X119826376Y-62430510D01*
X119826375Y-62430517D01*
X119826375Y-62430520D01*
X119819154Y-62522266D01*
X119796325Y-62584769D01*
X119792011Y-62590787D01*
X119773592Y-62617334D01*
X119764158Y-62631564D01*
X119763648Y-62632369D01*
X119755268Y-62646212D01*
X119736449Y-62678751D01*
X119727780Y-62694538D01*
X119727317Y-62695428D01*
X119719261Y-62711795D01*
X119705205Y-62742048D01*
X119701543Y-62750161D01*
X119701384Y-62750524D01*
X119687531Y-62786747D01*
X119687530Y-62786750D01*
X119686680Y-62792012D01*
X119680213Y-62816183D01*
X119659861Y-62869846D01*
X119659859Y-62869854D01*
X119639355Y-63038724D01*
X119659859Y-63207593D01*
X119659860Y-63207598D01*
X119720182Y-63366655D01*
X119770962Y-63440221D01*
X119816817Y-63506653D01*
X119902255Y-63582344D01*
X119944150Y-63619460D01*
X120094774Y-63698514D01*
X120094773Y-63698514D01*
X120149868Y-63712093D01*
X120204034Y-63725443D01*
X120264414Y-63760599D01*
X120296203Y-63822818D01*
X120289307Y-63892346D01*
X120262040Y-63933521D01*
X120039194Y-64156368D01*
X120039169Y-64156381D01*
X119924445Y-64271108D01*
X119786168Y-64444506D01*
X119786162Y-64444515D01*
X119668168Y-64632305D01*
X119668163Y-64632314D01*
X119571936Y-64832135D01*
X119498684Y-65041483D01*
X119498682Y-65041489D01*
X119449331Y-65257713D01*
X119449328Y-65257730D01*
X119424500Y-65478108D01*
X119424500Y-66507550D01*
X119404815Y-66574589D01*
X119352011Y-66620344D01*
X119282853Y-66630288D01*
X119261496Y-66625256D01*
X119145197Y-66586718D01*
X119145190Y-66586717D01*
X119042486Y-66576224D01*
X118992500Y-66576224D01*
X118992500Y-67677224D01*
X118972815Y-67744263D01*
X118920011Y-67790018D01*
X118868500Y-67801224D01*
X118616500Y-67801224D01*
X118549461Y-67781539D01*
X118503706Y-67728735D01*
X118492500Y-67677224D01*
X118492500Y-66576224D01*
X118492499Y-66576223D01*
X118442529Y-66576224D01*
X118442511Y-66576225D01*
X118339802Y-66586718D01*
X118173380Y-66641865D01*
X118173375Y-66641867D01*
X118024154Y-66733908D01*
X117900182Y-66857880D01*
X117863662Y-66917089D01*
X117811714Y-66963813D01*
X117742751Y-66975034D01*
X117678669Y-66947191D01*
X117639814Y-66889122D01*
X117638825Y-66885809D01*
X117623976Y-66833348D01*
X117623621Y-66832064D01*
X117621237Y-66823245D01*
X117621237Y-66823246D01*
X117621236Y-66823241D01*
X117607066Y-66770839D01*
X117606754Y-66769659D01*
X117597502Y-66733908D01*
X117590011Y-66704958D01*
X117589726Y-66703830D01*
X117587570Y-66695143D01*
X117574021Y-66640538D01*
X117572829Y-66635734D01*
X117572557Y-66634618D01*
X117558250Y-66574589D01*
X117555577Y-66563371D01*
X117555338Y-66562349D01*
X117546135Y-66522204D01*
X117543000Y-66494496D01*
X117543000Y-63718176D01*
X117543149Y-63712093D01*
X117545462Y-63665000D01*
X117558247Y-63404704D01*
X117559440Y-63392602D01*
X117565269Y-63353304D01*
X117604145Y-63091199D01*
X117606514Y-63079288D01*
X117680551Y-62783706D01*
X117684081Y-62772071D01*
X117786730Y-62485175D01*
X117791384Y-62473940D01*
X117798558Y-62458773D01*
X117921657Y-62198492D01*
X117927391Y-62187767D01*
X117956536Y-62139140D01*
X118084032Y-61926417D01*
X118090781Y-61916315D01*
X118272301Y-61671558D01*
X118280002Y-61662174D01*
X118486184Y-61434680D01*
X118490342Y-61430313D01*
X123958001Y-55962653D01*
X124019322Y-55929170D01*
X124089014Y-55934154D01*
G37*
%TD.AperFunction*%
%TA.AperFunction,Conductor*%
G36*
X116187301Y-52437685D02*
G01*
X116233056Y-52490489D01*
X116238753Y-52505449D01*
X116294465Y-52686061D01*
X116300460Y-52705494D01*
X116405265Y-52923127D01*
X116405266Y-52923128D01*
X116405268Y-52923131D01*
X116405270Y-52923135D01*
X116500895Y-53063390D01*
X116541350Y-53122727D01*
X116705653Y-53299805D01*
X116705657Y-53299808D01*
X116705658Y-53299809D01*
X116894523Y-53450424D01*
X117103727Y-53571208D01*
X117328596Y-53659463D01*
X117564108Y-53713217D01*
X117604256Y-53716225D01*
X117804995Y-53731269D01*
X117805000Y-53731269D01*
X117805005Y-53731269D01*
X117977065Y-53718374D01*
X118045892Y-53713217D01*
X118281404Y-53659463D01*
X118506273Y-53571208D01*
X118715477Y-53450424D01*
X118904342Y-53299809D01*
X119068650Y-53122727D01*
X119204730Y-52923135D01*
X119309542Y-52705489D01*
X119371247Y-52505449D01*
X119409818Y-52447191D01*
X119473763Y-52419033D01*
X119489738Y-52418000D01*
X124515340Y-52418000D01*
X124582379Y-52437685D01*
X124628134Y-52490489D01*
X124638078Y-52559647D01*
X124609053Y-52623203D01*
X124598878Y-52633637D01*
X124534020Y-52692761D01*
X124399943Y-52870308D01*
X124399938Y-52870316D01*
X124306506Y-53057951D01*
X124303580Y-53063390D01*
X124301216Y-53068320D01*
X124300243Y-53070834D01*
X124297604Y-53078721D01*
X124240275Y-53227248D01*
X124237025Y-53235967D01*
X124236869Y-53236398D01*
X124233609Y-53245818D01*
X124190826Y-53374508D01*
X124190826Y-53374512D01*
X124184288Y-53394178D01*
X124182237Y-53400523D01*
X124182116Y-53400908D01*
X124182104Y-53400948D01*
X124179893Y-53408216D01*
X124142261Y-53536389D01*
X124141181Y-53540140D01*
X124111258Y-53645873D01*
X124110226Y-53649327D01*
X124085745Y-53727124D01*
X124082751Y-53735561D01*
X124060670Y-53791317D01*
X124055370Y-53802919D01*
X124029368Y-53852865D01*
X124022467Y-53864519D01*
X123981627Y-53925611D01*
X123974625Y-53935078D01*
X123906728Y-54018311D01*
X123900768Y-54025097D01*
X123794587Y-54137458D01*
X123777261Y-54157019D01*
X123773797Y-54161769D01*
X123773544Y-54161584D01*
X123758860Y-54180482D01*
X117533916Y-60405426D01*
X117533801Y-60405488D01*
X117355112Y-60584181D01*
X117095241Y-60893893D01*
X116863354Y-61225070D01*
X116863345Y-61225084D01*
X116661203Y-61575212D01*
X116490339Y-61941642D01*
X116490337Y-61941647D01*
X116352074Y-62321534D01*
X116352069Y-62321552D01*
X116333538Y-62390712D01*
X116297173Y-62450372D01*
X116234326Y-62480901D01*
X116164950Y-62472606D01*
X116111072Y-62428121D01*
X116092349Y-62383809D01*
X116089801Y-62371530D01*
X116083854Y-62342866D01*
X116076627Y-62313564D01*
X116076626Y-62313563D01*
X116076626Y-62313560D01*
X116074622Y-62307876D01*
X116075168Y-62307683D01*
X116068116Y-62285317D01*
X116032727Y-62084605D01*
X115951225Y-61780432D01*
X115933196Y-61713144D01*
X115930373Y-61705389D01*
X115801664Y-61351759D01*
X115788628Y-61323804D01*
X115639146Y-61003236D01*
X115639134Y-61003212D01*
X115576022Y-60893899D01*
X115446852Y-60670170D01*
X115446844Y-60670159D01*
X115446840Y-60670152D01*
X115226271Y-60355146D01*
X115024798Y-60115042D01*
X114979074Y-60060550D01*
X114898696Y-59980172D01*
X114898676Y-59980150D01*
X111737720Y-56819195D01*
X111721717Y-56799525D01*
X111715042Y-56789348D01*
X111686943Y-56758425D01*
X111615235Y-56679509D01*
X111605893Y-56667896D01*
X111565816Y-56611439D01*
X111565808Y-56611429D01*
X111557102Y-56599166D01*
X111547619Y-56583461D01*
X111524746Y-56538346D01*
X111517439Y-56520670D01*
X111504018Y-56479452D01*
X111500164Y-56464519D01*
X111488256Y-56402713D01*
X111486979Y-56394667D01*
X111474644Y-56296197D01*
X111474629Y-56296087D01*
X111474626Y-56296057D01*
X111459154Y-56171399D01*
X111457715Y-56160923D01*
X111457627Y-56160339D01*
X111456032Y-56150565D01*
X111449922Y-56115804D01*
X111431594Y-56011521D01*
X111429957Y-56003208D01*
X111428407Y-55995331D01*
X111428204Y-55994400D01*
X111424357Y-55978335D01*
X111383068Y-55820219D01*
X111377959Y-55802341D01*
X111377638Y-55801308D01*
X111371602Y-55783372D01*
X111313281Y-55622582D01*
X111310583Y-55614232D01*
X111309231Y-55609479D01*
X111309230Y-55609478D01*
X111309229Y-55609472D01*
X111307278Y-55605555D01*
X111305038Y-55600806D01*
X111289593Y-55566172D01*
X111289592Y-55566171D01*
X111289476Y-55566011D01*
X111278872Y-55548508D01*
X111210058Y-55410311D01*
X111084981Y-55244681D01*
X111075979Y-55232761D01*
X110911562Y-55082876D01*
X110911560Y-55082874D01*
X110722404Y-54965754D01*
X110722395Y-54965750D01*
X110628956Y-54929552D01*
X110528475Y-54890625D01*
X110473075Y-54848054D01*
X110449484Y-54782288D01*
X110465195Y-54714207D01*
X110515219Y-54665428D01*
X110528466Y-54659377D01*
X110722401Y-54584247D01*
X110911562Y-54467124D01*
X111075981Y-54317236D01*
X111210058Y-54139689D01*
X111309229Y-53940528D01*
X111370115Y-53726536D01*
X111390643Y-53505000D01*
X111370115Y-53283464D01*
X111309229Y-53069472D01*
X111309224Y-53069461D01*
X111210061Y-52870316D01*
X111210056Y-52870308D01*
X111075979Y-52692761D01*
X111011122Y-52633637D01*
X110974840Y-52573926D01*
X110976601Y-52504079D01*
X111015844Y-52446271D01*
X111080111Y-52418856D01*
X111094660Y-52418000D01*
X116120262Y-52418000D01*
X116187301Y-52437685D01*
G37*
%TD.AperFunction*%
%TD*%
%TA.AperFunction,Conductor*%
%TO.N,+5V*%
G36*
X124696953Y-53203418D02*
G01*
X125109502Y-53373744D01*
X125421212Y-53502437D01*
X125427551Y-53508762D01*
X125427562Y-53508787D01*
X125726577Y-54233036D01*
X125726566Y-54241991D01*
X125720227Y-54248316D01*
X125719975Y-54248416D01*
X125556776Y-54311408D01*
X125556254Y-54311596D01*
X125407894Y-54360916D01*
X125407499Y-54361039D01*
X125279501Y-54398621D01*
X125279391Y-54398653D01*
X125166253Y-54430672D01*
X125062917Y-54463189D01*
X124964010Y-54502359D01*
X124964004Y-54502362D01*
X124864192Y-54554326D01*
X124864178Y-54554334D01*
X124758107Y-54625243D01*
X124758105Y-54625244D01*
X124640420Y-54721248D01*
X124640414Y-54721253D01*
X124514028Y-54840690D01*
X124505661Y-54843881D01*
X124497719Y-54840459D01*
X124089540Y-54432280D01*
X124086113Y-54424007D01*
X124089308Y-54415973D01*
X124208748Y-54289582D01*
X124304756Y-54171889D01*
X124375670Y-54065809D01*
X124427638Y-53965990D01*
X124466809Y-53867079D01*
X124499331Y-53763726D01*
X124531352Y-53650578D01*
X124568960Y-53522488D01*
X124569081Y-53522103D01*
X124575619Y-53502437D01*
X124618409Y-53373723D01*
X124618581Y-53373245D01*
X124681584Y-53210022D01*
X124687759Y-53203540D01*
X124696711Y-53203322D01*
X124696953Y-53203418D01*
G37*
%TD.AperFunction*%
%TD*%
%TA.AperFunction,Conductor*%
%TO.N,+5V*%
G36*
X117141452Y-66579651D02*
G01*
X117144583Y-66585310D01*
X117160598Y-66655166D01*
X117178680Y-66731036D01*
X117196798Y-66804055D01*
X117214897Y-66873994D01*
X117229794Y-66929087D01*
X117232985Y-66940888D01*
X117251082Y-67004821D01*
X117251087Y-67004837D01*
X117269182Y-67065765D01*
X117287284Y-67123715D01*
X117305371Y-67178617D01*
X117321278Y-67224265D01*
X117320765Y-67233205D01*
X117319183Y-67235647D01*
X116851453Y-67791582D01*
X116843504Y-67795707D01*
X116834968Y-67793003D01*
X116833547Y-67791582D01*
X116642171Y-67564117D01*
X116365814Y-67235645D01*
X116363111Y-67227111D01*
X116363718Y-67224272D01*
X116379626Y-67178620D01*
X116397723Y-67123687D01*
X116415820Y-67065754D01*
X116433917Y-67004821D01*
X116452015Y-66940888D01*
X116470112Y-66873955D01*
X116488209Y-66804022D01*
X116506306Y-66731089D01*
X116524403Y-66655156D01*
X116540417Y-66585308D01*
X116545606Y-66578011D01*
X116551821Y-66576224D01*
X117133179Y-66576224D01*
X117141452Y-66579651D01*
G37*
%TD.AperFunction*%
%TD*%
%TA.AperFunction,Conductor*%
%TO.N,+5V*%
G36*
X116353637Y-67640062D02*
G01*
X116835870Y-67798017D01*
X116842664Y-67803848D01*
X116843846Y-67807765D01*
X116927388Y-68516064D01*
X116924954Y-68524681D01*
X116918678Y-68528767D01*
X116879079Y-68538931D01*
X116863812Y-68542851D01*
X116863809Y-68542851D01*
X116863805Y-68542853D01*
X116799043Y-68563975D01*
X116799026Y-68563981D01*
X116734275Y-68589599D01*
X116734260Y-68589605D01*
X116669484Y-68619734D01*
X116604716Y-68654357D01*
X116604715Y-68654357D01*
X116539933Y-68693489D01*
X116475182Y-68737100D01*
X116475162Y-68737115D01*
X116410387Y-68785242D01*
X116345612Y-68837869D01*
X116323675Y-68857216D01*
X116286929Y-68889624D01*
X116278457Y-68892526D01*
X116273675Y-68891168D01*
X115937930Y-68711715D01*
X115932249Y-68704792D01*
X115932887Y-68696354D01*
X115969511Y-68619690D01*
X116010954Y-68528437D01*
X116052397Y-68432684D01*
X116093840Y-68332431D01*
X116093846Y-68332413D01*
X116093874Y-68332348D01*
X116135276Y-68227699D01*
X116176725Y-68118432D01*
X116218150Y-68004727D01*
X116218170Y-68004673D01*
X116259613Y-67886420D01*
X116301056Y-67763667D01*
X116338870Y-67647556D01*
X116344690Y-67640753D01*
X116353618Y-67640056D01*
X116353637Y-67640062D01*
G37*
%TD.AperFunction*%
%TD*%
%TA.AperFunction,Conductor*%
%TO.N,/D4*%
G36*
X124407949Y-82755063D02*
G01*
X124541384Y-82876311D01*
X124668131Y-82966285D01*
X124784829Y-83025450D01*
X124896367Y-83061770D01*
X125007638Y-83083207D01*
X125123531Y-83097726D01*
X125248681Y-83113259D01*
X125249207Y-83113338D01*
X125388287Y-83137784D01*
X125389200Y-83137983D01*
X125547342Y-83179278D01*
X125548336Y-83179587D01*
X125719659Y-83241729D01*
X125726266Y-83247771D01*
X125726667Y-83256717D01*
X125726483Y-83257192D01*
X125427562Y-83981212D01*
X125421237Y-83987551D01*
X125421212Y-83987562D01*
X124697192Y-84286483D01*
X124688237Y-84286472D01*
X124681912Y-84280133D01*
X124681739Y-84279686D01*
X124619587Y-84108336D01*
X124619278Y-84107342D01*
X124577983Y-83949200D01*
X124577782Y-83948278D01*
X124553338Y-83809207D01*
X124553259Y-83808681D01*
X124537726Y-83683531D01*
X124523207Y-83567638D01*
X124501770Y-83456367D01*
X124465450Y-83344829D01*
X124406285Y-83228131D01*
X124316311Y-83101384D01*
X124195063Y-82967949D01*
X124192036Y-82959523D01*
X124195449Y-82951810D01*
X124391810Y-82755449D01*
X124400082Y-82752023D01*
X124407949Y-82755063D01*
G37*
%TD.AperFunction*%
%TD*%
%TA.AperFunction,Conductor*%
%TO.N,/D4*%
G36*
X120315146Y-77008683D02*
G01*
X120323407Y-77012137D01*
X120326807Y-77020421D01*
X120326788Y-77021056D01*
X120323032Y-77086205D01*
X120322852Y-77087683D01*
X120311125Y-77150381D01*
X120310764Y-77151807D01*
X120293966Y-77204119D01*
X120293563Y-77205189D01*
X120273800Y-77250851D01*
X120273595Y-77251300D01*
X120252984Y-77293896D01*
X120233976Y-77336492D01*
X120233968Y-77336512D01*
X120218932Y-77382440D01*
X120214114Y-77411424D01*
X120210167Y-77435167D01*
X120209969Y-77498157D01*
X120210605Y-77502730D01*
X120219115Y-77563958D01*
X120216859Y-77572625D01*
X120209809Y-77577044D01*
X119937778Y-77631155D01*
X119928995Y-77629408D01*
X119924040Y-77622061D01*
X119911471Y-77561588D01*
X119897792Y-77502731D01*
X119884673Y-77453719D01*
X119871420Y-77411424D01*
X119871419Y-77411421D01*
X119857346Y-77372730D01*
X119855375Y-77367897D01*
X119841745Y-77334472D01*
X119824085Y-77293896D01*
X119823954Y-77293594D01*
X119803255Y-77246907D01*
X119803229Y-77246849D01*
X119778946Y-77191261D01*
X119778890Y-77191130D01*
X119754905Y-77134347D01*
X119754843Y-77125392D01*
X119761128Y-77119017D01*
X120025125Y-77008655D01*
X120029668Y-77007751D01*
X120315146Y-77008683D01*
G37*
%TD.AperFunction*%
%TD*%
%TA.AperFunction,Conductor*%
%TO.N,/D5*%
G36*
X124407949Y-80215063D02*
G01*
X124541384Y-80336311D01*
X124668131Y-80426285D01*
X124784829Y-80485450D01*
X124896367Y-80521770D01*
X125007638Y-80543207D01*
X125123531Y-80557726D01*
X125248681Y-80573259D01*
X125249207Y-80573338D01*
X125388287Y-80597784D01*
X125389200Y-80597983D01*
X125547342Y-80639278D01*
X125548336Y-80639587D01*
X125719659Y-80701729D01*
X125726266Y-80707771D01*
X125726667Y-80716717D01*
X125726483Y-80717192D01*
X125427562Y-81441212D01*
X125421237Y-81447551D01*
X125421212Y-81447562D01*
X124697192Y-81746483D01*
X124688237Y-81746472D01*
X124681912Y-81740133D01*
X124681739Y-81739686D01*
X124619587Y-81568336D01*
X124619278Y-81567342D01*
X124577983Y-81409200D01*
X124577782Y-81408278D01*
X124553338Y-81269207D01*
X124553259Y-81268681D01*
X124537726Y-81143531D01*
X124523207Y-81027638D01*
X124501770Y-80916367D01*
X124465450Y-80804829D01*
X124406285Y-80688131D01*
X124316311Y-80561384D01*
X124195063Y-80427949D01*
X124192036Y-80419523D01*
X124195449Y-80411810D01*
X124391810Y-80215449D01*
X124400082Y-80212023D01*
X124407949Y-80215063D01*
G37*
%TD.AperFunction*%
%TD*%
%TA.AperFunction,Conductor*%
%TO.N,/D5*%
G36*
X121267664Y-75738683D02*
G01*
X121275924Y-75742137D01*
X121279324Y-75750421D01*
X121279305Y-75751041D01*
X121275691Y-75815184D01*
X121275521Y-75816618D01*
X121264239Y-75878706D01*
X121263905Y-75880073D01*
X121247820Y-75932040D01*
X121247455Y-75933051D01*
X121228654Y-75978527D01*
X121228483Y-75978921D01*
X121209098Y-76021333D01*
X121191523Y-76063720D01*
X121191521Y-76063725D01*
X121179598Y-76104220D01*
X121178109Y-76109277D01*
X121178107Y-76109283D01*
X121171134Y-76161345D01*
X121171133Y-76161369D01*
X121172863Y-76223340D01*
X121172863Y-76223343D01*
X121183731Y-76287717D01*
X121181729Y-76296446D01*
X121174797Y-76301072D01*
X120904380Y-76362789D01*
X120895552Y-76361289D01*
X120890398Y-76354104D01*
X120877714Y-76301072D01*
X120875823Y-76293162D01*
X120860007Y-76234136D01*
X120844953Y-76185096D01*
X120829968Y-76142854D01*
X120829962Y-76142837D01*
X120814371Y-76104240D01*
X120814363Y-76104220D01*
X120797446Y-76066003D01*
X120778526Y-76025016D01*
X120756911Y-75978067D01*
X120731945Y-75922042D01*
X120731864Y-75921855D01*
X120713532Y-75878706D01*
X120707436Y-75864358D01*
X120707356Y-75855406D01*
X120713630Y-75849017D01*
X120713662Y-75849002D01*
X120977598Y-75738661D01*
X120982141Y-75737757D01*
X121267664Y-75738683D01*
G37*
%TD.AperFunction*%
%TD*%
%TA.AperFunction,Conductor*%
%TO.N,/A5*%
G36*
X110921762Y-63363527D02*
G01*
X110928087Y-63369866D01*
X110928271Y-63370342D01*
X110990403Y-63541639D01*
X110990724Y-63542672D01*
X111032013Y-63700788D01*
X111032216Y-63701719D01*
X111056654Y-63840760D01*
X111056742Y-63841344D01*
X111072271Y-63966462D01*
X111086789Y-64082350D01*
X111086792Y-64082366D01*
X111108227Y-64193625D01*
X111108230Y-64193636D01*
X111144550Y-64305175D01*
X111196819Y-64408271D01*
X111203713Y-64421868D01*
X111238167Y-64470403D01*
X111293691Y-64548620D01*
X111414935Y-64682049D01*
X111417963Y-64690476D01*
X111414549Y-64698190D01*
X111218190Y-64894549D01*
X111209917Y-64897976D01*
X111202049Y-64894935D01*
X111068620Y-64773691D01*
X111005241Y-64728700D01*
X110941868Y-64683713D01*
X110941865Y-64683711D01*
X110941863Y-64683710D01*
X110825175Y-64624550D01*
X110825172Y-64624549D01*
X110825170Y-64624548D01*
X110783692Y-64611042D01*
X110713636Y-64588230D01*
X110713625Y-64588227D01*
X110602366Y-64566792D01*
X110602350Y-64566789D01*
X110486475Y-64552272D01*
X110486468Y-64552272D01*
X110422346Y-64544313D01*
X110361344Y-64536742D01*
X110360760Y-64536654D01*
X110221719Y-64512216D01*
X110220788Y-64512013D01*
X110062672Y-64470724D01*
X110061639Y-64470403D01*
X109890342Y-64408271D01*
X109883733Y-64402228D01*
X109883332Y-64393283D01*
X109883499Y-64392848D01*
X110182438Y-63668785D01*
X110188762Y-63662448D01*
X110188764Y-63662446D01*
X110912809Y-63363516D01*
X110921762Y-63363527D01*
G37*
%TD.AperFunction*%
%TD*%
%TA.AperFunction,Conductor*%
%TO.N,/A5*%
G36*
X114626135Y-66552374D02*
G01*
X114630021Y-66560441D01*
X114630040Y-66561061D01*
X114630966Y-66846578D01*
X114630061Y-66851129D01*
X114519733Y-67115031D01*
X114513380Y-67121342D01*
X114504426Y-67121313D01*
X114489640Y-67115031D01*
X114446887Y-67096867D01*
X114446699Y-67096786D01*
X114390712Y-67071835D01*
X114390582Y-67071776D01*
X114343706Y-67050194D01*
X114343695Y-67050189D01*
X114302719Y-67031273D01*
X114302004Y-67030956D01*
X114264508Y-67014355D01*
X114225885Y-66998753D01*
X114183625Y-66983761D01*
X114134570Y-66968700D01*
X114075577Y-66952891D01*
X114014620Y-66938312D01*
X114007371Y-66933055D01*
X114005935Y-66924331D01*
X114067657Y-66653913D01*
X114072839Y-66646611D01*
X114081010Y-66644981D01*
X114145384Y-66655849D01*
X114149516Y-66655964D01*
X114207358Y-66657580D01*
X114207363Y-66657579D01*
X114207372Y-66657580D01*
X114207378Y-66657579D01*
X114207381Y-66657579D01*
X114220533Y-66655817D01*
X114259453Y-66650606D01*
X114305000Y-66637197D01*
X114347388Y-66619622D01*
X114389836Y-66600221D01*
X114390158Y-66600081D01*
X114435686Y-66581260D01*
X114436678Y-66580902D01*
X114488657Y-66564813D01*
X114490005Y-66564483D01*
X114552122Y-66553197D01*
X114553521Y-66553032D01*
X114617682Y-66549418D01*
X114626135Y-66552374D01*
G37*
%TD.AperFunction*%
%TD*%
%TA.AperFunction,Conductor*%
%TO.N,/D2*%
G36*
X111218190Y-82755450D02*
G01*
X111414549Y-82951809D01*
X111417976Y-82960082D01*
X111414935Y-82967950D01*
X111293691Y-83101378D01*
X111203710Y-83228135D01*
X111144550Y-83344823D01*
X111108230Y-83456361D01*
X111108227Y-83456372D01*
X111086792Y-83567632D01*
X111086789Y-83567648D01*
X111072272Y-83683523D01*
X111072273Y-83683524D01*
X111056742Y-83808653D01*
X111056654Y-83809237D01*
X111032216Y-83948278D01*
X111032013Y-83949209D01*
X110990724Y-84107325D01*
X110990403Y-84108358D01*
X110928271Y-84279657D01*
X110922228Y-84286266D01*
X110913283Y-84286667D01*
X110912807Y-84286483D01*
X110912281Y-84286266D01*
X110481368Y-84108358D01*
X110188787Y-83987562D01*
X110182448Y-83981237D01*
X110182437Y-83981212D01*
X110059533Y-83683524D01*
X109883516Y-83257190D01*
X109883527Y-83248237D01*
X109889866Y-83241912D01*
X109890314Y-83241738D01*
X110011571Y-83197756D01*
X110061643Y-83179594D01*
X110062676Y-83179273D01*
X110220802Y-83137981D01*
X110221705Y-83137784D01*
X110360796Y-83113337D01*
X110361311Y-83113259D01*
X110486468Y-83097726D01*
X110602361Y-83083207D01*
X110713631Y-83061770D01*
X110825170Y-83025450D01*
X110941868Y-82966285D01*
X111068615Y-82876311D01*
X111202050Y-82755063D01*
X111210476Y-82752036D01*
X111218190Y-82755450D01*
G37*
%TD.AperFunction*%
%TD*%
%TA.AperFunction,Conductor*%
%TO.N,/D2*%
G36*
X115584875Y-77008655D02*
G01*
X115848829Y-77118999D01*
X115855140Y-77125352D01*
X115855111Y-77134307D01*
X115855094Y-77134347D01*
X115831108Y-77191130D01*
X115831052Y-77191261D01*
X115806769Y-77246849D01*
X115806743Y-77246907D01*
X115786044Y-77293595D01*
X115768256Y-77334464D01*
X115752651Y-77372730D01*
X115738578Y-77411421D01*
X115725323Y-77453727D01*
X115712206Y-77502731D01*
X115698527Y-77561588D01*
X115685958Y-77622062D01*
X115680919Y-77629465D01*
X115672220Y-77631156D01*
X115400189Y-77577044D01*
X115392744Y-77572069D01*
X115390883Y-77563959D01*
X115400029Y-77498157D01*
X115399832Y-77435167D01*
X115391066Y-77382443D01*
X115376027Y-77336507D01*
X115357008Y-77293883D01*
X115336403Y-77251300D01*
X115336198Y-77250851D01*
X115316434Y-77205189D01*
X115316031Y-77204119D01*
X115314716Y-77200025D01*
X115299231Y-77151796D01*
X115298875Y-77150392D01*
X115287146Y-77087683D01*
X115286966Y-77086205D01*
X115283210Y-77021053D01*
X115286155Y-77012600D01*
X115294218Y-77008702D01*
X115294827Y-77008683D01*
X115580330Y-77007751D01*
X115584875Y-77008655D01*
G37*
%TD.AperFunction*%
%TD*%
%TA.AperFunction,Conductor*%
%TO.N,/~{CE}*%
G36*
X120435000Y-71737099D02*
G01*
X120465000Y-71744724D01*
X120494999Y-71751599D01*
X120525000Y-71757724D01*
X120555000Y-71763099D01*
X120585000Y-71767723D01*
X120615000Y-71771598D01*
X120645000Y-71774723D01*
X120675000Y-71777098D01*
X120693933Y-71778124D01*
X120702009Y-71781994D01*
X120705000Y-71789807D01*
X120705000Y-72067640D01*
X120701573Y-72075913D01*
X120693933Y-72079323D01*
X120675013Y-72080348D01*
X120675001Y-72080348D01*
X120675000Y-72080349D01*
X120645000Y-72082724D01*
X120644986Y-72082725D01*
X120644979Y-72082726D01*
X120615017Y-72085847D01*
X120615011Y-72085847D01*
X120614999Y-72085849D01*
X120585361Y-72089677D01*
X120584969Y-72089728D01*
X120555026Y-72094344D01*
X120525002Y-72099722D01*
X120494965Y-72105855D01*
X120464999Y-72112722D01*
X120435015Y-72120343D01*
X120409048Y-72127593D01*
X120401159Y-72127020D01*
X119978119Y-71939420D01*
X119971945Y-71932933D01*
X119972166Y-71923981D01*
X119978119Y-71918028D01*
X120401159Y-71730426D01*
X120409048Y-71729854D01*
X120435000Y-71737099D01*
G37*
%TD.AperFunction*%
%TD*%
%TA.AperFunction,Conductor*%
%TO.N,/~{CE}*%
G36*
X120869704Y-71662355D02*
G01*
X120869736Y-71662429D01*
X120979115Y-71924213D01*
X120979142Y-71933168D01*
X120979115Y-71933235D01*
X120869736Y-72195018D01*
X120863384Y-72201330D01*
X120854429Y-72201303D01*
X120839674Y-72195018D01*
X120802153Y-72179037D01*
X120801990Y-72178966D01*
X120749851Y-72155814D01*
X120749839Y-72155802D01*
X120749837Y-72155808D01*
X120705583Y-72136083D01*
X120666555Y-72119671D01*
X120666542Y-72119666D01*
X120666539Y-72119665D01*
X120653781Y-72115034D01*
X120629757Y-72106315D01*
X120592398Y-72095844D01*
X120551610Y-72088052D01*
X120504513Y-72082734D01*
X120448273Y-72079692D01*
X120391534Y-72078887D01*
X120383310Y-72075343D01*
X120380000Y-72067188D01*
X120380000Y-71790259D01*
X120383427Y-71781986D01*
X120391533Y-71778560D01*
X120437693Y-71777904D01*
X120448273Y-71777754D01*
X120458498Y-71777200D01*
X120504520Y-71774712D01*
X120551609Y-71769395D01*
X120592400Y-71761602D01*
X120629756Y-71751131D01*
X120666539Y-71737782D01*
X120705612Y-71721351D01*
X120749824Y-71701643D01*
X120749839Y-71701643D01*
X120749837Y-71701638D01*
X120802077Y-71678442D01*
X120854356Y-71656175D01*
X120863310Y-71656087D01*
X120869704Y-71662355D01*
G37*
%TD.AperFunction*%
%TD*%
%TA.AperFunction,Conductor*%
%TO.N,/A6*%
G36*
X110921752Y-60823531D02*
G01*
X110928077Y-60829870D01*
X110928264Y-60830355D01*
X110990303Y-61001865D01*
X110990630Y-61002921D01*
X111031525Y-61161350D01*
X111031729Y-61162303D01*
X111055551Y-61301715D01*
X111055638Y-61302319D01*
X111070403Y-61427839D01*
X111084085Y-61544148D01*
X111084086Y-61544154D01*
X111104698Y-61655865D01*
X111104700Y-61655871D01*
X111140271Y-61767805D01*
X111140273Y-61767810D01*
X111198852Y-61884858D01*
X111198859Y-61884869D01*
X111288483Y-62011900D01*
X111288487Y-62011905D01*
X111409718Y-62145544D01*
X111412738Y-62153974D01*
X111409325Y-62161678D01*
X111212966Y-62358037D01*
X111204693Y-62361464D01*
X111196819Y-62358418D01*
X111063800Y-62237379D01*
X110946659Y-62153798D01*
X110937516Y-62147274D01*
X110821321Y-62087726D01*
X110821316Y-62087724D01*
X110821313Y-62087723D01*
X110710328Y-62050854D01*
X110710312Y-62050849D01*
X110599599Y-62028761D01*
X110563594Y-62024019D01*
X110484269Y-62013572D01*
X110484257Y-62013570D01*
X110359711Y-61997434D01*
X110359143Y-61997346D01*
X110220639Y-61972434D01*
X110219727Y-61972232D01*
X110062142Y-61930686D01*
X110061127Y-61930369D01*
X109890330Y-61868276D01*
X109883726Y-61862229D01*
X109883332Y-61853282D01*
X109883500Y-61852846D01*
X110182438Y-61128785D01*
X110188762Y-61122448D01*
X110188764Y-61122446D01*
X110912799Y-60823520D01*
X110921752Y-60823531D01*
G37*
%TD.AperFunction*%
%TD*%
%TA.AperFunction,Conductor*%
%TO.N,/A6*%
G36*
X114320072Y-65056432D02*
G01*
X114360762Y-65095983D01*
X114402688Y-65133606D01*
X114439744Y-65163143D01*
X114474098Y-65186477D01*
X114507916Y-65205487D01*
X114507925Y-65205491D01*
X114507930Y-65205494D01*
X114543361Y-65222055D01*
X114543373Y-65222061D01*
X114568936Y-65232489D01*
X114582612Y-65238068D01*
X114627808Y-65255394D01*
X114627820Y-65255405D01*
X114627823Y-65255400D01*
X114681165Y-65275937D01*
X114733877Y-65297160D01*
X114740271Y-65303429D01*
X114740360Y-65312383D01*
X114740330Y-65312457D01*
X114632563Y-65574908D01*
X114626251Y-65581260D01*
X114626184Y-65581287D01*
X114363733Y-65689054D01*
X114354778Y-65689027D01*
X114348466Y-65682675D01*
X114348436Y-65682601D01*
X114327213Y-65629889D01*
X114306676Y-65576547D01*
X114289344Y-65531336D01*
X114283765Y-65517660D01*
X114273337Y-65492097D01*
X114273331Y-65492085D01*
X114256770Y-65456654D01*
X114256767Y-65456649D01*
X114256763Y-65456640D01*
X114237753Y-65422822D01*
X114214419Y-65388468D01*
X114184882Y-65351412D01*
X114147259Y-65309486D01*
X114107708Y-65268796D01*
X114104400Y-65260476D01*
X114107825Y-65252370D01*
X114303646Y-65056549D01*
X114311918Y-65053123D01*
X114320072Y-65056432D01*
G37*
%TD.AperFunction*%
%TD*%
%TA.AperFunction,Conductor*%
%TO.N,/D0*%
G36*
X111221678Y-77680674D02*
G01*
X111418037Y-77877033D01*
X111421464Y-77885306D01*
X111418418Y-77893180D01*
X111297379Y-78026198D01*
X111207273Y-78152483D01*
X111147730Y-78268669D01*
X111147723Y-78268685D01*
X111110854Y-78379669D01*
X111110849Y-78379685D01*
X111088761Y-78490399D01*
X111088761Y-78490402D01*
X111073572Y-78605730D01*
X111065363Y-78669088D01*
X111057434Y-78730286D01*
X111057346Y-78730854D01*
X111032434Y-78869359D01*
X111032232Y-78870271D01*
X110990686Y-79027856D01*
X110990369Y-79028871D01*
X110928276Y-79199669D01*
X110922229Y-79206273D01*
X110913282Y-79206667D01*
X110912815Y-79206486D01*
X110188787Y-78907562D01*
X110182448Y-78901237D01*
X110182437Y-78901212D01*
X110169286Y-78869359D01*
X109883520Y-78177200D01*
X109883531Y-78168247D01*
X109889870Y-78161922D01*
X109890338Y-78161741D01*
X110061889Y-78099686D01*
X110062897Y-78099374D01*
X110221369Y-78058467D01*
X110222284Y-78058272D01*
X110361724Y-78034444D01*
X110362309Y-78034360D01*
X110487839Y-78019595D01*
X110604167Y-78005911D01*
X110715866Y-77985301D01*
X110827809Y-77949725D01*
X110944865Y-77891142D01*
X111071905Y-77801512D01*
X111205545Y-77680280D01*
X111213974Y-77677261D01*
X111221678Y-77680674D01*
G37*
%TD.AperFunction*%
%TD*%
%TA.AperFunction,Conductor*%
%TO.N,/D0*%
G36*
X114507531Y-74417439D02*
G01*
X114626184Y-74466160D01*
X114632536Y-74472472D01*
X114632563Y-74472539D01*
X114740330Y-74734990D01*
X114740303Y-74743945D01*
X114733951Y-74750257D01*
X114733877Y-74750287D01*
X114681283Y-74771461D01*
X114681117Y-74771527D01*
X114627839Y-74792040D01*
X114627823Y-74792046D01*
X114582586Y-74809389D01*
X114543382Y-74825381D01*
X114543340Y-74825399D01*
X114507922Y-74841955D01*
X114507917Y-74841958D01*
X114474103Y-74860966D01*
X114456921Y-74872636D01*
X114439744Y-74884303D01*
X114439739Y-74884307D01*
X114402694Y-74913834D01*
X114402681Y-74913846D01*
X114360768Y-74951457D01*
X114320073Y-74991014D01*
X114311752Y-74994323D01*
X114303645Y-74990897D01*
X114107826Y-74795078D01*
X114104399Y-74786805D01*
X114107708Y-74778651D01*
X114147259Y-74737960D01*
X114184882Y-74696035D01*
X114214419Y-74658979D01*
X114237753Y-74624624D01*
X114256763Y-74590806D01*
X114273333Y-74555357D01*
X114289344Y-74516110D01*
X114306676Y-74470899D01*
X114327213Y-74417558D01*
X114348436Y-74364845D01*
X114354705Y-74358452D01*
X114363659Y-74358363D01*
X114507531Y-74417439D01*
G37*
%TD.AperFunction*%
%TD*%
%TA.AperFunction,Conductor*%
%TO.N,/D7*%
G36*
X124407949Y-75135063D02*
G01*
X124541384Y-75256311D01*
X124668131Y-75346285D01*
X124784829Y-75405450D01*
X124896367Y-75441770D01*
X125007638Y-75463207D01*
X125123531Y-75477726D01*
X125248681Y-75493259D01*
X125249207Y-75493338D01*
X125388287Y-75517784D01*
X125389200Y-75517983D01*
X125547342Y-75559278D01*
X125548336Y-75559587D01*
X125719659Y-75621729D01*
X125726266Y-75627771D01*
X125726667Y-75636717D01*
X125726483Y-75637192D01*
X125427562Y-76361212D01*
X125421237Y-76367551D01*
X125421212Y-76367562D01*
X124697192Y-76666483D01*
X124688237Y-76666472D01*
X124681912Y-76660133D01*
X124681739Y-76659686D01*
X124619587Y-76488336D01*
X124619278Y-76487342D01*
X124577983Y-76329200D01*
X124577782Y-76328278D01*
X124553338Y-76189207D01*
X124553259Y-76188681D01*
X124537726Y-76063531D01*
X124523207Y-75947638D01*
X124501770Y-75836367D01*
X124465450Y-75724829D01*
X124406285Y-75608131D01*
X124316311Y-75481384D01*
X124195063Y-75347949D01*
X124192036Y-75339523D01*
X124195449Y-75331810D01*
X124391810Y-75135449D01*
X124400082Y-75132023D01*
X124407949Y-75135063D01*
G37*
%TD.AperFunction*%
%TD*%
%TA.AperFunction,Conductor*%
%TO.N,/D7*%
G36*
X121105573Y-72926129D02*
G01*
X121163179Y-72950578D01*
X121163267Y-72950616D01*
X121219338Y-72975520D01*
X121266311Y-72997022D01*
X121307332Y-73015809D01*
X121345587Y-73032581D01*
X121358569Y-73037771D01*
X121384249Y-73048039D01*
X121384257Y-73048041D01*
X121384260Y-73048043D01*
X121426535Y-73062895D01*
X121475597Y-73077840D01*
X121534631Y-73093581D01*
X121595552Y-73108128D01*
X121602803Y-73113383D01*
X121604242Y-73122112D01*
X121542520Y-73392527D01*
X121537338Y-73399830D01*
X121529169Y-73401460D01*
X121464765Y-73390608D01*
X121464751Y-73390606D01*
X121410418Y-73389152D01*
X121402740Y-73388947D01*
X121402739Y-73388947D01*
X121402735Y-73388947D01*
X121402733Y-73388947D01*
X121350651Y-73396029D01*
X121350650Y-73396029D01*
X121332390Y-73401460D01*
X121305091Y-73409579D01*
X121305086Y-73409580D01*
X121305086Y-73409581D01*
X121305080Y-73409583D01*
X121262709Y-73427301D01*
X121220294Y-73446837D01*
X121219897Y-73447011D01*
X121174400Y-73465957D01*
X121173383Y-73466326D01*
X121121419Y-73482519D01*
X121120043Y-73482858D01*
X121057946Y-73494214D01*
X121056503Y-73494386D01*
X120992321Y-73498025D01*
X120983867Y-73495072D01*
X120979978Y-73487006D01*
X120979960Y-73486417D01*
X120979033Y-73200865D01*
X120979937Y-73196322D01*
X121090269Y-72932409D01*
X121096620Y-72926101D01*
X121105573Y-72926129D01*
G37*
%TD.AperFunction*%
%TD*%
%TA.AperFunction,Conductor*%
%TO.N,/A8*%
G36*
X124697171Y-60823508D02*
G01*
X125421212Y-61122437D01*
X125427551Y-61128762D01*
X125427562Y-61128787D01*
X125726486Y-61852815D01*
X125726475Y-61861770D01*
X125720136Y-61868095D01*
X125719669Y-61868276D01*
X125548871Y-61930369D01*
X125547856Y-61930686D01*
X125390271Y-61972232D01*
X125389359Y-61972434D01*
X125250854Y-61997346D01*
X125250286Y-61997434D01*
X125125741Y-62013570D01*
X125125730Y-62013572D01*
X125057114Y-62022608D01*
X125010399Y-62028761D01*
X124899685Y-62050849D01*
X124899669Y-62050854D01*
X124788685Y-62087723D01*
X124788669Y-62087730D01*
X124672483Y-62147273D01*
X124546198Y-62237379D01*
X124413180Y-62358418D01*
X124404755Y-62361451D01*
X124397033Y-62358037D01*
X124200674Y-62161678D01*
X124197247Y-62153405D01*
X124200280Y-62145545D01*
X124321512Y-62011905D01*
X124411142Y-61884865D01*
X124469725Y-61767809D01*
X124505301Y-61655866D01*
X124525911Y-61544167D01*
X124539595Y-61427839D01*
X124554360Y-61302309D01*
X124554446Y-61301715D01*
X124578272Y-61162284D01*
X124578467Y-61161369D01*
X124619374Y-61002897D01*
X124619686Y-61001889D01*
X124681735Y-60830354D01*
X124687771Y-60823741D01*
X124696717Y-60823333D01*
X124697171Y-60823508D01*
G37*
%TD.AperFunction*%
%TD*%
%TA.AperFunction,Conductor*%
%TO.N,/A8*%
G36*
X121306354Y-65056550D02*
G01*
X121502173Y-65252369D01*
X121505600Y-65260642D01*
X121502290Y-65268797D01*
X121462733Y-65309492D01*
X121425122Y-65351405D01*
X121425110Y-65351418D01*
X121395931Y-65388025D01*
X121395579Y-65388468D01*
X121383912Y-65405645D01*
X121372242Y-65422827D01*
X121353234Y-65456641D01*
X121353231Y-65456646D01*
X121336675Y-65492064D01*
X121336657Y-65492106D01*
X121320665Y-65531310D01*
X121303328Y-65576531D01*
X121303322Y-65576547D01*
X121282803Y-65629841D01*
X121282737Y-65630007D01*
X121261563Y-65682601D01*
X121255295Y-65688995D01*
X121246340Y-65689084D01*
X121246266Y-65689054D01*
X120983815Y-65581287D01*
X120977463Y-65574975D01*
X120977436Y-65574908D01*
X120928876Y-65456646D01*
X120869669Y-65312455D01*
X120869696Y-65303502D01*
X120876047Y-65297190D01*
X120928834Y-65275937D01*
X120982175Y-65255400D01*
X120982175Y-65255402D01*
X120982184Y-65255396D01*
X121027386Y-65238068D01*
X121055223Y-65226711D01*
X121066624Y-65222061D01*
X121066627Y-65222059D01*
X121066633Y-65222057D01*
X121102082Y-65205487D01*
X121135900Y-65186477D01*
X121170255Y-65163143D01*
X121207311Y-65133606D01*
X121249236Y-65095983D01*
X121289927Y-65056432D01*
X121298247Y-65053124D01*
X121306354Y-65056550D01*
G37*
%TD.AperFunction*%
%TD*%
%TA.AperFunction,Conductor*%
%TO.N,/A0*%
G36*
X111218190Y-75135450D02*
G01*
X111414549Y-75331809D01*
X111417976Y-75340082D01*
X111414935Y-75347950D01*
X111293691Y-75481378D01*
X111203710Y-75608135D01*
X111144550Y-75724823D01*
X111108230Y-75836361D01*
X111108227Y-75836372D01*
X111086792Y-75947632D01*
X111086789Y-75947648D01*
X111072272Y-76063523D01*
X111072273Y-76063524D01*
X111056742Y-76188653D01*
X111056654Y-76189237D01*
X111032216Y-76328278D01*
X111032013Y-76329209D01*
X110990724Y-76487325D01*
X110990403Y-76488358D01*
X110928271Y-76659657D01*
X110922228Y-76666266D01*
X110913283Y-76666667D01*
X110912807Y-76666483D01*
X110912281Y-76666266D01*
X110481368Y-76488358D01*
X110188787Y-76367562D01*
X110182448Y-76361237D01*
X110182437Y-76361212D01*
X110059533Y-76063524D01*
X109883516Y-75637190D01*
X109883527Y-75628237D01*
X109889866Y-75621912D01*
X109890314Y-75621738D01*
X110011571Y-75577756D01*
X110061643Y-75559594D01*
X110062676Y-75559273D01*
X110220802Y-75517981D01*
X110221705Y-75517784D01*
X110360796Y-75493337D01*
X110361311Y-75493259D01*
X110486468Y-75477726D01*
X110602361Y-75463207D01*
X110713631Y-75441770D01*
X110825170Y-75405450D01*
X110941868Y-75346285D01*
X111068615Y-75256311D01*
X111202050Y-75135063D01*
X111210476Y-75132036D01*
X111218190Y-75135450D01*
G37*
%TD.AperFunction*%
%TD*%
%TA.AperFunction,Conductor*%
%TO.N,/A0*%
G36*
X114519707Y-72932354D02*
G01*
X114519725Y-72932397D01*
X114599031Y-73122095D01*
X114630061Y-73196318D01*
X114630966Y-73200869D01*
X114630040Y-73486382D01*
X114626586Y-73494644D01*
X114618302Y-73498044D01*
X114617678Y-73498025D01*
X114553494Y-73494386D01*
X114552051Y-73494214D01*
X114489953Y-73482857D01*
X114488577Y-73482518D01*
X114436613Y-73466324D01*
X114435596Y-73465955D01*
X114390098Y-73447008D01*
X114389701Y-73446834D01*
X114347286Y-73427296D01*
X114304904Y-73409571D01*
X114259354Y-73396023D01*
X114259345Y-73396021D01*
X114207260Y-73388936D01*
X114207256Y-73388936D01*
X114145241Y-73390595D01*
X114145240Y-73390595D01*
X114145228Y-73390596D01*
X114080824Y-73401446D01*
X114072096Y-73399442D01*
X114067473Y-73392512D01*
X114005759Y-73122095D01*
X114007259Y-73113267D01*
X114014447Y-73108113D01*
X114075370Y-73093567D01*
X114134403Y-73077829D01*
X114183465Y-73062886D01*
X114225740Y-73048035D01*
X114264413Y-73032576D01*
X114302668Y-73015804D01*
X114343689Y-72997019D01*
X114390661Y-72975518D01*
X114446768Y-72950599D01*
X114504367Y-72926154D01*
X114513321Y-72926077D01*
X114519707Y-72932354D01*
G37*
%TD.AperFunction*%
%TD*%
%TA.AperFunction,Conductor*%
%TO.N,/D1*%
G36*
X111218190Y-80215450D02*
G01*
X111414549Y-80411809D01*
X111417976Y-80420082D01*
X111414935Y-80427950D01*
X111293691Y-80561378D01*
X111203710Y-80688135D01*
X111144550Y-80804823D01*
X111108230Y-80916361D01*
X111108227Y-80916372D01*
X111086792Y-81027632D01*
X111086789Y-81027648D01*
X111072272Y-81143523D01*
X111072273Y-81143524D01*
X111056742Y-81268653D01*
X111056654Y-81269237D01*
X111032216Y-81408278D01*
X111032013Y-81409209D01*
X110990724Y-81567325D01*
X110990403Y-81568358D01*
X110928271Y-81739657D01*
X110922228Y-81746266D01*
X110913283Y-81746667D01*
X110912807Y-81746483D01*
X110912281Y-81746266D01*
X110481368Y-81568358D01*
X110188787Y-81447562D01*
X110182448Y-81441237D01*
X110182437Y-81441212D01*
X110059533Y-81143524D01*
X109883516Y-80717190D01*
X109883527Y-80708237D01*
X109889866Y-80701912D01*
X109890314Y-80701738D01*
X110011571Y-80657756D01*
X110061643Y-80639594D01*
X110062676Y-80639273D01*
X110220802Y-80597981D01*
X110221705Y-80597784D01*
X110360796Y-80573337D01*
X110361311Y-80573259D01*
X110486468Y-80557726D01*
X110602361Y-80543207D01*
X110713631Y-80521770D01*
X110825170Y-80485450D01*
X110941868Y-80426285D01*
X111068615Y-80336311D01*
X111202050Y-80215063D01*
X111210476Y-80212036D01*
X111218190Y-80215450D01*
G37*
%TD.AperFunction*%
%TD*%
%TA.AperFunction,Conductor*%
%TO.N,/D1*%
G36*
X114632402Y-75738661D02*
G01*
X114807391Y-75811817D01*
X114896306Y-75848990D01*
X114902617Y-75855343D01*
X114902588Y-75864298D01*
X114902561Y-75864360D01*
X114878128Y-75921862D01*
X114878046Y-75922051D01*
X114853116Y-75977977D01*
X114853057Y-75978108D01*
X114841207Y-76003832D01*
X114833150Y-76021325D01*
X114831456Y-76025002D01*
X114831450Y-76025014D01*
X114812525Y-76065976D01*
X114795584Y-76104210D01*
X114793542Y-76109260D01*
X114779963Y-76142841D01*
X114773390Y-76161354D01*
X114764961Y-76185091D01*
X114749900Y-76234110D01*
X114734073Y-76293147D01*
X114719495Y-76354086D01*
X114714237Y-76361335D01*
X114705512Y-76362771D01*
X114435096Y-76301048D01*
X114427793Y-76295866D01*
X114426163Y-76287695D01*
X114437033Y-76223325D01*
X114438105Y-76185091D01*
X114438771Y-76161354D01*
X114438770Y-76161350D01*
X114438771Y-76161340D01*
X114431807Y-76109260D01*
X114418411Y-76063713D01*
X114400850Y-76021325D01*
X114381478Y-75978906D01*
X114381309Y-75978515D01*
X114362521Y-75933039D01*
X114362156Y-75932029D01*
X114346082Y-75880062D01*
X114345748Y-75878696D01*
X114334474Y-75816614D01*
X114334305Y-75815181D01*
X114334004Y-75809847D01*
X114330693Y-75751039D01*
X114333649Y-75742588D01*
X114341716Y-75738702D01*
X114342300Y-75738684D01*
X114627857Y-75737757D01*
X114632402Y-75738661D01*
G37*
%TD.AperFunction*%
%TD*%
%TA.AperFunction,Conductor*%
%TO.N,/D6*%
G36*
X124404455Y-77680281D02*
G01*
X124502107Y-77768866D01*
X124538094Y-77801512D01*
X124665133Y-77891142D01*
X124782189Y-77949725D01*
X124894132Y-77985301D01*
X125005832Y-78005911D01*
X125122159Y-78019595D01*
X125247683Y-78034359D01*
X125248279Y-78034445D01*
X125387709Y-78058271D01*
X125388634Y-78058469D01*
X125547094Y-78099372D01*
X125548114Y-78099688D01*
X125719644Y-78161735D01*
X125726258Y-78167771D01*
X125726666Y-78176717D01*
X125726479Y-78177202D01*
X125427562Y-78901212D01*
X125421237Y-78907551D01*
X125421212Y-78907562D01*
X124697184Y-79206486D01*
X124688229Y-79206475D01*
X124681904Y-79200136D01*
X124681723Y-79199669D01*
X124619624Y-79028859D01*
X124619315Y-79027869D01*
X124577762Y-78870260D01*
X124577563Y-78869359D01*
X124552652Y-78730854D01*
X124552564Y-78730286D01*
X124536426Y-78605730D01*
X124521237Y-78490402D01*
X124499148Y-78379684D01*
X124462273Y-78268678D01*
X124402725Y-78152482D01*
X124312619Y-78026198D01*
X124275404Y-77985300D01*
X124191581Y-77893180D01*
X124188548Y-77884755D01*
X124191961Y-77877034D01*
X124388322Y-77680673D01*
X124396594Y-77677247D01*
X124404455Y-77680281D01*
G37*
%TD.AperFunction*%
%TD*%
%TA.AperFunction,Conductor*%
%TO.N,/D6*%
G36*
X121255221Y-74358420D02*
G01*
X121261533Y-74364772D01*
X121261563Y-74364846D01*
X121282737Y-74417439D01*
X121282803Y-74417605D01*
X121303322Y-74470899D01*
X121303328Y-74470915D01*
X121320665Y-74516135D01*
X121336657Y-74555339D01*
X121336675Y-74555381D01*
X121353231Y-74590799D01*
X121353234Y-74590804D01*
X121372242Y-74624618D01*
X121372245Y-74624623D01*
X121372246Y-74624624D01*
X121395579Y-74658979D01*
X121425116Y-74696035D01*
X121462739Y-74737960D01*
X121502290Y-74778650D01*
X121505599Y-74786971D01*
X121502173Y-74795078D01*
X121306354Y-74990897D01*
X121298081Y-74994324D01*
X121289926Y-74991014D01*
X121289806Y-74990897D01*
X121249236Y-74951463D01*
X121207311Y-74913840D01*
X121207307Y-74913837D01*
X121207304Y-74913834D01*
X121194664Y-74903759D01*
X121170255Y-74884303D01*
X121135900Y-74860970D01*
X121135899Y-74860969D01*
X121135894Y-74860966D01*
X121102080Y-74841958D01*
X121102075Y-74841955D01*
X121066657Y-74825399D01*
X121066615Y-74825381D01*
X121027411Y-74809389D01*
X121027402Y-74809385D01*
X121027386Y-74809379D01*
X120982175Y-74792046D01*
X120928881Y-74771527D01*
X120928715Y-74771461D01*
X120876122Y-74750287D01*
X120869728Y-74744019D01*
X120869639Y-74735064D01*
X120977436Y-74472538D01*
X120983746Y-74466188D01*
X121246268Y-74358393D01*
X121255221Y-74358420D01*
G37*
%TD.AperFunction*%
%TD*%
%TA.AperFunction,Conductor*%
%TO.N,/A7*%
G36*
X110921762Y-58283527D02*
G01*
X110928087Y-58289866D01*
X110928271Y-58290342D01*
X110990403Y-58461639D01*
X110990724Y-58462672D01*
X111032013Y-58620788D01*
X111032216Y-58621719D01*
X111056654Y-58760760D01*
X111056742Y-58761344D01*
X111072271Y-58886462D01*
X111086789Y-59002350D01*
X111086792Y-59002366D01*
X111108227Y-59113625D01*
X111108230Y-59113636D01*
X111144550Y-59225175D01*
X111196819Y-59328271D01*
X111203713Y-59341868D01*
X111238167Y-59390403D01*
X111293691Y-59468620D01*
X111414935Y-59602049D01*
X111417963Y-59610476D01*
X111414549Y-59618190D01*
X111218190Y-59814549D01*
X111209917Y-59817976D01*
X111202049Y-59814935D01*
X111068620Y-59693691D01*
X111005241Y-59648700D01*
X110941868Y-59603713D01*
X110941865Y-59603711D01*
X110941863Y-59603710D01*
X110825175Y-59544550D01*
X110825172Y-59544549D01*
X110825170Y-59544548D01*
X110783692Y-59531042D01*
X110713636Y-59508230D01*
X110713625Y-59508227D01*
X110602366Y-59486792D01*
X110602350Y-59486789D01*
X110486475Y-59472272D01*
X110486468Y-59472272D01*
X110422346Y-59464313D01*
X110361344Y-59456742D01*
X110360760Y-59456654D01*
X110221719Y-59432216D01*
X110220788Y-59432013D01*
X110062672Y-59390724D01*
X110061639Y-59390403D01*
X109890342Y-59328271D01*
X109883733Y-59322228D01*
X109883332Y-59313283D01*
X109883499Y-59312848D01*
X110182438Y-58588785D01*
X110188762Y-58582448D01*
X110188764Y-58582446D01*
X110912809Y-58283516D01*
X110921762Y-58283527D01*
G37*
%TD.AperFunction*%
%TD*%
%TA.AperFunction,Conductor*%
%TO.N,/A7*%
G36*
X114715338Y-63685998D02*
G01*
X114720492Y-63693186D01*
X114735044Y-63754110D01*
X114740556Y-63774774D01*
X114750798Y-63813165D01*
X114765749Y-63862204D01*
X114780613Y-63904472D01*
X114796081Y-63943121D01*
X114812886Y-63981415D01*
X114831678Y-64022413D01*
X114831679Y-64022416D01*
X114853164Y-64069324D01*
X114853219Y-64069446D01*
X114878073Y-64125388D01*
X114878151Y-64125567D01*
X114902567Y-64183090D01*
X114902645Y-64192044D01*
X114896368Y-64198431D01*
X114896310Y-64198456D01*
X114632405Y-64308785D01*
X114627854Y-64309690D01*
X114342341Y-64308764D01*
X114334079Y-64305310D01*
X114330679Y-64297026D01*
X114330698Y-64296402D01*
X114334334Y-64232206D01*
X114334503Y-64230795D01*
X114345856Y-64168677D01*
X114346187Y-64167329D01*
X114362378Y-64115337D01*
X114362746Y-64114326D01*
X114381696Y-64068785D01*
X114381829Y-64068482D01*
X114401367Y-64026032D01*
X114419078Y-63983643D01*
X114427252Y-63956128D01*
X114432609Y-63938102D01*
X114432609Y-63938098D01*
X114432612Y-63938090D01*
X114439685Y-63885998D01*
X114438017Y-63823988D01*
X114427161Y-63759574D01*
X114429165Y-63750849D01*
X114436091Y-63746226D01*
X114706511Y-63684498D01*
X114715338Y-63685998D01*
G37*
%TD.AperFunction*%
%TD*%
%TA.AperFunction,Conductor*%
%TO.N,/A9*%
G36*
X124697165Y-63363505D02*
G01*
X125421212Y-63662437D01*
X125427551Y-63668762D01*
X125427562Y-63668787D01*
X125726483Y-64392807D01*
X125726472Y-64401762D01*
X125720133Y-64408087D01*
X125719657Y-64408271D01*
X125548358Y-64470403D01*
X125547325Y-64470724D01*
X125389209Y-64512013D01*
X125388278Y-64512216D01*
X125249237Y-64536654D01*
X125248653Y-64536742D01*
X125166678Y-64546916D01*
X125123531Y-64552272D01*
X125123523Y-64552272D01*
X125007648Y-64566789D01*
X125007632Y-64566792D01*
X124896372Y-64588227D01*
X124896361Y-64588230D01*
X124784823Y-64624550D01*
X124668135Y-64683710D01*
X124541378Y-64773691D01*
X124407950Y-64894935D01*
X124399523Y-64897963D01*
X124391809Y-64894549D01*
X124195450Y-64698190D01*
X124192023Y-64689917D01*
X124195063Y-64682050D01*
X124316311Y-64548615D01*
X124406285Y-64421868D01*
X124465450Y-64305170D01*
X124501770Y-64193631D01*
X124523207Y-64082361D01*
X124537726Y-63966468D01*
X124553259Y-63841311D01*
X124553337Y-63840796D01*
X124577784Y-63701705D01*
X124577981Y-63700802D01*
X124619273Y-63542674D01*
X124619594Y-63541643D01*
X124637756Y-63491571D01*
X124681729Y-63370340D01*
X124687771Y-63363733D01*
X124696716Y-63363332D01*
X124697165Y-63363505D01*
G37*
%TD.AperFunction*%
%TD*%
%TA.AperFunction,Conductor*%
%TO.N,/A9*%
G36*
X120992317Y-66549418D02*
G01*
X120995448Y-66549594D01*
X121056472Y-66553032D01*
X121057881Y-66553198D01*
X121119992Y-66564484D01*
X121121341Y-66564814D01*
X121173312Y-66580900D01*
X121174323Y-66581265D01*
X121219812Y-66600071D01*
X121220180Y-66600231D01*
X121262611Y-66619623D01*
X121304999Y-66637198D01*
X121305004Y-66637200D01*
X121318200Y-66641084D01*
X121350547Y-66650607D01*
X121375244Y-66653914D01*
X121402619Y-66657580D01*
X121402622Y-66657580D01*
X121402629Y-66657581D01*
X121402636Y-66657580D01*
X121402642Y-66657581D01*
X121452994Y-66656173D01*
X121464617Y-66655849D01*
X121528990Y-66644981D01*
X121537717Y-66646983D01*
X121542344Y-66653914D01*
X121604067Y-66924329D01*
X121602567Y-66933158D01*
X121595382Y-66938312D01*
X121534424Y-66952892D01*
X121475430Y-66968700D01*
X121426375Y-66983762D01*
X121384123Y-66998750D01*
X121346419Y-67013982D01*
X121345497Y-67014355D01*
X121307281Y-67031273D01*
X121307279Y-67031274D01*
X121266304Y-67050190D01*
X121266293Y-67050195D01*
X121219417Y-67071776D01*
X121219287Y-67071835D01*
X121163299Y-67096786D01*
X121163111Y-67096867D01*
X121105636Y-67121286D01*
X121096682Y-67121367D01*
X121090293Y-67115093D01*
X121090266Y-67115031D01*
X121082649Y-67096811D01*
X120979937Y-66851126D01*
X120979033Y-66846581D01*
X120979959Y-66561058D01*
X120983413Y-66552799D01*
X120991697Y-66549399D01*
X120992317Y-66549418D01*
G37*
%TD.AperFunction*%
%TD*%
%TA.AperFunction,Conductor*%
%TO.N,/~{WE}*%
G36*
X124697165Y-55743505D02*
G01*
X125421212Y-56042437D01*
X125427551Y-56048762D01*
X125427562Y-56048787D01*
X125726483Y-56772807D01*
X125726472Y-56781762D01*
X125720133Y-56788087D01*
X125719657Y-56788271D01*
X125548358Y-56850403D01*
X125547325Y-56850724D01*
X125389209Y-56892013D01*
X125388278Y-56892216D01*
X125249237Y-56916654D01*
X125248653Y-56916742D01*
X125166678Y-56926916D01*
X125123531Y-56932272D01*
X125123523Y-56932272D01*
X125007648Y-56946789D01*
X125007632Y-56946792D01*
X124896372Y-56968227D01*
X124896361Y-56968230D01*
X124784823Y-57004550D01*
X124668135Y-57063710D01*
X124541378Y-57153691D01*
X124407950Y-57274935D01*
X124399523Y-57277963D01*
X124391809Y-57274549D01*
X124195450Y-57078190D01*
X124192023Y-57069917D01*
X124195063Y-57062050D01*
X124316311Y-56928615D01*
X124406285Y-56801868D01*
X124465450Y-56685170D01*
X124501770Y-56573631D01*
X124523207Y-56462361D01*
X124537726Y-56346468D01*
X124553259Y-56221311D01*
X124553337Y-56220796D01*
X124577784Y-56081705D01*
X124577981Y-56080802D01*
X124619273Y-55922674D01*
X124619594Y-55921643D01*
X124637756Y-55871571D01*
X124681729Y-55750340D01*
X124687771Y-55743733D01*
X124696716Y-55743332D01*
X124697165Y-55743505D01*
G37*
%TD.AperFunction*%
%TD*%
%TA.AperFunction,Conductor*%
%TO.N,/~{WE}*%
G36*
X120503145Y-62646610D02*
G01*
X120511088Y-62650744D01*
X120513815Y-62658749D01*
X120512694Y-62685820D01*
X120512624Y-62687526D01*
X120515085Y-62719907D01*
X120521152Y-62746534D01*
X120530321Y-62769220D01*
X120542087Y-62789773D01*
X120542089Y-62789776D01*
X120555936Y-62809995D01*
X120571275Y-62831571D01*
X120571502Y-62831903D01*
X120587684Y-62856407D01*
X120588097Y-62857080D01*
X120604763Y-62886453D01*
X120605203Y-62887309D01*
X120617054Y-62912889D01*
X120617422Y-62921836D01*
X120611356Y-62928423D01*
X120610947Y-62928603D01*
X120349423Y-63037835D01*
X120340469Y-63037862D01*
X120340402Y-63037834D01*
X120079061Y-62928610D01*
X120072749Y-62922258D01*
X120072778Y-62913303D01*
X120072952Y-62912906D01*
X120087007Y-62882655D01*
X120087477Y-62881752D01*
X120106274Y-62849252D01*
X120106764Y-62848478D01*
X120125172Y-62821946D01*
X120125537Y-62821453D01*
X120143324Y-62798636D01*
X120143381Y-62798562D01*
X120160277Y-62777242D01*
X120175681Y-62755556D01*
X120189245Y-62731320D01*
X120200621Y-62702345D01*
X120209462Y-62666447D01*
X120213951Y-62632533D01*
X120218434Y-62624782D01*
X120226568Y-62622414D01*
X120503145Y-62646610D01*
G37*
%TD.AperFunction*%
%TD*%
%TA.AperFunction,Conductor*%
%TO.N,/A12*%
G36*
X110921762Y-55743527D02*
G01*
X110928087Y-55749866D01*
X110928271Y-55750342D01*
X110990403Y-55921639D01*
X110990724Y-55922672D01*
X111032013Y-56080788D01*
X111032216Y-56081719D01*
X111056654Y-56220760D01*
X111056742Y-56221344D01*
X111072271Y-56346462D01*
X111086789Y-56462350D01*
X111086792Y-56462366D01*
X111108227Y-56573625D01*
X111108230Y-56573636D01*
X111144550Y-56685175D01*
X111196819Y-56788271D01*
X111203713Y-56801868D01*
X111238167Y-56850403D01*
X111293691Y-56928620D01*
X111414935Y-57062049D01*
X111417963Y-57070476D01*
X111414549Y-57078190D01*
X111218190Y-57274549D01*
X111209917Y-57277976D01*
X111202049Y-57274935D01*
X111068620Y-57153691D01*
X111005241Y-57108700D01*
X110941868Y-57063713D01*
X110941865Y-57063711D01*
X110941863Y-57063710D01*
X110825175Y-57004550D01*
X110825172Y-57004549D01*
X110825170Y-57004548D01*
X110783692Y-56991042D01*
X110713636Y-56968230D01*
X110713625Y-56968227D01*
X110602366Y-56946792D01*
X110602350Y-56946789D01*
X110486475Y-56932272D01*
X110486468Y-56932272D01*
X110422346Y-56924313D01*
X110361344Y-56916742D01*
X110360760Y-56916654D01*
X110221719Y-56892216D01*
X110220788Y-56892013D01*
X110062672Y-56850724D01*
X110061639Y-56850403D01*
X109890342Y-56788271D01*
X109883733Y-56782228D01*
X109883332Y-56773283D01*
X109883499Y-56772848D01*
X110182438Y-56048785D01*
X110188762Y-56042448D01*
X110188764Y-56042446D01*
X110912809Y-55743516D01*
X110921762Y-55743527D01*
G37*
%TD.AperFunction*%
%TD*%
%TA.AperFunction,Conductor*%
%TO.N,/A12*%
G36*
X115681855Y-62417900D02*
G01*
X115686811Y-62425251D01*
X115699357Y-62485715D01*
X115712966Y-62544558D01*
X115725994Y-62593602D01*
X115739137Y-62635931D01*
X115753088Y-62674655D01*
X115768561Y-62712934D01*
X115786236Y-62753835D01*
X115806867Y-62800603D01*
X115806889Y-62800653D01*
X115831103Y-62856243D01*
X115831155Y-62856366D01*
X115855099Y-62913102D01*
X115855159Y-62922056D01*
X115848869Y-62928430D01*
X115848833Y-62928446D01*
X115584878Y-63038791D01*
X115580327Y-63039696D01*
X115294856Y-63038764D01*
X115286594Y-63035310D01*
X115283194Y-63027026D01*
X115283213Y-63026413D01*
X115286990Y-62961208D01*
X115287171Y-62959728D01*
X115298966Y-62896995D01*
X115299324Y-62895589D01*
X115316224Y-62843243D01*
X115316618Y-62842205D01*
X115336528Y-62796471D01*
X115336696Y-62796107D01*
X115357445Y-62753492D01*
X115376592Y-62710868D01*
X115391748Y-62664930D01*
X115400608Y-62612195D01*
X115400866Y-62549184D01*
X115391734Y-62483343D01*
X115393992Y-62474680D01*
X115401038Y-62470263D01*
X115673074Y-62416153D01*
X115681855Y-62417900D01*
G37*
%TD.AperFunction*%
%TD*%
%TA.AperFunction,Conductor*%
%TO.N,/E1*%
G36*
X115803811Y-71532151D02*
G01*
X115806979Y-71537977D01*
X115809991Y-71552060D01*
X115814991Y-71574683D01*
X115820010Y-71596643D01*
X115824989Y-71617678D01*
X115829987Y-71638049D01*
X115834985Y-71657669D01*
X115839996Y-71676590D01*
X115844993Y-71694704D01*
X115847299Y-71702718D01*
X115849999Y-71712098D01*
X115850012Y-71712141D01*
X115852991Y-71722045D01*
X115852092Y-71730955D01*
X115850081Y-71733667D01*
X115663294Y-71921388D01*
X115655029Y-71924836D01*
X115646748Y-71921430D01*
X115646706Y-71921389D01*
X115646705Y-71921388D01*
X115459917Y-71733665D01*
X115456512Y-71725386D01*
X115457007Y-71722048D01*
X115460000Y-71712098D01*
X115465000Y-71694723D01*
X115470000Y-71676598D01*
X115475000Y-71657723D01*
X115480000Y-71638099D01*
X115479999Y-71638099D01*
X115480013Y-71638048D01*
X115485010Y-71617678D01*
X115489989Y-71596643D01*
X115495008Y-71574683D01*
X115499991Y-71552134D01*
X115499999Y-71552099D01*
X115501632Y-71544466D01*
X115503021Y-71537976D01*
X115508103Y-71530603D01*
X115514462Y-71528724D01*
X115795538Y-71528724D01*
X115803811Y-71532151D01*
G37*
%TD.AperFunction*%
%TD*%
%TA.AperFunction,Conductor*%
%TO.N,/E1*%
G36*
X115663250Y-71286016D02*
G01*
X115663293Y-71286058D01*
X115663294Y-71286059D01*
X115850081Y-71473780D01*
X115853487Y-71482061D01*
X115852991Y-71485402D01*
X115849999Y-71495349D01*
X115847670Y-71503440D01*
X115844993Y-71512742D01*
X115839996Y-71530856D01*
X115834985Y-71549778D01*
X115829987Y-71569399D01*
X115824989Y-71589769D01*
X115820009Y-71610803D01*
X115820010Y-71610804D01*
X115814991Y-71632764D01*
X115809991Y-71655387D01*
X115806979Y-71669471D01*
X115801898Y-71676845D01*
X115795538Y-71678724D01*
X115514462Y-71678724D01*
X115506189Y-71675297D01*
X115503021Y-71669472D01*
X115499991Y-71655310D01*
X115495008Y-71632764D01*
X115489989Y-71610804D01*
X115489989Y-71610803D01*
X115485010Y-71589770D01*
X115485010Y-71589769D01*
X115484999Y-71589723D01*
X115480012Y-71569399D01*
X115479949Y-71569150D01*
X115475000Y-71549724D01*
X115470000Y-71530849D01*
X115465000Y-71512724D01*
X115460000Y-71495349D01*
X115457008Y-71485400D01*
X115457907Y-71476492D01*
X115459910Y-71473788D01*
X115646708Y-71286056D01*
X115654971Y-71282611D01*
X115663250Y-71286016D01*
G37*
%TD.AperFunction*%
%TD*%
%TA.AperFunction,Conductor*%
%TO.N,/~{E1}*%
G36*
X120435000Y-70437099D02*
G01*
X120465000Y-70444724D01*
X120494999Y-70451599D01*
X120525000Y-70457724D01*
X120555000Y-70463099D01*
X120585000Y-70467723D01*
X120615000Y-70471598D01*
X120645000Y-70474723D01*
X120675000Y-70477098D01*
X120693933Y-70478124D01*
X120702009Y-70481994D01*
X120705000Y-70489807D01*
X120705000Y-70767640D01*
X120701573Y-70775913D01*
X120693933Y-70779323D01*
X120675013Y-70780348D01*
X120675001Y-70780348D01*
X120675000Y-70780349D01*
X120645000Y-70782724D01*
X120644986Y-70782725D01*
X120644979Y-70782726D01*
X120615017Y-70785847D01*
X120615011Y-70785847D01*
X120614999Y-70785849D01*
X120585361Y-70789677D01*
X120584969Y-70789728D01*
X120555026Y-70794344D01*
X120525002Y-70799722D01*
X120494965Y-70805855D01*
X120464999Y-70812722D01*
X120435015Y-70820343D01*
X120409048Y-70827593D01*
X120401159Y-70827020D01*
X119978119Y-70639420D01*
X119971945Y-70632933D01*
X119972166Y-70623981D01*
X119978119Y-70618028D01*
X120401159Y-70430426D01*
X120409048Y-70429854D01*
X120435000Y-70437099D01*
G37*
%TD.AperFunction*%
%TD*%
%TA.AperFunction,Conductor*%
%TO.N,/~{E1}*%
G36*
X120103811Y-70882151D02*
G01*
X120106979Y-70887977D01*
X120109991Y-70902060D01*
X120114991Y-70924683D01*
X120120010Y-70946643D01*
X120124989Y-70967678D01*
X120129987Y-70988049D01*
X120134985Y-71007669D01*
X120139996Y-71026590D01*
X120144993Y-71044704D01*
X120147299Y-71052718D01*
X120149999Y-71062098D01*
X120150012Y-71062141D01*
X120152991Y-71072045D01*
X120152092Y-71080955D01*
X120150081Y-71083667D01*
X119963294Y-71271388D01*
X119955029Y-71274836D01*
X119946748Y-71271430D01*
X119946706Y-71271389D01*
X119946705Y-71271388D01*
X119759917Y-71083665D01*
X119756512Y-71075386D01*
X119757007Y-71072048D01*
X119760000Y-71062098D01*
X119765000Y-71044723D01*
X119770000Y-71026598D01*
X119775000Y-71007723D01*
X119780000Y-70988099D01*
X119779999Y-70988099D01*
X119780013Y-70988048D01*
X119785010Y-70967678D01*
X119789989Y-70946643D01*
X119795008Y-70924683D01*
X119799991Y-70902134D01*
X119799999Y-70902099D01*
X119801632Y-70894466D01*
X119803021Y-70887976D01*
X119808103Y-70880603D01*
X119814462Y-70878724D01*
X120095538Y-70878724D01*
X120103811Y-70882151D01*
G37*
%TD.AperFunction*%
%TD*%
%TA.AperFunction,Conductor*%
%TO.N,/~{E1}*%
G36*
X119963250Y-70636016D02*
G01*
X119963293Y-70636058D01*
X119963294Y-70636059D01*
X120150081Y-70823780D01*
X120153487Y-70832061D01*
X120152991Y-70835402D01*
X120149999Y-70845349D01*
X120147670Y-70853440D01*
X120144993Y-70862742D01*
X120139996Y-70880856D01*
X120134985Y-70899778D01*
X120129987Y-70919399D01*
X120124989Y-70939769D01*
X120120009Y-70960803D01*
X120120010Y-70960804D01*
X120114991Y-70982764D01*
X120109991Y-71005387D01*
X120106979Y-71019471D01*
X120101898Y-71026845D01*
X120095538Y-71028724D01*
X119814462Y-71028724D01*
X119806189Y-71025297D01*
X119803021Y-71019472D01*
X119799991Y-71005310D01*
X119795008Y-70982764D01*
X119789989Y-70960804D01*
X119789989Y-70960803D01*
X119785010Y-70939770D01*
X119785010Y-70939769D01*
X119784999Y-70939723D01*
X119780012Y-70919399D01*
X119779949Y-70919150D01*
X119775000Y-70899724D01*
X119770000Y-70880849D01*
X119765000Y-70862724D01*
X119760000Y-70845349D01*
X119757008Y-70835400D01*
X119757907Y-70826492D01*
X119759910Y-70823788D01*
X119946708Y-70636056D01*
X119954971Y-70632611D01*
X119963250Y-70636016D01*
G37*
%TD.AperFunction*%
%TD*%
%TA.AperFunction,Conductor*%
%TO.N,/~{E1}*%
G36*
X124407949Y-72595063D02*
G01*
X124541384Y-72716311D01*
X124668131Y-72806285D01*
X124784829Y-72865450D01*
X124896367Y-72901770D01*
X125007638Y-72923207D01*
X125123531Y-72937726D01*
X125248681Y-72953259D01*
X125249207Y-72953338D01*
X125388287Y-72977784D01*
X125389200Y-72977983D01*
X125547342Y-73019278D01*
X125548336Y-73019587D01*
X125719659Y-73081729D01*
X125726266Y-73087771D01*
X125726667Y-73096717D01*
X125726483Y-73097192D01*
X125427562Y-73821212D01*
X125421237Y-73827551D01*
X125421212Y-73827562D01*
X124697192Y-74126483D01*
X124688237Y-74126472D01*
X124681912Y-74120133D01*
X124681739Y-74119686D01*
X124619587Y-73948336D01*
X124619278Y-73947342D01*
X124577983Y-73789200D01*
X124577782Y-73788278D01*
X124553338Y-73649207D01*
X124553259Y-73648681D01*
X124537726Y-73523531D01*
X124523207Y-73407638D01*
X124501770Y-73296367D01*
X124465450Y-73184829D01*
X124406285Y-73068131D01*
X124316311Y-72941384D01*
X124195063Y-72807949D01*
X124192036Y-72799523D01*
X124195449Y-72791810D01*
X124391810Y-72595449D01*
X124400082Y-72592023D01*
X124407949Y-72595063D01*
G37*
%TD.AperFunction*%
%TD*%
%TA.AperFunction,Conductor*%
%TO.N,/E2*%
G36*
X116134202Y-72387110D02*
G01*
X116163362Y-72394738D01*
X116192521Y-72401616D01*
X116221681Y-72407744D01*
X116250841Y-72413122D01*
X116280000Y-72417749D01*
X116309160Y-72421627D01*
X116338319Y-72424755D01*
X116367479Y-72427133D01*
X116385838Y-72428158D01*
X116393906Y-72432041D01*
X116396881Y-72439578D01*
X116403107Y-72717358D01*
X116399866Y-72725706D01*
X116392048Y-72729303D01*
X116373508Y-72730314D01*
X116347766Y-72732367D01*
X116343688Y-72732693D01*
X116343679Y-72732693D01*
X116343678Y-72732694D01*
X116313843Y-72735822D01*
X116284046Y-72739696D01*
X116254151Y-72744334D01*
X116224368Y-72749703D01*
X116224344Y-72749708D01*
X116194508Y-72755837D01*
X116189475Y-72756997D01*
X116164667Y-72762716D01*
X116134828Y-72770347D01*
X116109056Y-72777584D01*
X116101150Y-72777016D01*
X115678122Y-72589441D01*
X115671948Y-72582954D01*
X115672169Y-72574002D01*
X115678120Y-72568050D01*
X116101157Y-72380454D01*
X116109129Y-72379906D01*
X116134202Y-72387110D01*
G37*
%TD.AperFunction*%
%TD*%
%TA.AperFunction,Conductor*%
%TO.N,/E2*%
G36*
X124697165Y-58283505D02*
G01*
X125421212Y-58582437D01*
X125427551Y-58588762D01*
X125427562Y-58588787D01*
X125726483Y-59312807D01*
X125726472Y-59321762D01*
X125720133Y-59328087D01*
X125719657Y-59328271D01*
X125548358Y-59390403D01*
X125547325Y-59390724D01*
X125389209Y-59432013D01*
X125388278Y-59432216D01*
X125249237Y-59456654D01*
X125248653Y-59456742D01*
X125166678Y-59466916D01*
X125123531Y-59472272D01*
X125123523Y-59472272D01*
X125007648Y-59486789D01*
X125007632Y-59486792D01*
X124896372Y-59508227D01*
X124896361Y-59508230D01*
X124784823Y-59544550D01*
X124668135Y-59603710D01*
X124541378Y-59693691D01*
X124407950Y-59814935D01*
X124399523Y-59817963D01*
X124391809Y-59814549D01*
X124195450Y-59618190D01*
X124192023Y-59609917D01*
X124195063Y-59602050D01*
X124316311Y-59468615D01*
X124406285Y-59341868D01*
X124465450Y-59225170D01*
X124501770Y-59113631D01*
X124523207Y-59002361D01*
X124537726Y-58886468D01*
X124553259Y-58761311D01*
X124553337Y-58760796D01*
X124577784Y-58621705D01*
X124577981Y-58620802D01*
X124619273Y-58462674D01*
X124619594Y-58461643D01*
X124637756Y-58411571D01*
X124681729Y-58290340D01*
X124687771Y-58283733D01*
X124696716Y-58283332D01*
X124697165Y-58283505D01*
G37*
%TD.AperFunction*%
%TD*%
M02*
