%TF.GenerationSoftware,KiCad,Pcbnew,8.0.8*%
%TF.CreationDate,2025-02-02T11:15:27+01:00*%
%TF.ProjectId,NoTimekeeper,4e6f5469-6d65-46b6-9565-7065722e6b69,rev?*%
%TF.SameCoordinates,Original*%
%TF.FileFunction,Legend,Bot*%
%TF.FilePolarity,Positive*%
%FSLAX46Y46*%
G04 Gerber Fmt 4.6, Leading zero omitted, Abs format (unit mm)*
G04 Created by KiCad (PCBNEW 8.0.8) date 2025-02-02 11:15:27*
%MOMM*%
%LPD*%
G01*
G04 APERTURE LIST*
%ADD10C,0.150000*%
%ADD11C,0.120000*%
G04 APERTURE END LIST*
D10*
X112855180Y-85714199D02*
X113855180Y-85714199D01*
X112855180Y-85285628D02*
X113378990Y-85285628D01*
X113378990Y-85285628D02*
X113474228Y-85333247D01*
X113474228Y-85333247D02*
X113521847Y-85428485D01*
X113521847Y-85428485D02*
X113521847Y-85571342D01*
X113521847Y-85571342D02*
X113474228Y-85666580D01*
X113474228Y-85666580D02*
X113426609Y-85714199D01*
X113521847Y-84952294D02*
X113521847Y-84571342D01*
X113855180Y-84809437D02*
X112998038Y-84809437D01*
X112998038Y-84809437D02*
X112902800Y-84761818D01*
X112902800Y-84761818D02*
X112855180Y-84666580D01*
X112855180Y-84666580D02*
X112855180Y-84571342D01*
X113521847Y-84380865D02*
X113521847Y-83999913D01*
X113855180Y-84238008D02*
X112998038Y-84238008D01*
X112998038Y-84238008D02*
X112902800Y-84190389D01*
X112902800Y-84190389D02*
X112855180Y-84095151D01*
X112855180Y-84095151D02*
X112855180Y-83999913D01*
X113521847Y-83666579D02*
X112521847Y-83666579D01*
X113474228Y-83666579D02*
X113521847Y-83571341D01*
X113521847Y-83571341D02*
X113521847Y-83380865D01*
X113521847Y-83380865D02*
X113474228Y-83285627D01*
X113474228Y-83285627D02*
X113426609Y-83238008D01*
X113426609Y-83238008D02*
X113331371Y-83190389D01*
X113331371Y-83190389D02*
X113045657Y-83190389D01*
X113045657Y-83190389D02*
X112950419Y-83238008D01*
X112950419Y-83238008D02*
X112902800Y-83285627D01*
X112902800Y-83285627D02*
X112855180Y-83380865D01*
X112855180Y-83380865D02*
X112855180Y-83571341D01*
X112855180Y-83571341D02*
X112902800Y-83666579D01*
X112902800Y-82809436D02*
X112855180Y-82714198D01*
X112855180Y-82714198D02*
X112855180Y-82523722D01*
X112855180Y-82523722D02*
X112902800Y-82428484D01*
X112902800Y-82428484D02*
X112998038Y-82380865D01*
X112998038Y-82380865D02*
X113045657Y-82380865D01*
X113045657Y-82380865D02*
X113140895Y-82428484D01*
X113140895Y-82428484D02*
X113188514Y-82523722D01*
X113188514Y-82523722D02*
X113188514Y-82666579D01*
X113188514Y-82666579D02*
X113236133Y-82761817D01*
X113236133Y-82761817D02*
X113331371Y-82809436D01*
X113331371Y-82809436D02*
X113378990Y-82809436D01*
X113378990Y-82809436D02*
X113474228Y-82761817D01*
X113474228Y-82761817D02*
X113521847Y-82666579D01*
X113521847Y-82666579D02*
X113521847Y-82523722D01*
X113521847Y-82523722D02*
X113474228Y-82428484D01*
X112950419Y-81952293D02*
X112902800Y-81904674D01*
X112902800Y-81904674D02*
X112855180Y-81952293D01*
X112855180Y-81952293D02*
X112902800Y-81999912D01*
X112902800Y-81999912D02*
X112950419Y-81952293D01*
X112950419Y-81952293D02*
X112855180Y-81952293D01*
X113474228Y-81952293D02*
X113426609Y-81904674D01*
X113426609Y-81904674D02*
X113378990Y-81952293D01*
X113378990Y-81952293D02*
X113426609Y-81999912D01*
X113426609Y-81999912D02*
X113474228Y-81952293D01*
X113474228Y-81952293D02*
X113378990Y-81952293D01*
X113902800Y-80761818D02*
X112617085Y-81618960D01*
X113902800Y-79714199D02*
X112617085Y-80571341D01*
X113521847Y-78952294D02*
X112712323Y-78952294D01*
X112712323Y-78952294D02*
X112617085Y-78999913D01*
X112617085Y-78999913D02*
X112569466Y-79047532D01*
X112569466Y-79047532D02*
X112521847Y-79142770D01*
X112521847Y-79142770D02*
X112521847Y-79285627D01*
X112521847Y-79285627D02*
X112569466Y-79380865D01*
X112902800Y-78952294D02*
X112855180Y-79047532D01*
X112855180Y-79047532D02*
X112855180Y-79238008D01*
X112855180Y-79238008D02*
X112902800Y-79333246D01*
X112902800Y-79333246D02*
X112950419Y-79380865D01*
X112950419Y-79380865D02*
X113045657Y-79428484D01*
X113045657Y-79428484D02*
X113331371Y-79428484D01*
X113331371Y-79428484D02*
X113426609Y-79380865D01*
X113426609Y-79380865D02*
X113474228Y-79333246D01*
X113474228Y-79333246D02*
X113521847Y-79238008D01*
X113521847Y-79238008D02*
X113521847Y-79047532D01*
X113521847Y-79047532D02*
X113474228Y-78952294D01*
X112855180Y-78476103D02*
X113521847Y-78476103D01*
X113855180Y-78476103D02*
X113807561Y-78523722D01*
X113807561Y-78523722D02*
X113759942Y-78476103D01*
X113759942Y-78476103D02*
X113807561Y-78428484D01*
X113807561Y-78428484D02*
X113855180Y-78476103D01*
X113855180Y-78476103D02*
X113759942Y-78476103D01*
X113521847Y-78142770D02*
X113521847Y-77761818D01*
X113855180Y-77999913D02*
X112998038Y-77999913D01*
X112998038Y-77999913D02*
X112902800Y-77952294D01*
X112902800Y-77952294D02*
X112855180Y-77857056D01*
X112855180Y-77857056D02*
X112855180Y-77761818D01*
X112855180Y-77428484D02*
X113855180Y-77428484D01*
X112855180Y-76999913D02*
X113378990Y-76999913D01*
X113378990Y-76999913D02*
X113474228Y-77047532D01*
X113474228Y-77047532D02*
X113521847Y-77142770D01*
X113521847Y-77142770D02*
X113521847Y-77285627D01*
X113521847Y-77285627D02*
X113474228Y-77380865D01*
X113474228Y-77380865D02*
X113426609Y-77428484D01*
X113521847Y-76095151D02*
X112855180Y-76095151D01*
X113521847Y-76523722D02*
X112998038Y-76523722D01*
X112998038Y-76523722D02*
X112902800Y-76476103D01*
X112902800Y-76476103D02*
X112855180Y-76380865D01*
X112855180Y-76380865D02*
X112855180Y-76238008D01*
X112855180Y-76238008D02*
X112902800Y-76142770D01*
X112902800Y-76142770D02*
X112950419Y-76095151D01*
X112855180Y-75618960D02*
X113855180Y-75618960D01*
X113474228Y-75618960D02*
X113521847Y-75523722D01*
X113521847Y-75523722D02*
X113521847Y-75333246D01*
X113521847Y-75333246D02*
X113474228Y-75238008D01*
X113474228Y-75238008D02*
X113426609Y-75190389D01*
X113426609Y-75190389D02*
X113331371Y-75142770D01*
X113331371Y-75142770D02*
X113045657Y-75142770D01*
X113045657Y-75142770D02*
X112950419Y-75190389D01*
X112950419Y-75190389D02*
X112902800Y-75238008D01*
X112902800Y-75238008D02*
X112855180Y-75333246D01*
X112855180Y-75333246D02*
X112855180Y-75523722D01*
X112855180Y-75523722D02*
X112902800Y-75618960D01*
X112950419Y-74714198D02*
X112902800Y-74666579D01*
X112902800Y-74666579D02*
X112855180Y-74714198D01*
X112855180Y-74714198D02*
X112902800Y-74761817D01*
X112902800Y-74761817D02*
X112950419Y-74714198D01*
X112950419Y-74714198D02*
X112855180Y-74714198D01*
X112902800Y-73809437D02*
X112855180Y-73904675D01*
X112855180Y-73904675D02*
X112855180Y-74095151D01*
X112855180Y-74095151D02*
X112902800Y-74190389D01*
X112902800Y-74190389D02*
X112950419Y-74238008D01*
X112950419Y-74238008D02*
X113045657Y-74285627D01*
X113045657Y-74285627D02*
X113331371Y-74285627D01*
X113331371Y-74285627D02*
X113426609Y-74238008D01*
X113426609Y-74238008D02*
X113474228Y-74190389D01*
X113474228Y-74190389D02*
X113521847Y-74095151D01*
X113521847Y-74095151D02*
X113521847Y-73904675D01*
X113521847Y-73904675D02*
X113474228Y-73809437D01*
X112855180Y-73238008D02*
X112902800Y-73333246D01*
X112902800Y-73333246D02*
X112950419Y-73380865D01*
X112950419Y-73380865D02*
X113045657Y-73428484D01*
X113045657Y-73428484D02*
X113331371Y-73428484D01*
X113331371Y-73428484D02*
X113426609Y-73380865D01*
X113426609Y-73380865D02*
X113474228Y-73333246D01*
X113474228Y-73333246D02*
X113521847Y-73238008D01*
X113521847Y-73238008D02*
X113521847Y-73095151D01*
X113521847Y-73095151D02*
X113474228Y-72999913D01*
X113474228Y-72999913D02*
X113426609Y-72952294D01*
X113426609Y-72952294D02*
X113331371Y-72904675D01*
X113331371Y-72904675D02*
X113045657Y-72904675D01*
X113045657Y-72904675D02*
X112950419Y-72952294D01*
X112950419Y-72952294D02*
X112902800Y-72999913D01*
X112902800Y-72999913D02*
X112855180Y-73095151D01*
X112855180Y-73095151D02*
X112855180Y-73238008D01*
X112855180Y-72476103D02*
X113521847Y-72476103D01*
X113426609Y-72476103D02*
X113474228Y-72428484D01*
X113474228Y-72428484D02*
X113521847Y-72333246D01*
X113521847Y-72333246D02*
X113521847Y-72190389D01*
X113521847Y-72190389D02*
X113474228Y-72095151D01*
X113474228Y-72095151D02*
X113378990Y-72047532D01*
X113378990Y-72047532D02*
X112855180Y-72047532D01*
X113378990Y-72047532D02*
X113474228Y-71999913D01*
X113474228Y-71999913D02*
X113521847Y-71904675D01*
X113521847Y-71904675D02*
X113521847Y-71761818D01*
X113521847Y-71761818D02*
X113474228Y-71666579D01*
X113474228Y-71666579D02*
X113378990Y-71618960D01*
X113378990Y-71618960D02*
X112855180Y-71618960D01*
X113902800Y-70428485D02*
X112617085Y-71285627D01*
X113807561Y-69571342D02*
X113855180Y-69666580D01*
X113855180Y-69666580D02*
X113855180Y-69809437D01*
X113855180Y-69809437D02*
X113807561Y-69952294D01*
X113807561Y-69952294D02*
X113712323Y-70047532D01*
X113712323Y-70047532D02*
X113617085Y-70095151D01*
X113617085Y-70095151D02*
X113426609Y-70142770D01*
X113426609Y-70142770D02*
X113283752Y-70142770D01*
X113283752Y-70142770D02*
X113093276Y-70095151D01*
X113093276Y-70095151D02*
X112998038Y-70047532D01*
X112998038Y-70047532D02*
X112902800Y-69952294D01*
X112902800Y-69952294D02*
X112855180Y-69809437D01*
X112855180Y-69809437D02*
X112855180Y-69714199D01*
X112855180Y-69714199D02*
X112902800Y-69571342D01*
X112902800Y-69571342D02*
X112950419Y-69523723D01*
X112950419Y-69523723D02*
X113283752Y-69523723D01*
X113283752Y-69523723D02*
X113283752Y-69714199D01*
X113521847Y-68666580D02*
X112855180Y-68666580D01*
X113521847Y-69095151D02*
X112998038Y-69095151D01*
X112998038Y-69095151D02*
X112902800Y-69047532D01*
X112902800Y-69047532D02*
X112855180Y-68952294D01*
X112855180Y-68952294D02*
X112855180Y-68809437D01*
X112855180Y-68809437D02*
X112902800Y-68714199D01*
X112902800Y-68714199D02*
X112950419Y-68666580D01*
X112855180Y-68190389D02*
X113521847Y-68190389D01*
X113855180Y-68190389D02*
X113807561Y-68238008D01*
X113807561Y-68238008D02*
X113759942Y-68190389D01*
X113759942Y-68190389D02*
X113807561Y-68142770D01*
X113807561Y-68142770D02*
X113855180Y-68190389D01*
X113855180Y-68190389D02*
X113759942Y-68190389D01*
X112855180Y-67714199D02*
X113521847Y-67714199D01*
X113426609Y-67714199D02*
X113474228Y-67666580D01*
X113474228Y-67666580D02*
X113521847Y-67571342D01*
X113521847Y-67571342D02*
X113521847Y-67428485D01*
X113521847Y-67428485D02*
X113474228Y-67333247D01*
X113474228Y-67333247D02*
X113378990Y-67285628D01*
X113378990Y-67285628D02*
X112855180Y-67285628D01*
X113378990Y-67285628D02*
X113474228Y-67238009D01*
X113474228Y-67238009D02*
X113521847Y-67142771D01*
X113521847Y-67142771D02*
X113521847Y-66999914D01*
X113521847Y-66999914D02*
X113474228Y-66904675D01*
X113474228Y-66904675D02*
X113378990Y-66857056D01*
X113378990Y-66857056D02*
X112855180Y-66857056D01*
X112855180Y-66238009D02*
X112902800Y-66333247D01*
X112902800Y-66333247D02*
X112998038Y-66380866D01*
X112998038Y-66380866D02*
X113855180Y-66380866D01*
X112855180Y-65857056D02*
X113521847Y-65857056D01*
X113855180Y-65857056D02*
X113807561Y-65904675D01*
X113807561Y-65904675D02*
X113759942Y-65857056D01*
X113759942Y-65857056D02*
X113807561Y-65809437D01*
X113807561Y-65809437D02*
X113855180Y-65857056D01*
X113855180Y-65857056D02*
X113759942Y-65857056D01*
X113902800Y-64666581D02*
X112617085Y-65523723D01*
X112855180Y-64333247D02*
X113855180Y-64333247D01*
X113855180Y-64333247D02*
X112855180Y-63761819D01*
X112855180Y-63761819D02*
X113855180Y-63761819D01*
X112855180Y-63142771D02*
X112902800Y-63238009D01*
X112902800Y-63238009D02*
X112950419Y-63285628D01*
X112950419Y-63285628D02*
X113045657Y-63333247D01*
X113045657Y-63333247D02*
X113331371Y-63333247D01*
X113331371Y-63333247D02*
X113426609Y-63285628D01*
X113426609Y-63285628D02*
X113474228Y-63238009D01*
X113474228Y-63238009D02*
X113521847Y-63142771D01*
X113521847Y-63142771D02*
X113521847Y-62999914D01*
X113521847Y-62999914D02*
X113474228Y-62904676D01*
X113474228Y-62904676D02*
X113426609Y-62857057D01*
X113426609Y-62857057D02*
X113331371Y-62809438D01*
X113331371Y-62809438D02*
X113045657Y-62809438D01*
X113045657Y-62809438D02*
X112950419Y-62857057D01*
X112950419Y-62857057D02*
X112902800Y-62904676D01*
X112902800Y-62904676D02*
X112855180Y-62999914D01*
X112855180Y-62999914D02*
X112855180Y-63142771D01*
X113855180Y-62523723D02*
X113855180Y-61952295D01*
X112855180Y-62238009D02*
X113855180Y-62238009D01*
X112855180Y-61618961D02*
X113521847Y-61618961D01*
X113855180Y-61618961D02*
X113807561Y-61666580D01*
X113807561Y-61666580D02*
X113759942Y-61618961D01*
X113759942Y-61618961D02*
X113807561Y-61571342D01*
X113807561Y-61571342D02*
X113855180Y-61618961D01*
X113855180Y-61618961D02*
X113759942Y-61618961D01*
X112855180Y-61142771D02*
X113521847Y-61142771D01*
X113426609Y-61142771D02*
X113474228Y-61095152D01*
X113474228Y-61095152D02*
X113521847Y-60999914D01*
X113521847Y-60999914D02*
X113521847Y-60857057D01*
X113521847Y-60857057D02*
X113474228Y-60761819D01*
X113474228Y-60761819D02*
X113378990Y-60714200D01*
X113378990Y-60714200D02*
X112855180Y-60714200D01*
X113378990Y-60714200D02*
X113474228Y-60666581D01*
X113474228Y-60666581D02*
X113521847Y-60571343D01*
X113521847Y-60571343D02*
X113521847Y-60428486D01*
X113521847Y-60428486D02*
X113474228Y-60333247D01*
X113474228Y-60333247D02*
X113378990Y-60285628D01*
X113378990Y-60285628D02*
X112855180Y-60285628D01*
X112902800Y-59428486D02*
X112855180Y-59523724D01*
X112855180Y-59523724D02*
X112855180Y-59714200D01*
X112855180Y-59714200D02*
X112902800Y-59809438D01*
X112902800Y-59809438D02*
X112998038Y-59857057D01*
X112998038Y-59857057D02*
X113378990Y-59857057D01*
X113378990Y-59857057D02*
X113474228Y-59809438D01*
X113474228Y-59809438D02*
X113521847Y-59714200D01*
X113521847Y-59714200D02*
X113521847Y-59523724D01*
X113521847Y-59523724D02*
X113474228Y-59428486D01*
X113474228Y-59428486D02*
X113378990Y-59380867D01*
X113378990Y-59380867D02*
X113283752Y-59380867D01*
X113283752Y-59380867D02*
X113188514Y-59857057D01*
X112855180Y-58952295D02*
X113855180Y-58952295D01*
X112855180Y-58380867D02*
X113426609Y-58809438D01*
X113855180Y-58380867D02*
X113283752Y-58952295D01*
X112902800Y-57571343D02*
X112855180Y-57666581D01*
X112855180Y-57666581D02*
X112855180Y-57857057D01*
X112855180Y-57857057D02*
X112902800Y-57952295D01*
X112902800Y-57952295D02*
X112998038Y-57999914D01*
X112998038Y-57999914D02*
X113378990Y-57999914D01*
X113378990Y-57999914D02*
X113474228Y-57952295D01*
X113474228Y-57952295D02*
X113521847Y-57857057D01*
X113521847Y-57857057D02*
X113521847Y-57666581D01*
X113521847Y-57666581D02*
X113474228Y-57571343D01*
X113474228Y-57571343D02*
X113378990Y-57523724D01*
X113378990Y-57523724D02*
X113283752Y-57523724D01*
X113283752Y-57523724D02*
X113188514Y-57999914D01*
X112902800Y-56714200D02*
X112855180Y-56809438D01*
X112855180Y-56809438D02*
X112855180Y-56999914D01*
X112855180Y-56999914D02*
X112902800Y-57095152D01*
X112902800Y-57095152D02*
X112998038Y-57142771D01*
X112998038Y-57142771D02*
X113378990Y-57142771D01*
X113378990Y-57142771D02*
X113474228Y-57095152D01*
X113474228Y-57095152D02*
X113521847Y-56999914D01*
X113521847Y-56999914D02*
X113521847Y-56809438D01*
X113521847Y-56809438D02*
X113474228Y-56714200D01*
X113474228Y-56714200D02*
X113378990Y-56666581D01*
X113378990Y-56666581D02*
X113283752Y-56666581D01*
X113283752Y-56666581D02*
X113188514Y-57142771D01*
X113521847Y-56238009D02*
X112521847Y-56238009D01*
X113474228Y-56238009D02*
X113521847Y-56142771D01*
X113521847Y-56142771D02*
X113521847Y-55952295D01*
X113521847Y-55952295D02*
X113474228Y-55857057D01*
X113474228Y-55857057D02*
X113426609Y-55809438D01*
X113426609Y-55809438D02*
X113331371Y-55761819D01*
X113331371Y-55761819D02*
X113045657Y-55761819D01*
X113045657Y-55761819D02*
X112950419Y-55809438D01*
X112950419Y-55809438D02*
X112902800Y-55857057D01*
X112902800Y-55857057D02*
X112855180Y-55952295D01*
X112855180Y-55952295D02*
X112855180Y-56142771D01*
X112855180Y-56142771D02*
X112902800Y-56238009D01*
X112902800Y-54952295D02*
X112855180Y-55047533D01*
X112855180Y-55047533D02*
X112855180Y-55238009D01*
X112855180Y-55238009D02*
X112902800Y-55333247D01*
X112902800Y-55333247D02*
X112998038Y-55380866D01*
X112998038Y-55380866D02*
X113378990Y-55380866D01*
X113378990Y-55380866D02*
X113474228Y-55333247D01*
X113474228Y-55333247D02*
X113521847Y-55238009D01*
X113521847Y-55238009D02*
X113521847Y-55047533D01*
X113521847Y-55047533D02*
X113474228Y-54952295D01*
X113474228Y-54952295D02*
X113378990Y-54904676D01*
X113378990Y-54904676D02*
X113283752Y-54904676D01*
X113283752Y-54904676D02*
X113188514Y-55380866D01*
X112855180Y-54476104D02*
X113521847Y-54476104D01*
X113331371Y-54476104D02*
X113426609Y-54428485D01*
X113426609Y-54428485D02*
X113474228Y-54380866D01*
X113474228Y-54380866D02*
X113521847Y-54285628D01*
X113521847Y-54285628D02*
X113521847Y-54190390D01*
X117971666Y-66564580D02*
X118019285Y-66612200D01*
X118019285Y-66612200D02*
X118162142Y-66659819D01*
X118162142Y-66659819D02*
X118257380Y-66659819D01*
X118257380Y-66659819D02*
X118400237Y-66612200D01*
X118400237Y-66612200D02*
X118495475Y-66516961D01*
X118495475Y-66516961D02*
X118543094Y-66421723D01*
X118543094Y-66421723D02*
X118590713Y-66231247D01*
X118590713Y-66231247D02*
X118590713Y-66088390D01*
X118590713Y-66088390D02*
X118543094Y-65897914D01*
X118543094Y-65897914D02*
X118495475Y-65802676D01*
X118495475Y-65802676D02*
X118400237Y-65707438D01*
X118400237Y-65707438D02*
X118257380Y-65659819D01*
X118257380Y-65659819D02*
X118162142Y-65659819D01*
X118162142Y-65659819D02*
X118019285Y-65707438D01*
X118019285Y-65707438D02*
X117971666Y-65755057D01*
X117019285Y-66659819D02*
X117590713Y-66659819D01*
X117304999Y-66659819D02*
X117304999Y-65659819D01*
X117304999Y-65659819D02*
X117400237Y-65802676D01*
X117400237Y-65802676D02*
X117495475Y-65897914D01*
X117495475Y-65897914D02*
X117590713Y-65945533D01*
X118566904Y-68707819D02*
X118566904Y-69517342D01*
X118566904Y-69517342D02*
X118519285Y-69612580D01*
X118519285Y-69612580D02*
X118471666Y-69660200D01*
X118471666Y-69660200D02*
X118376428Y-69707819D01*
X118376428Y-69707819D02*
X118185952Y-69707819D01*
X118185952Y-69707819D02*
X118090714Y-69660200D01*
X118090714Y-69660200D02*
X118043095Y-69612580D01*
X118043095Y-69612580D02*
X117995476Y-69517342D01*
X117995476Y-69517342D02*
X117995476Y-68707819D01*
X117566904Y-68803057D02*
X117519285Y-68755438D01*
X117519285Y-68755438D02*
X117424047Y-68707819D01*
X117424047Y-68707819D02*
X117185952Y-68707819D01*
X117185952Y-68707819D02*
X117090714Y-68755438D01*
X117090714Y-68755438D02*
X117043095Y-68803057D01*
X117043095Y-68803057D02*
X116995476Y-68898295D01*
X116995476Y-68898295D02*
X116995476Y-68993533D01*
X116995476Y-68993533D02*
X117043095Y-69136390D01*
X117043095Y-69136390D02*
X117614523Y-69707819D01*
X117614523Y-69707819D02*
X116995476Y-69707819D01*
D11*
%TO.C,C1*%
X118053752Y-67066224D02*
X117531248Y-67066224D01*
X118053752Y-68536224D02*
X117531248Y-68536224D01*
D10*
%TO.C,U2*%
X116180000Y-69978724D02*
X119430000Y-69978724D01*
X116180000Y-70153724D02*
X116180000Y-69978724D01*
X116180000Y-73228724D02*
X116180000Y-73053724D01*
X116180000Y-73228724D02*
X119430000Y-73228724D01*
X119430000Y-70153724D02*
X119430000Y-69978724D01*
X119430000Y-73228724D02*
X119430000Y-73053724D01*
D11*
X119905000Y-70153724D02*
X119665000Y-69823724D01*
X120145000Y-69823724D01*
X119905000Y-70153724D01*
G36*
X119905000Y-70153724D02*
G01*
X119665000Y-69823724D01*
X120145000Y-69823724D01*
X119905000Y-70153724D01*
G37*
%TD*%
M02*
