%TF.GenerationSoftware,KiCad,Pcbnew,8.0.8*%
%TF.CreationDate,2025-02-02T11:15:27+01:00*%
%TF.ProjectId,NoTimekeeper,4e6f5469-6d65-46b6-9565-7065722e6b69,rev?*%
%TF.SameCoordinates,Original*%
%TF.FileFunction,Copper,L1,Top*%
%TF.FilePolarity,Positive*%
%FSLAX46Y46*%
G04 Gerber Fmt 4.6, Leading zero omitted, Abs format (unit mm)*
G04 Created by KiCad (PCBNEW 8.0.8) date 2025-02-02 11:15:27*
%MOMM*%
%LPD*%
G01*
G04 APERTURE LIST*
G04 Aperture macros list*
%AMRoundRect*
0 Rectangle with rounded corners*
0 $1 Rounding radius*
0 $2 $3 $4 $5 $6 $7 $8 $9 X,Y pos of 4 corners*
0 Add a 4 corners polygon primitive as box body*
4,1,4,$2,$3,$4,$5,$6,$7,$8,$9,$2,$3,0*
0 Add four circle primitives for the rounded corners*
1,1,$1+$1,$2,$3*
1,1,$1+$1,$4,$5*
1,1,$1+$1,$6,$7*
1,1,$1+$1,$8,$9*
0 Add four rect primitives between the rounded corners*
20,1,$1+$1,$2,$3,$4,$5,0*
20,1,$1+$1,$4,$5,$6,$7,0*
20,1,$1+$1,$6,$7,$8,$9,0*
20,1,$1+$1,$8,$9,$2,$3,0*%
G04 Aperture macros list end*
%TA.AperFunction,ComponentPad*%
%ADD10C,1.600000*%
%TD*%
%TA.AperFunction,ComponentPad*%
%ADD11O,1.600000X1.600000*%
%TD*%
%TA.AperFunction,SMDPad,CuDef*%
%ADD12RoundRect,0.150000X-0.875000X-0.150000X0.875000X-0.150000X0.875000X0.150000X-0.875000X0.150000X0*%
%TD*%
%TA.AperFunction,ViaPad*%
%ADD13C,0.600000*%
%TD*%
%TA.AperFunction,Conductor*%
%ADD14C,0.600000*%
%TD*%
%TA.AperFunction,Conductor*%
%ADD15C,0.300000*%
%TD*%
G04 APERTURE END LIST*
D10*
%TO.P,U4,1,FT*%
%TO.N,unconnected-(U4-FT-Pad1)*%
X110185000Y-53505000D03*
D11*
%TO.P,U4,2,A12*%
%TO.N,/A12*%
X110185000Y-56045000D03*
%TO.P,U4,3,A7*%
%TO.N,/A7*%
X110185000Y-58585000D03*
%TO.P,U4,4,A6*%
%TO.N,/A6*%
X110185000Y-61125000D03*
%TO.P,U4,5,A5*%
%TO.N,/A5*%
X110185000Y-63665000D03*
%TO.P,U4,6,A4*%
%TO.N,/A4*%
X110185000Y-66205000D03*
%TO.P,U4,7,A3*%
%TO.N,/A3*%
X110185000Y-68745000D03*
%TO.P,U4,8,A2*%
%TO.N,/A2*%
X110185000Y-71285000D03*
%TO.P,U4,9,A1*%
%TO.N,/A1*%
X110185000Y-73825000D03*
%TO.P,U4,10,A0*%
%TO.N,/A0*%
X110185000Y-76365000D03*
%TO.P,U4,11,DQ0*%
%TO.N,/D0*%
X110185000Y-78905000D03*
%TO.P,U4,12,DQ1*%
%TO.N,/D1*%
X110185000Y-81445000D03*
%TO.P,U4,13,DQ2*%
%TO.N,/D2*%
X110185000Y-83985000D03*
%TO.P,U4,14,VSS*%
%TO.N,GND*%
X110185000Y-86525000D03*
%TO.P,U4,15,DQ3*%
%TO.N,/D3*%
X125425000Y-86525000D03*
%TO.P,U4,16,DQ4*%
%TO.N,/D4*%
X125425000Y-83985000D03*
%TO.P,U4,17,DQ5*%
%TO.N,/D5*%
X125425000Y-81445000D03*
%TO.P,U4,18,DQ6*%
%TO.N,/D6*%
X125425000Y-78905000D03*
%TO.P,U4,19,DQ7*%
%TO.N,/D7*%
X125425000Y-76365000D03*
%TO.P,U4,20,~{E1}*%
%TO.N,/~{E1}*%
X125425000Y-73825000D03*
%TO.P,U4,21,A10*%
%TO.N,/A10*%
X125425000Y-71285000D03*
%TO.P,U4,22,~{G}*%
%TO.N,/~{OE}*%
X125425000Y-68745000D03*
%TO.P,U4,23,A11*%
%TO.N,/A11*%
X125425000Y-66205000D03*
%TO.P,U4,24,A9*%
%TO.N,/A9*%
X125425000Y-63665000D03*
%TO.P,U4,25,A8*%
%TO.N,/A8*%
X125425000Y-61125000D03*
%TO.P,U4,26,E2*%
%TO.N,/E2*%
X125425000Y-58585000D03*
%TO.P,U4,27,~{W}*%
%TO.N,/~{WE}*%
X125425000Y-56045000D03*
%TO.P,U4,28,VCC*%
%TO.N,+5V*%
X125425000Y-53505000D03*
%TD*%
D12*
%TO.P,U1,1*%
%TO.N,N/C*%
X113155000Y-61768724D03*
%TO.P,U1,2,A12*%
%TO.N,/A12*%
X113155000Y-63038724D03*
%TO.P,U1,3,A7*%
%TO.N,/A7*%
X113155000Y-64308724D03*
%TO.P,U1,4,A6*%
%TO.N,/A6*%
X113155000Y-65578724D03*
%TO.P,U1,5,A5*%
%TO.N,/A5*%
X113155000Y-66848724D03*
%TO.P,U1,6,A4*%
%TO.N,/A4*%
X113155000Y-68118724D03*
%TO.P,U1,7,A3*%
%TO.N,/A3*%
X113155000Y-69388724D03*
%TO.P,U1,8,A2*%
%TO.N,/A2*%
X113155000Y-70658724D03*
%TO.P,U1,9,A1*%
%TO.N,/A1*%
X113155000Y-71928724D03*
%TO.P,U1,10,A0*%
%TO.N,/A0*%
X113155000Y-73198724D03*
%TO.P,U1,11,DQ0*%
%TO.N,/D0*%
X113155000Y-74468724D03*
%TO.P,U1,12,DQ1*%
%TO.N,/D1*%
X113155000Y-75738724D03*
%TO.P,U1,13,DQ2*%
%TO.N,/D2*%
X113155000Y-77008724D03*
%TO.P,U1,14,VSS*%
%TO.N,GND*%
X113155000Y-78278724D03*
%TO.P,U1,15,DQ3*%
%TO.N,/D3*%
X122455000Y-78278724D03*
%TO.P,U1,16,DQ4*%
%TO.N,/D4*%
X122455000Y-77008724D03*
%TO.P,U1,17,DQ5*%
%TO.N,/D5*%
X122455000Y-75738724D03*
%TO.P,U1,18,DQ6*%
%TO.N,/D6*%
X122455000Y-74468724D03*
%TO.P,U1,19,DQ7*%
%TO.N,/D7*%
X122455000Y-73198724D03*
%TO.P,U1,20,~{CE}*%
%TO.N,/~{CE}*%
X122455000Y-71928724D03*
%TO.P,U1,21,A10*%
%TO.N,/A10*%
X122455000Y-70658724D03*
%TO.P,U1,22,~{OE}*%
%TO.N,/~{OE}*%
X122455000Y-69388724D03*
%TO.P,U1,23,A11*%
%TO.N,/A11*%
X122455000Y-68118724D03*
%TO.P,U1,24,A9*%
%TO.N,/A9*%
X122455000Y-66848724D03*
%TO.P,U1,25,A8*%
%TO.N,/A8*%
X122455000Y-65578724D03*
%TO.P,U1,26*%
%TO.N,N/C*%
X122455000Y-64308724D03*
%TO.P,U1,27,~{WE}*%
%TO.N,/~{WE}*%
X122455000Y-63038724D03*
%TO.P,U1,28,VDD*%
%TO.N,+5V*%
X122455000Y-61768724D03*
%TD*%
D13*
%TO.N,GND*%
X120345000Y-85255000D03*
X120345000Y-54775000D03*
X118742500Y-66213724D03*
X115265000Y-85255000D03*
X118598750Y-72578724D03*
X118742500Y-63673724D03*
X115265000Y-54775000D03*
%TO.N,/D4*%
X120027500Y-77008724D03*
%TO.N,/D5*%
X120980000Y-75738724D03*
%TO.N,/A5*%
X114630000Y-66848724D03*
%TO.N,/D2*%
X115582500Y-77008724D03*
%TO.N,/~{CE}*%
X120980000Y-71928724D03*
%TO.N,/A6*%
X114630000Y-65578724D03*
%TO.N,/D0*%
X114630000Y-74468724D03*
%TO.N,/D7*%
X120980000Y-73198724D03*
%TO.N,/A8*%
X120980000Y-65578724D03*
%TO.N,/A0*%
X114630000Y-73198724D03*
%TO.N,/D1*%
X114630000Y-75738724D03*
%TO.N,/D6*%
X120980000Y-74468724D03*
%TO.N,/A7*%
X114630000Y-64308724D03*
%TO.N,/A9*%
X120980000Y-66848724D03*
%TO.N,/~{WE}*%
X120345000Y-63038724D03*
%TO.N,/A12*%
X115582500Y-63038724D03*
%TD*%
D14*
%TO.N,+5V*%
X125425000Y-53505000D02*
X124051243Y-54878757D01*
X122455000Y-58732429D02*
X122455000Y-61768724D01*
X122455000Y-58732429D02*
G75*
G02*
X124051232Y-54878746I5449900J29D01*
G01*
D15*
%TO.N,/D4*%
X122455000Y-77008724D02*
X120027500Y-77008724D01*
%TO.N,/A4*%
X113155000Y-68118724D02*
X112305831Y-68118724D01*
X111952277Y-67972277D02*
X110185000Y-66205000D01*
X112305831Y-68118724D02*
G75*
G02*
X111952257Y-67972297I-31J500024D01*
G01*
%TO.N,/A3*%
X113155000Y-69388724D02*
X110828724Y-69388724D01*
X110828724Y-69388724D02*
X110185000Y-68745000D01*
%TO.N,/D5*%
X122455000Y-75738724D02*
X120980000Y-75738724D01*
%TO.N,/A5*%
X113155000Y-66848724D02*
X114630000Y-66848724D01*
%TO.N,/D2*%
X113155000Y-77008724D02*
X115582500Y-77008724D01*
%TO.N,/A10*%
X124798724Y-70658724D02*
X125425000Y-71285000D01*
X122455000Y-70658724D02*
X124798724Y-70658724D01*
%TO.N,/~{CE}*%
X122455000Y-71928724D02*
X120980000Y-71928724D01*
%TO.N,/A6*%
X113155000Y-65578724D02*
X114630000Y-65578724D01*
%TO.N,/D0*%
X113155000Y-74468724D02*
X114630000Y-74468724D01*
%TO.N,/D7*%
X122455000Y-73198724D02*
X120980000Y-73198724D01*
%TO.N,/A8*%
X122455000Y-65578724D02*
X120980000Y-65578724D01*
%TO.N,/A0*%
X113155000Y-73198724D02*
X114630000Y-73198724D01*
%TO.N,/D1*%
X113155000Y-75738724D02*
X114630000Y-75738724D01*
%TO.N,/D6*%
X122455000Y-74468724D02*
X120980000Y-74468724D01*
%TO.N,/~{OE}*%
X124781276Y-69388724D02*
X125425000Y-68745000D01*
X122455000Y-69388724D02*
X124781276Y-69388724D01*
%TO.N,/A7*%
X113155000Y-64308724D02*
X114630000Y-64308724D01*
%TO.N,/A9*%
X122455000Y-66848724D02*
X120980000Y-66848724D01*
%TO.N,/D3*%
X122455000Y-78278724D02*
X122455000Y-81264479D01*
X124074643Y-85174643D02*
X125425000Y-86525000D01*
X122455000Y-81264479D02*
G75*
G03*
X124074634Y-85174652I5529800J-21D01*
G01*
%TO.N,/~{WE}*%
X122455000Y-63038724D02*
X120345000Y-63038724D01*
%TO.N,/A11*%
X122455000Y-68118724D02*
X123304169Y-68118724D01*
X123657723Y-67972277D02*
X125425000Y-66205000D01*
X123304169Y-68118724D02*
G75*
G03*
X123657743Y-67972297I31J500024D01*
G01*
%TO.N,/A1*%
X111934829Y-72075171D02*
X110185000Y-73825000D01*
X113155000Y-71928724D02*
X112288383Y-71928724D01*
X111934829Y-72075171D02*
G75*
G02*
X112288383Y-71928705I353571J-353529D01*
G01*
%TO.N,/A12*%
X113155000Y-63038724D02*
X115582500Y-63038724D01*
%TO.N,/A2*%
X110811276Y-70658724D02*
X110185000Y-71285000D01*
X113155000Y-70658724D02*
X110811276Y-70658724D01*
%TD*%
%TA.AperFunction,Conductor*%
%TO.N,GND*%
G36*
X116187301Y-52437685D02*
G01*
X116233056Y-52490489D01*
X116238753Y-52505449D01*
X116294465Y-52686061D01*
X116300460Y-52705494D01*
X116405265Y-52923127D01*
X116405266Y-52923128D01*
X116405268Y-52923131D01*
X116405270Y-52923135D01*
X116500895Y-53063390D01*
X116541350Y-53122727D01*
X116705653Y-53299805D01*
X116705657Y-53299808D01*
X116705658Y-53299809D01*
X116894523Y-53450424D01*
X117103727Y-53571208D01*
X117328596Y-53659463D01*
X117564108Y-53713217D01*
X117604256Y-53716225D01*
X117804995Y-53731269D01*
X117805000Y-53731269D01*
X117805005Y-53731269D01*
X117977065Y-53718374D01*
X118045892Y-53713217D01*
X118281404Y-53659463D01*
X118506273Y-53571208D01*
X118715477Y-53450424D01*
X118904342Y-53299809D01*
X119068650Y-53122727D01*
X119204730Y-52923135D01*
X119309542Y-52705489D01*
X119371247Y-52505449D01*
X119409818Y-52447191D01*
X119473763Y-52419033D01*
X119489738Y-52418000D01*
X124515340Y-52418000D01*
X124582379Y-52437685D01*
X124628134Y-52490489D01*
X124638078Y-52559647D01*
X124609053Y-52623203D01*
X124598878Y-52633637D01*
X124534020Y-52692761D01*
X124399943Y-52870308D01*
X124399938Y-52870316D01*
X124306506Y-53057951D01*
X124303580Y-53063390D01*
X124301216Y-53068320D01*
X124300243Y-53070834D01*
X124297604Y-53078721D01*
X124240275Y-53227248D01*
X124237025Y-53235967D01*
X124236869Y-53236398D01*
X124233609Y-53245818D01*
X124190826Y-53374508D01*
X124190826Y-53374512D01*
X124184288Y-53394178D01*
X124182237Y-53400523D01*
X124182116Y-53400908D01*
X124182104Y-53400948D01*
X124179893Y-53408216D01*
X124142261Y-53536389D01*
X124141181Y-53540140D01*
X124111258Y-53645873D01*
X124110226Y-53649327D01*
X124085745Y-53727124D01*
X124082751Y-53735561D01*
X124060670Y-53791317D01*
X124055370Y-53802919D01*
X124029368Y-53852865D01*
X124022467Y-53864519D01*
X123981627Y-53925611D01*
X123974625Y-53935078D01*
X123906728Y-54018311D01*
X123900768Y-54025097D01*
X123794598Y-54137446D01*
X123777257Y-54157024D01*
X123773797Y-54161768D01*
X123773544Y-54161583D01*
X123758861Y-54180480D01*
X123593470Y-54345871D01*
X123593423Y-54345896D01*
X123400599Y-54538721D01*
X123400575Y-54538747D01*
X123112879Y-54870766D01*
X122849611Y-55222454D01*
X122849608Y-55222459D01*
X122612077Y-55592066D01*
X122401545Y-55977630D01*
X122401535Y-55977649D01*
X122219045Y-56377250D01*
X122065511Y-56788893D01*
X121941741Y-57210420D01*
X121941738Y-57210431D01*
X121848359Y-57639701D01*
X121785838Y-58074563D01*
X121754499Y-58512766D01*
X121754499Y-58512770D01*
X121754500Y-58663436D01*
X121754500Y-60944224D01*
X121734815Y-61011263D01*
X121682011Y-61057018D01*
X121630500Y-61068224D01*
X121536898Y-61068224D01*
X121497853Y-61072912D01*
X121448438Y-61078846D01*
X121307656Y-61134363D01*
X121187077Y-61225801D01*
X121095639Y-61346380D01*
X121040122Y-61487162D01*
X121034188Y-61536577D01*
X121029500Y-61575622D01*
X121029500Y-61961826D01*
X121035126Y-62008678D01*
X121040122Y-62050285D01*
X121095639Y-62191067D01*
X121169088Y-62287923D01*
X121193911Y-62353234D01*
X121179483Y-62421598D01*
X121130386Y-62471309D01*
X121094528Y-62484455D01*
X121089639Y-62485429D01*
X121089636Y-62485430D01*
X121089632Y-62485430D01*
X121087626Y-62485831D01*
X121063382Y-62488224D01*
X120979488Y-62488224D01*
X120958352Y-62486409D01*
X120947599Y-62484549D01*
X120939235Y-62483102D01*
X120939231Y-62483101D01*
X120939228Y-62483101D01*
X120939226Y-62483100D01*
X120939218Y-62483100D01*
X120895962Y-62482485D01*
X120895877Y-62482485D01*
X120894241Y-62482461D01*
X120893013Y-62482444D01*
X120888097Y-62482276D01*
X120878203Y-62481741D01*
X120878186Y-62481739D01*
X120857816Y-62480638D01*
X120850600Y-62480036D01*
X120840796Y-62478929D01*
X120812395Y-62472269D01*
X120809219Y-62471116D01*
X120803464Y-62468863D01*
X120781744Y-62459729D01*
X120779333Y-62458685D01*
X120762166Y-62451033D01*
X120744097Y-62442979D01*
X120743952Y-62442908D01*
X120739846Y-62441085D01*
X120739671Y-62441007D01*
X120736905Y-62439774D01*
X120736761Y-62439715D01*
X120715066Y-62430082D01*
X120687482Y-62417834D01*
X120681820Y-62415371D01*
X120681803Y-62415363D01*
X120681753Y-62415342D01*
X120629475Y-62393076D01*
X120629469Y-62393074D01*
X120629465Y-62393072D01*
X120620221Y-62389594D01*
X120610843Y-62386065D01*
X120596895Y-62379810D01*
X120595225Y-62378934D01*
X120430056Y-62338224D01*
X120259944Y-62338224D01*
X120094773Y-62378934D01*
X119944150Y-62457987D01*
X119816816Y-62570796D01*
X119720182Y-62710792D01*
X119659860Y-62869849D01*
X119659859Y-62869854D01*
X119639355Y-63038724D01*
X119659859Y-63207593D01*
X119659860Y-63207598D01*
X119720182Y-63366655D01*
X119773199Y-63443462D01*
X119816817Y-63506653D01*
X119901467Y-63581646D01*
X119944150Y-63619460D01*
X120087575Y-63694735D01*
X120094775Y-63698514D01*
X120259944Y-63739224D01*
X120430056Y-63739224D01*
X120595221Y-63698515D01*
X120595221Y-63698514D01*
X120595225Y-63698514D01*
X120602429Y-63694732D01*
X120624998Y-63686124D01*
X120624921Y-63685894D01*
X120629538Y-63684341D01*
X120629546Y-63684340D01*
X120681747Y-63662106D01*
X120684779Y-63660800D01*
X120684942Y-63660729D01*
X120687573Y-63659572D01*
X120739174Y-63636658D01*
X120739279Y-63636613D01*
X120739931Y-63636323D01*
X120740157Y-63636222D01*
X120782395Y-63617466D01*
X120784573Y-63616524D01*
X120803484Y-63608572D01*
X120809197Y-63606337D01*
X120812424Y-63605165D01*
X120840786Y-63598517D01*
X120850636Y-63597405D01*
X120857810Y-63596807D01*
X120888084Y-63595169D01*
X120893009Y-63595001D01*
X120939218Y-63594346D01*
X120968165Y-63592900D01*
X120968329Y-63592859D01*
X120968983Y-63592779D01*
X120974082Y-63592028D01*
X120974100Y-63592155D01*
X120998133Y-63589224D01*
X121070242Y-63589224D01*
X121101058Y-63593114D01*
X121101974Y-63593350D01*
X121162014Y-63629078D01*
X121193208Y-63691598D01*
X121185650Y-63761057D01*
X121169954Y-63788382D01*
X121095639Y-63886380D01*
X121040122Y-64027162D01*
X121034188Y-64076577D01*
X121029500Y-64115622D01*
X121029500Y-64501826D01*
X121038437Y-64576249D01*
X121040123Y-64590289D01*
X121086832Y-64708734D01*
X121093114Y-64778321D01*
X121060777Y-64840257D01*
X121000089Y-64874878D01*
X120971478Y-64878224D01*
X120894944Y-64878224D01*
X120729773Y-64918934D01*
X120579150Y-64997987D01*
X120451816Y-65110796D01*
X120355182Y-65250792D01*
X120294860Y-65409849D01*
X120294859Y-65409854D01*
X120274355Y-65578724D01*
X120294859Y-65747593D01*
X120294860Y-65747598D01*
X120355182Y-65906655D01*
X120451818Y-66046654D01*
X120535634Y-66120909D01*
X120572761Y-66180098D01*
X120571993Y-66249964D01*
X120535634Y-66306539D01*
X120451818Y-66380793D01*
X120355182Y-66520792D01*
X120294860Y-66679849D01*
X120294859Y-66679854D01*
X120274355Y-66848724D01*
X120294859Y-67017593D01*
X120294860Y-67017598D01*
X120355182Y-67176655D01*
X120417475Y-67266901D01*
X120451817Y-67316653D01*
X120543231Y-67397638D01*
X120579150Y-67429460D01*
X120727818Y-67507487D01*
X120729775Y-67508514D01*
X120894944Y-67549224D01*
X120971478Y-67549224D01*
X121038517Y-67568909D01*
X121084272Y-67621713D01*
X121094216Y-67690871D01*
X121086832Y-67718714D01*
X121040123Y-67837158D01*
X121040123Y-67837160D01*
X121029500Y-67925622D01*
X121029500Y-68311826D01*
X121031950Y-68332224D01*
X121040122Y-68400285D01*
X121040122Y-68400287D01*
X121040123Y-68400288D01*
X121047905Y-68420022D01*
X121095639Y-68541067D01*
X121187079Y-68661648D01*
X121191474Y-68666043D01*
X121224959Y-68727366D01*
X121219975Y-68797058D01*
X121191474Y-68841405D01*
X121187079Y-68845799D01*
X121095639Y-68966380D01*
X121040122Y-69107162D01*
X121034188Y-69156577D01*
X121029500Y-69195622D01*
X121029500Y-69581826D01*
X121035126Y-69628678D01*
X121040122Y-69670285D01*
X121095639Y-69811067D01*
X121187079Y-69931648D01*
X121191474Y-69936043D01*
X121224959Y-69997366D01*
X121219975Y-70067058D01*
X121191474Y-70111405D01*
X121187079Y-70115799D01*
X121095639Y-70236380D01*
X121040122Y-70377162D01*
X121034188Y-70426577D01*
X121029500Y-70465622D01*
X121029500Y-70851826D01*
X121038605Y-70927650D01*
X121040123Y-70940289D01*
X121086832Y-71058734D01*
X121093114Y-71128321D01*
X121060777Y-71190257D01*
X121000089Y-71224878D01*
X120971478Y-71228224D01*
X120894944Y-71228224D01*
X120729773Y-71268934D01*
X120579150Y-71347987D01*
X120451816Y-71460796D01*
X120355182Y-71600792D01*
X120294860Y-71759849D01*
X120294859Y-71759854D01*
X120274355Y-71928724D01*
X120294859Y-72097593D01*
X120294860Y-72097598D01*
X120355182Y-72256655D01*
X120451818Y-72396654D01*
X120535634Y-72470909D01*
X120572761Y-72530098D01*
X120571993Y-72599964D01*
X120535634Y-72656539D01*
X120451818Y-72730793D01*
X120355182Y-72870792D01*
X120294860Y-73029849D01*
X120294859Y-73029854D01*
X120274355Y-73198724D01*
X120294859Y-73367593D01*
X120294860Y-73367598D01*
X120355182Y-73526655D01*
X120451818Y-73666654D01*
X120535634Y-73740909D01*
X120572761Y-73800098D01*
X120571993Y-73869964D01*
X120535634Y-73926539D01*
X120451818Y-74000793D01*
X120355182Y-74140792D01*
X120294860Y-74299849D01*
X120294859Y-74299854D01*
X120274355Y-74468724D01*
X120294859Y-74637593D01*
X120294860Y-74637598D01*
X120355182Y-74796655D01*
X120451818Y-74936654D01*
X120535634Y-75010909D01*
X120572761Y-75070098D01*
X120571993Y-75139964D01*
X120535634Y-75196539D01*
X120451818Y-75270793D01*
X120355182Y-75410792D01*
X120294860Y-75569849D01*
X120294859Y-75569854D01*
X120274355Y-75738724D01*
X120294859Y-75907593D01*
X120294860Y-75907598D01*
X120355182Y-76066655D01*
X120420535Y-76161334D01*
X120442418Y-76227688D01*
X120424953Y-76295340D01*
X120373685Y-76342810D01*
X120304892Y-76355027D01*
X120285121Y-76350268D01*
X120285008Y-76350729D01*
X120112556Y-76308224D01*
X119942444Y-76308224D01*
X119777273Y-76348934D01*
X119626650Y-76427987D01*
X119499316Y-76540796D01*
X119402682Y-76680792D01*
X119342360Y-76839849D01*
X119342359Y-76839854D01*
X119321855Y-77008724D01*
X119342359Y-77177593D01*
X119342360Y-77177598D01*
X119402682Y-77336655D01*
X119464975Y-77426901D01*
X119499317Y-77476653D01*
X119554373Y-77525428D01*
X119626650Y-77589460D01*
X119770075Y-77664735D01*
X119777275Y-77668514D01*
X119942444Y-77709224D01*
X120112556Y-77709224D01*
X120277721Y-77668515D01*
X120277721Y-77668514D01*
X120277725Y-77668514D01*
X120284929Y-77664732D01*
X120307498Y-77656124D01*
X120307421Y-77655894D01*
X120312038Y-77654341D01*
X120312046Y-77654340D01*
X120364247Y-77632106D01*
X120367279Y-77630800D01*
X120367442Y-77630729D01*
X120367629Y-77630647D01*
X120368089Y-77630444D01*
X120370073Y-77629572D01*
X120421674Y-77606658D01*
X120421779Y-77606613D01*
X120422431Y-77606323D01*
X120422657Y-77606222D01*
X120464895Y-77587466D01*
X120467073Y-77586524D01*
X120485984Y-77578572D01*
X120491697Y-77576337D01*
X120494924Y-77575165D01*
X120523286Y-77568517D01*
X120533136Y-77567405D01*
X120540310Y-77566807D01*
X120570584Y-77565169D01*
X120575509Y-77565001D01*
X120621718Y-77564346D01*
X120650665Y-77562900D01*
X120650829Y-77562859D01*
X120651483Y-77562779D01*
X120656582Y-77562028D01*
X120656600Y-77562155D01*
X120680633Y-77559224D01*
X121070242Y-77559224D01*
X121101058Y-77563114D01*
X121101974Y-77563350D01*
X121162014Y-77599078D01*
X121193208Y-77661598D01*
X121185650Y-77731057D01*
X121169954Y-77758382D01*
X121095639Y-77856380D01*
X121040122Y-77997162D01*
X121034188Y-78046577D01*
X121029500Y-78085622D01*
X121029500Y-78471826D01*
X121035126Y-78518678D01*
X121040122Y-78560285D01*
X121095639Y-78701067D01*
X121187077Y-78821646D01*
X121307656Y-78913084D01*
X121307657Y-78913084D01*
X121307658Y-78913085D01*
X121448436Y-78968601D01*
X121536898Y-78979224D01*
X121780500Y-78979224D01*
X121847539Y-78998909D01*
X121893294Y-79051713D01*
X121904500Y-79103224D01*
X121904500Y-81344617D01*
X121904512Y-81344808D01*
X121904512Y-81481636D01*
X121935494Y-81914845D01*
X121935494Y-81914849D01*
X121997302Y-82344747D01*
X122089619Y-82769127D01*
X122089622Y-82769137D01*
X122211976Y-83185841D01*
X122211980Y-83185853D01*
X122211982Y-83185859D01*
X122347597Y-83549461D01*
X122363764Y-83592806D01*
X122544173Y-83987850D01*
X122544183Y-83987869D01*
X122752315Y-84369037D01*
X122752319Y-84369044D01*
X122752325Y-84369054D01*
X122987133Y-84734425D01*
X122987137Y-84734430D01*
X122987140Y-84734435D01*
X123247407Y-85082113D01*
X123340536Y-85189589D01*
X123531826Y-85410350D01*
X123629802Y-85508326D01*
X123629821Y-85508347D01*
X123872272Y-85750797D01*
X123888277Y-85770469D01*
X123894952Y-85780646D01*
X123994764Y-85890490D01*
X124004105Y-85902100D01*
X124052894Y-85970832D01*
X124062374Y-85986531D01*
X124085252Y-86031658D01*
X124092558Y-86049331D01*
X124105977Y-86090537D01*
X124109833Y-86105476D01*
X124121738Y-86167270D01*
X124123015Y-86175314D01*
X124135353Y-86273796D01*
X124135361Y-86273939D01*
X124135371Y-86273938D01*
X124150848Y-86398640D01*
X124152254Y-86408897D01*
X124152341Y-86409472D01*
X124153957Y-86419390D01*
X124178409Y-86558504D01*
X124181583Y-86574633D01*
X124181795Y-86575605D01*
X124185633Y-86591630D01*
X124226933Y-86749789D01*
X124232052Y-86767701D01*
X124232361Y-86768696D01*
X124238394Y-86786618D01*
X124296716Y-86947411D01*
X124299412Y-86955752D01*
X124300771Y-86960528D01*
X124302621Y-86964243D01*
X124304846Y-86968958D01*
X124320406Y-87003827D01*
X124320407Y-87003829D01*
X124320530Y-87003998D01*
X124331131Y-87021500D01*
X124399938Y-87159683D01*
X124399943Y-87159691D01*
X124534020Y-87337238D01*
X124598878Y-87396363D01*
X124635160Y-87456074D01*
X124633399Y-87525921D01*
X124594156Y-87583729D01*
X124529889Y-87611144D01*
X124515340Y-87612000D01*
X111235840Y-87612000D01*
X111168801Y-87592315D01*
X111123046Y-87539511D01*
X111113102Y-87470353D01*
X111142127Y-87406797D01*
X111148159Y-87400319D01*
X111184657Y-87363820D01*
X111315134Y-87177482D01*
X111411265Y-86971326D01*
X111411269Y-86971317D01*
X111463872Y-86775000D01*
X110500686Y-86775000D01*
X110505080Y-86770606D01*
X110557741Y-86679394D01*
X110585000Y-86577661D01*
X110585000Y-86472339D01*
X110557741Y-86370606D01*
X110505080Y-86279394D01*
X110500686Y-86275000D01*
X111463872Y-86275000D01*
X111463872Y-86274999D01*
X111411269Y-86078682D01*
X111411265Y-86078673D01*
X111315134Y-85872517D01*
X111184657Y-85686179D01*
X111023820Y-85525342D01*
X110837482Y-85394865D01*
X110661612Y-85312856D01*
X110609173Y-85266684D01*
X110590021Y-85199490D01*
X110610237Y-85132609D01*
X110663402Y-85087274D01*
X110669206Y-85084854D01*
X110696440Y-85074304D01*
X110722392Y-85064251D01*
X110722396Y-85064248D01*
X110722401Y-85064247D01*
X110911562Y-84947124D01*
X111075981Y-84797236D01*
X111210058Y-84619689D01*
X111309229Y-84420528D01*
X111370115Y-84206536D01*
X111390643Y-83985000D01*
X111370115Y-83763464D01*
X111309229Y-83549472D01*
X111272000Y-83474706D01*
X111210061Y-83350316D01*
X111210056Y-83350308D01*
X111075979Y-83172761D01*
X110911562Y-83022876D01*
X110911560Y-83022874D01*
X110722404Y-82905754D01*
X110722395Y-82905750D01*
X110628956Y-82869552D01*
X110528475Y-82830625D01*
X110473075Y-82788054D01*
X110449484Y-82722288D01*
X110465195Y-82654207D01*
X110515219Y-82605428D01*
X110528466Y-82599377D01*
X110722401Y-82524247D01*
X110911562Y-82407124D01*
X111075981Y-82257236D01*
X111210058Y-82079689D01*
X111309229Y-81880528D01*
X111370115Y-81666536D01*
X111390643Y-81445000D01*
X111370115Y-81223464D01*
X111309229Y-81009472D01*
X111272000Y-80934706D01*
X111210061Y-80810316D01*
X111210056Y-80810308D01*
X111075979Y-80632761D01*
X110911562Y-80482876D01*
X110911560Y-80482874D01*
X110722404Y-80365754D01*
X110722395Y-80365750D01*
X110628956Y-80329552D01*
X110528475Y-80290625D01*
X110473075Y-80248054D01*
X110449484Y-80182288D01*
X110465195Y-80114207D01*
X110515219Y-80065428D01*
X110528466Y-80059377D01*
X110722401Y-79984247D01*
X110911562Y-79867124D01*
X111075981Y-79717236D01*
X111210058Y-79539689D01*
X111309229Y-79340528D01*
X111370115Y-79126536D01*
X111390643Y-78905000D01*
X111370115Y-78683464D01*
X111326088Y-78528725D01*
X111632704Y-78528725D01*
X111632899Y-78531210D01*
X111678718Y-78688922D01*
X111762314Y-78830276D01*
X111762321Y-78830285D01*
X111878438Y-78946402D01*
X111878447Y-78946409D01*
X112019803Y-79030006D01*
X112019806Y-79030007D01*
X112177504Y-79075823D01*
X112177510Y-79075824D01*
X112214350Y-79078723D01*
X112214366Y-79078724D01*
X112905000Y-79078724D01*
X113405000Y-79078724D01*
X114095634Y-79078724D01*
X114095649Y-79078723D01*
X114132489Y-79075824D01*
X114132495Y-79075823D01*
X114290193Y-79030007D01*
X114290196Y-79030006D01*
X114431552Y-78946409D01*
X114431561Y-78946402D01*
X114547678Y-78830285D01*
X114547685Y-78830276D01*
X114631281Y-78688922D01*
X114677100Y-78531210D01*
X114677295Y-78528725D01*
X114677295Y-78528724D01*
X113405000Y-78528724D01*
X113405000Y-79078724D01*
X112905000Y-79078724D01*
X112905000Y-78528724D01*
X111632705Y-78528724D01*
X111632704Y-78528725D01*
X111326088Y-78528725D01*
X111309229Y-78469472D01*
X111272000Y-78394706D01*
X111210061Y-78270316D01*
X111210056Y-78270308D01*
X111075979Y-78092761D01*
X110911562Y-77942876D01*
X110911560Y-77942874D01*
X110722404Y-77825754D01*
X110722395Y-77825750D01*
X110628956Y-77789552D01*
X110528475Y-77750625D01*
X110473075Y-77708054D01*
X110449484Y-77642288D01*
X110465195Y-77574207D01*
X110515219Y-77525428D01*
X110528466Y-77519377D01*
X110722401Y-77444247D01*
X110911562Y-77327124D01*
X111075586Y-77177596D01*
X111075979Y-77177238D01*
X111084982Y-77165317D01*
X111210058Y-76999689D01*
X111309229Y-76800528D01*
X111370115Y-76586536D01*
X111390643Y-76365000D01*
X111389120Y-76348569D01*
X111370115Y-76143464D01*
X111370114Y-76143462D01*
X111348261Y-76066657D01*
X111309229Y-75929472D01*
X111298336Y-75907596D01*
X111210061Y-75730316D01*
X111210056Y-75730308D01*
X111075979Y-75552761D01*
X110911562Y-75402876D01*
X110911560Y-75402874D01*
X110722404Y-75285754D01*
X110722395Y-75285750D01*
X110628956Y-75249552D01*
X110528475Y-75210625D01*
X110473075Y-75168054D01*
X110449484Y-75102288D01*
X110465195Y-75034207D01*
X110515219Y-74985428D01*
X110528466Y-74979377D01*
X110722401Y-74904247D01*
X110911562Y-74787124D01*
X111075586Y-74637596D01*
X111075979Y-74637238D01*
X111084982Y-74625317D01*
X111210058Y-74459689D01*
X111309229Y-74260528D01*
X111310590Y-74255740D01*
X111313279Y-74247415D01*
X111371602Y-74086623D01*
X111377638Y-74068689D01*
X111377959Y-74067656D01*
X111383068Y-74049778D01*
X111424357Y-73891662D01*
X111428204Y-73875597D01*
X111428407Y-73874666D01*
X111430502Y-73864016D01*
X111431594Y-73858475D01*
X111452127Y-73741648D01*
X111456032Y-73719432D01*
X111457627Y-73709658D01*
X111457715Y-73709074D01*
X111459154Y-73698600D01*
X111474685Y-73573471D01*
X111474684Y-73573468D01*
X111486982Y-73475307D01*
X111488258Y-73467275D01*
X111492242Y-73446596D01*
X111524254Y-73384491D01*
X111584760Y-73349551D01*
X111654551Y-73352871D01*
X111711468Y-73393395D01*
X111737119Y-73455271D01*
X111740122Y-73480285D01*
X111795639Y-73621067D01*
X111887079Y-73741648D01*
X111891474Y-73746043D01*
X111924959Y-73807366D01*
X111919975Y-73877058D01*
X111891474Y-73921405D01*
X111887079Y-73925799D01*
X111795639Y-74046380D01*
X111740122Y-74187162D01*
X111734188Y-74236577D01*
X111729500Y-74275622D01*
X111729500Y-74661826D01*
X111735126Y-74708678D01*
X111740122Y-74750285D01*
X111795639Y-74891067D01*
X111887079Y-75011648D01*
X111891474Y-75016043D01*
X111924959Y-75077366D01*
X111919975Y-75147058D01*
X111891474Y-75191405D01*
X111887079Y-75195799D01*
X111795639Y-75316380D01*
X111740122Y-75457162D01*
X111734188Y-75506577D01*
X111729500Y-75545622D01*
X111729500Y-75931826D01*
X111735126Y-75978678D01*
X111740122Y-76020285D01*
X111795639Y-76161067D01*
X111887079Y-76281648D01*
X111891474Y-76286043D01*
X111924959Y-76347366D01*
X111919975Y-76417058D01*
X111891474Y-76461405D01*
X111887079Y-76465799D01*
X111795639Y-76586380D01*
X111740122Y-76727162D01*
X111734188Y-76776577D01*
X111729500Y-76815622D01*
X111729500Y-77201826D01*
X111735126Y-77248678D01*
X111740122Y-77290285D01*
X111795639Y-77431067D01*
X111843638Y-77494363D01*
X111868461Y-77559675D01*
X111854033Y-77628038D01*
X111832515Y-77656969D01*
X111762321Y-77727162D01*
X111762314Y-77727171D01*
X111678718Y-77868525D01*
X111632899Y-78026237D01*
X111632704Y-78028722D01*
X111632705Y-78028724D01*
X114677295Y-78028724D01*
X114677295Y-78028722D01*
X114677100Y-78026237D01*
X114631281Y-77868525D01*
X114559024Y-77746345D01*
X114541841Y-77678621D01*
X114564001Y-77612359D01*
X114618467Y-77568595D01*
X114665756Y-77559224D01*
X114948023Y-77559224D01*
X114969155Y-77561038D01*
X114988281Y-77564346D01*
X115034486Y-77565001D01*
X115039415Y-77565170D01*
X115045518Y-77565500D01*
X115069679Y-77566806D01*
X115076881Y-77567407D01*
X115086702Y-77568516D01*
X115115100Y-77575175D01*
X115117942Y-77576207D01*
X115117983Y-77576222D01*
X115117986Y-77576223D01*
X115118330Y-77576348D01*
X115124022Y-77578576D01*
X115145779Y-77587725D01*
X115148071Y-77588718D01*
X115160629Y-77594316D01*
X115183454Y-77604490D01*
X115183578Y-77604550D01*
X115186957Y-77606051D01*
X115187253Y-77606183D01*
X115187260Y-77606186D01*
X115187263Y-77606187D01*
X115187434Y-77606263D01*
X115188435Y-77606709D01*
X115188492Y-77606733D01*
X115239925Y-77629572D01*
X115240085Y-77629643D01*
X115242367Y-77630647D01*
X115242547Y-77630725D01*
X115242556Y-77630729D01*
X115242719Y-77630800D01*
X115245754Y-77632107D01*
X115283264Y-77648083D01*
X115283264Y-77648084D01*
X115298019Y-77654369D01*
X115314573Y-77660598D01*
X115316659Y-77661383D01*
X115330618Y-77667644D01*
X115332275Y-77668514D01*
X115497444Y-77709224D01*
X115667556Y-77709224D01*
X115832725Y-77668514D01*
X115917773Y-77623877D01*
X115983349Y-77589460D01*
X115983350Y-77589458D01*
X115983352Y-77589458D01*
X116110683Y-77476653D01*
X116207318Y-77336654D01*
X116267640Y-77177596D01*
X116288145Y-77008724D01*
X116267640Y-76839852D01*
X116207318Y-76680794D01*
X116110683Y-76540795D01*
X116010956Y-76452445D01*
X115983349Y-76427987D01*
X115832726Y-76348934D01*
X115667556Y-76308224D01*
X115497444Y-76308224D01*
X115332275Y-76348934D01*
X115332274Y-76348934D01*
X115324993Y-76350729D01*
X115324460Y-76348569D01*
X115265803Y-76353079D01*
X115204302Y-76319922D01*
X115170490Y-76258779D01*
X115175103Y-76189061D01*
X115189463Y-76161335D01*
X115254818Y-76066654D01*
X115315140Y-75907596D01*
X115335645Y-75738724D01*
X115315140Y-75569852D01*
X115308659Y-75552764D01*
X115254817Y-75410792D01*
X115220476Y-75361042D01*
X115158183Y-75270795D01*
X115074363Y-75196537D01*
X115037238Y-75137350D01*
X115038006Y-75067485D01*
X115074363Y-75010910D01*
X115158183Y-74936653D01*
X115254818Y-74796654D01*
X115315140Y-74637596D01*
X115335645Y-74468724D01*
X115315140Y-74299852D01*
X115254818Y-74140794D01*
X115158183Y-74000795D01*
X115074363Y-73926537D01*
X115037238Y-73867350D01*
X115038006Y-73797485D01*
X115074363Y-73740910D01*
X115158183Y-73666653D01*
X115254818Y-73526654D01*
X115315140Y-73367596D01*
X115335645Y-73198724D01*
X115315140Y-73029852D01*
X115308659Y-73012764D01*
X115254817Y-72870792D01*
X115220476Y-72821042D01*
X115158183Y-72730795D01*
X115053885Y-72638395D01*
X115030849Y-72617987D01*
X114880226Y-72538934D01*
X114715056Y-72498224D01*
X114638522Y-72498224D01*
X114571483Y-72478539D01*
X114525728Y-72425735D01*
X114515784Y-72356577D01*
X114523168Y-72328734D01*
X114551592Y-72256655D01*
X114569877Y-72210288D01*
X114580500Y-72121826D01*
X114580500Y-71735622D01*
X114569877Y-71647160D01*
X114514361Y-71506382D01*
X114514360Y-71506381D01*
X114514360Y-71506380D01*
X114422920Y-71385799D01*
X114418526Y-71381405D01*
X114385041Y-71320082D01*
X114390025Y-71250390D01*
X114418526Y-71206043D01*
X114422920Y-71201648D01*
X114431559Y-71190257D01*
X114514361Y-71081066D01*
X114569877Y-70940288D01*
X114580500Y-70851826D01*
X114580500Y-70465622D01*
X114569877Y-70377160D01*
X114514361Y-70236382D01*
X114514360Y-70236381D01*
X114514360Y-70236380D01*
X114422920Y-70115799D01*
X114418526Y-70111405D01*
X114385041Y-70050082D01*
X114390025Y-69980390D01*
X114418526Y-69936043D01*
X114422920Y-69931648D01*
X114442804Y-69905428D01*
X114514361Y-69811066D01*
X114569877Y-69670288D01*
X114580500Y-69581826D01*
X114580500Y-69195622D01*
X114569877Y-69107160D01*
X114514361Y-68966382D01*
X114514360Y-68966381D01*
X114514360Y-68966380D01*
X114422920Y-68845799D01*
X114418526Y-68841405D01*
X114385041Y-68780082D01*
X114390025Y-68710390D01*
X114418526Y-68666043D01*
X114422920Y-68661648D01*
X114423876Y-68660388D01*
X114514361Y-68541066D01*
X114569877Y-68400288D01*
X114580500Y-68311826D01*
X114580500Y-67925622D01*
X114569877Y-67837160D01*
X114523168Y-67718714D01*
X114516886Y-67649127D01*
X114549223Y-67587191D01*
X114609911Y-67552570D01*
X114638522Y-67549224D01*
X114715056Y-67549224D01*
X114880225Y-67508514D01*
X115002465Y-67444357D01*
X115030849Y-67429460D01*
X115030850Y-67429458D01*
X115030852Y-67429458D01*
X115158183Y-67316653D01*
X115254818Y-67176654D01*
X115315140Y-67017596D01*
X115335645Y-66848724D01*
X115315140Y-66679852D01*
X115254818Y-66520794D01*
X115158183Y-66380795D01*
X115074363Y-66306537D01*
X115037238Y-66247350D01*
X115038006Y-66177485D01*
X115074363Y-66120910D01*
X115158183Y-66046653D01*
X115254818Y-65906654D01*
X115315140Y-65747596D01*
X115335645Y-65578724D01*
X115315140Y-65409852D01*
X115308659Y-65392764D01*
X115254817Y-65250792D01*
X115220476Y-65201042D01*
X115158183Y-65110795D01*
X115074363Y-65036537D01*
X115037238Y-64977350D01*
X115038006Y-64907485D01*
X115074363Y-64850910D01*
X115158183Y-64776653D01*
X115254818Y-64636654D01*
X115315140Y-64477596D01*
X115335645Y-64308724D01*
X115315140Y-64139852D01*
X115254818Y-63980794D01*
X115189464Y-63886113D01*
X115167581Y-63819759D01*
X115185046Y-63752107D01*
X115236314Y-63704637D01*
X115305107Y-63692420D01*
X115324876Y-63697179D01*
X115324990Y-63696718D01*
X115332273Y-63698513D01*
X115332275Y-63698514D01*
X115497444Y-63739224D01*
X115667556Y-63739224D01*
X115832725Y-63698514D01*
X115927191Y-63648934D01*
X115983349Y-63619460D01*
X115983350Y-63619458D01*
X115983352Y-63619458D01*
X116110683Y-63506653D01*
X116207318Y-63366654D01*
X116267640Y-63207596D01*
X116288145Y-63038724D01*
X116267640Y-62869852D01*
X116261159Y-62852764D01*
X116207317Y-62710792D01*
X116172976Y-62661042D01*
X116110683Y-62570795D01*
X116010955Y-62482444D01*
X115983349Y-62457987D01*
X115832726Y-62378934D01*
X115667556Y-62338224D01*
X115497444Y-62338224D01*
X115332274Y-62378934D01*
X115332272Y-62378935D01*
X115325069Y-62382715D01*
X115302500Y-62391325D01*
X115302577Y-62391552D01*
X115297959Y-62393103D01*
X115245647Y-62415384D01*
X115240031Y-62417827D01*
X115191590Y-62439337D01*
X115191420Y-62439404D01*
X115186858Y-62441438D01*
X115186733Y-62441493D01*
X115184095Y-62442664D01*
X115183986Y-62442717D01*
X115148155Y-62458689D01*
X115145735Y-62459737D01*
X115124037Y-62468861D01*
X115118278Y-62471116D01*
X115115093Y-62472272D01*
X115086704Y-62478928D01*
X115076921Y-62480033D01*
X115069700Y-62480636D01*
X115039376Y-62482276D01*
X115034443Y-62482444D01*
X114988280Y-62483100D01*
X114959316Y-62484549D01*
X114959161Y-62484587D01*
X114958546Y-62484662D01*
X114953393Y-62485422D01*
X114953374Y-62485293D01*
X114929351Y-62488224D01*
X114539768Y-62488224D01*
X114508865Y-62484311D01*
X114507943Y-62484074D01*
X114447928Y-62448303D01*
X114416778Y-62385761D01*
X114424385Y-62316307D01*
X114440048Y-62289062D01*
X114514360Y-62191067D01*
X114514359Y-62191067D01*
X114514361Y-62191066D01*
X114569877Y-62050288D01*
X114580500Y-61961826D01*
X114580500Y-61575622D01*
X114569877Y-61487160D01*
X114514361Y-61346382D01*
X114514360Y-61346381D01*
X114514360Y-61346380D01*
X114422922Y-61225801D01*
X114302343Y-61134363D01*
X114161561Y-61078846D01*
X114115926Y-61073366D01*
X114073102Y-61068224D01*
X112236898Y-61068224D01*
X112197853Y-61072912D01*
X112148438Y-61078846D01*
X112007656Y-61134363D01*
X111887077Y-61225801D01*
X111795639Y-61346380D01*
X111740122Y-61487162D01*
X111734188Y-61536577D01*
X111729500Y-61575622D01*
X111729500Y-61961826D01*
X111735126Y-62008678D01*
X111740122Y-62050285D01*
X111795639Y-62191067D01*
X111887079Y-62311648D01*
X111891474Y-62316043D01*
X111924959Y-62377366D01*
X111919975Y-62447058D01*
X111891474Y-62491405D01*
X111887079Y-62495799D01*
X111795639Y-62616380D01*
X111740122Y-62757162D01*
X111734188Y-62806577D01*
X111729500Y-62845622D01*
X111729500Y-63231826D01*
X111735126Y-63278678D01*
X111740122Y-63320285D01*
X111795639Y-63461067D01*
X111887079Y-63581648D01*
X111891474Y-63586043D01*
X111924959Y-63647366D01*
X111919975Y-63717058D01*
X111891474Y-63761405D01*
X111887079Y-63765799D01*
X111795639Y-63886380D01*
X111740122Y-64027162D01*
X111734188Y-64076577D01*
X111729500Y-64115622D01*
X111729500Y-64501826D01*
X111735126Y-64548678D01*
X111740122Y-64590285D01*
X111740122Y-64590287D01*
X111740123Y-64590288D01*
X111754649Y-64627123D01*
X111795639Y-64731067D01*
X111887079Y-64851648D01*
X111891474Y-64856043D01*
X111924959Y-64917366D01*
X111919975Y-64987058D01*
X111891474Y-65031405D01*
X111887079Y-65035799D01*
X111795639Y-65156380D01*
X111740122Y-65297162D01*
X111734188Y-65346577D01*
X111729500Y-65385622D01*
X111729500Y-65771826D01*
X111735126Y-65818678D01*
X111740122Y-65860285D01*
X111795639Y-66001067D01*
X111887079Y-66121648D01*
X111891474Y-66126043D01*
X111924959Y-66187366D01*
X111919975Y-66257058D01*
X111891474Y-66301405D01*
X111887079Y-66305799D01*
X111795639Y-66426380D01*
X111740121Y-66567165D01*
X111738409Y-66581426D01*
X111710872Y-66645640D01*
X111652990Y-66684772D01*
X111583139Y-66686399D01*
X111523497Y-66650004D01*
X111493534Y-66590102D01*
X111488257Y-66562715D01*
X111486979Y-66554667D01*
X111474644Y-66456197D01*
X111474629Y-66456087D01*
X111474626Y-66456057D01*
X111459154Y-66331399D01*
X111457715Y-66320923D01*
X111457627Y-66320339D01*
X111456032Y-66310565D01*
X111439923Y-66218912D01*
X111431594Y-66171521D01*
X111429219Y-66159458D01*
X111428407Y-66155331D01*
X111428204Y-66154400D01*
X111424357Y-66138335D01*
X111383068Y-65980219D01*
X111377959Y-65962341D01*
X111377638Y-65961308D01*
X111377574Y-65961119D01*
X111371606Y-65943385D01*
X111371603Y-65943376D01*
X111371602Y-65943372D01*
X111313281Y-65782582D01*
X111310583Y-65774232D01*
X111309231Y-65769479D01*
X111309230Y-65769478D01*
X111309229Y-65769472D01*
X111307278Y-65765555D01*
X111305038Y-65760806D01*
X111289593Y-65726172D01*
X111289592Y-65726171D01*
X111289476Y-65726011D01*
X111278872Y-65708508D01*
X111210058Y-65570311D01*
X111084981Y-65404681D01*
X111075979Y-65392761D01*
X110911562Y-65242876D01*
X110911560Y-65242874D01*
X110722404Y-65125754D01*
X110722395Y-65125750D01*
X110628956Y-65089552D01*
X110528475Y-65050625D01*
X110473075Y-65008054D01*
X110449484Y-64942288D01*
X110465195Y-64874207D01*
X110515219Y-64825428D01*
X110528466Y-64819377D01*
X110722401Y-64744247D01*
X110911562Y-64627124D01*
X111075586Y-64477596D01*
X111075979Y-64477238D01*
X111084982Y-64465317D01*
X111210058Y-64299689D01*
X111309229Y-64100528D01*
X111370115Y-63886536D01*
X111390643Y-63665000D01*
X111386307Y-63618211D01*
X111370115Y-63443464D01*
X111370114Y-63443462D01*
X111348260Y-63366654D01*
X111309229Y-63229472D01*
X111298336Y-63207596D01*
X111210061Y-63030316D01*
X111210056Y-63030308D01*
X111075979Y-62852761D01*
X110911562Y-62702876D01*
X110911560Y-62702874D01*
X110722404Y-62585754D01*
X110722395Y-62585750D01*
X110628956Y-62549552D01*
X110528475Y-62510625D01*
X110473075Y-62468054D01*
X110449484Y-62402288D01*
X110465195Y-62334207D01*
X110515219Y-62285428D01*
X110528466Y-62279377D01*
X110722401Y-62204247D01*
X110911562Y-62087124D01*
X111075981Y-61937236D01*
X111210058Y-61759689D01*
X111309229Y-61560528D01*
X111370115Y-61346536D01*
X111390643Y-61125000D01*
X111370115Y-60903464D01*
X111309229Y-60689472D01*
X111272000Y-60614706D01*
X111210061Y-60490316D01*
X111210056Y-60490308D01*
X111075979Y-60312761D01*
X110911562Y-60162876D01*
X110911560Y-60162874D01*
X110722404Y-60045754D01*
X110722395Y-60045750D01*
X110628956Y-60009552D01*
X110528475Y-59970625D01*
X110473075Y-59928054D01*
X110449484Y-59862288D01*
X110465195Y-59794207D01*
X110515219Y-59745428D01*
X110528466Y-59739377D01*
X110722401Y-59664247D01*
X110911562Y-59547124D01*
X111075981Y-59397236D01*
X111210058Y-59219689D01*
X111309229Y-59020528D01*
X111370115Y-58806536D01*
X111390643Y-58585000D01*
X111370115Y-58363464D01*
X111309229Y-58149472D01*
X111231952Y-57994279D01*
X111210061Y-57950316D01*
X111210056Y-57950308D01*
X111075979Y-57772761D01*
X110911562Y-57622876D01*
X110911560Y-57622874D01*
X110722404Y-57505754D01*
X110722395Y-57505750D01*
X110628956Y-57469552D01*
X110528475Y-57430625D01*
X110473075Y-57388054D01*
X110449484Y-57322288D01*
X110465195Y-57254207D01*
X110515219Y-57205428D01*
X110528466Y-57199377D01*
X110722401Y-57124247D01*
X110911562Y-57007124D01*
X111075981Y-56857236D01*
X111210058Y-56679689D01*
X111309229Y-56480528D01*
X111370115Y-56266536D01*
X111390643Y-56045000D01*
X111370115Y-55823464D01*
X111309229Y-55609472D01*
X111272000Y-55534706D01*
X111210061Y-55410316D01*
X111210056Y-55410308D01*
X111075979Y-55232761D01*
X110911562Y-55082876D01*
X110911560Y-55082874D01*
X110722404Y-54965754D01*
X110722395Y-54965750D01*
X110628956Y-54929552D01*
X110528475Y-54890625D01*
X110473075Y-54848054D01*
X110449484Y-54782288D01*
X110465195Y-54714207D01*
X110515219Y-54665428D01*
X110528466Y-54659377D01*
X110722401Y-54584247D01*
X110911562Y-54467124D01*
X111075981Y-54317236D01*
X111210058Y-54139689D01*
X111309229Y-53940528D01*
X111370115Y-53726536D01*
X111390643Y-53505000D01*
X111370115Y-53283464D01*
X111309229Y-53069472D01*
X111309224Y-53069461D01*
X111210061Y-52870316D01*
X111210056Y-52870308D01*
X111075979Y-52692761D01*
X111011122Y-52633637D01*
X110974840Y-52573926D01*
X110976601Y-52504079D01*
X111015844Y-52446271D01*
X111080111Y-52418856D01*
X111094660Y-52418000D01*
X116120262Y-52418000D01*
X116187301Y-52437685D01*
G37*
%TD.AperFunction*%
%TD*%
%TA.AperFunction,Conductor*%
%TO.N,+5V*%
G36*
X124696953Y-53203418D02*
G01*
X125109502Y-53373744D01*
X125421212Y-53502437D01*
X125427551Y-53508762D01*
X125427562Y-53508787D01*
X125726577Y-54233036D01*
X125726566Y-54241991D01*
X125720227Y-54248316D01*
X125719975Y-54248416D01*
X125556776Y-54311408D01*
X125556254Y-54311596D01*
X125407894Y-54360916D01*
X125407499Y-54361039D01*
X125279501Y-54398621D01*
X125279391Y-54398653D01*
X125166253Y-54430672D01*
X125062917Y-54463189D01*
X124964010Y-54502359D01*
X124964004Y-54502362D01*
X124864192Y-54554326D01*
X124864178Y-54554334D01*
X124758107Y-54625243D01*
X124758105Y-54625244D01*
X124640420Y-54721248D01*
X124640414Y-54721253D01*
X124514028Y-54840690D01*
X124505661Y-54843881D01*
X124497719Y-54840459D01*
X124089540Y-54432280D01*
X124086113Y-54424007D01*
X124089308Y-54415973D01*
X124208748Y-54289582D01*
X124304756Y-54171889D01*
X124375670Y-54065809D01*
X124427638Y-53965990D01*
X124466809Y-53867079D01*
X124499331Y-53763726D01*
X124531352Y-53650578D01*
X124568960Y-53522488D01*
X124569081Y-53522103D01*
X124575619Y-53502437D01*
X124618409Y-53373723D01*
X124618581Y-53373245D01*
X124681584Y-53210022D01*
X124687759Y-53203540D01*
X124696711Y-53203322D01*
X124696953Y-53203418D01*
G37*
%TD.AperFunction*%
%TD*%
%TA.AperFunction,Conductor*%
%TO.N,/D4*%
G36*
X121527640Y-76721701D02*
G01*
X121733480Y-76785341D01*
X122419845Y-76997546D01*
X122426737Y-77003264D01*
X122427567Y-77012180D01*
X122421849Y-77019072D01*
X122419845Y-77019902D01*
X121527643Y-77295745D01*
X121518727Y-77294915D01*
X121518087Y-77294551D01*
X121483327Y-77273316D01*
X121444081Y-77251591D01*
X121444065Y-77251582D01*
X121404854Y-77232123D01*
X121404798Y-77232097D01*
X121365556Y-77214872D01*
X121326295Y-77199889D01*
X121287047Y-77187158D01*
X121247797Y-77176677D01*
X121247774Y-77176672D01*
X121208506Y-77168437D01*
X121169261Y-77162457D01*
X121169236Y-77162454D01*
X121140592Y-77159730D01*
X121132681Y-77155536D01*
X121130000Y-77148083D01*
X121130000Y-76869363D01*
X121133427Y-76861090D01*
X121140591Y-76857716D01*
X121153594Y-76856479D01*
X121169223Y-76854994D01*
X121169240Y-76854991D01*
X121169259Y-76854990D01*
X121208519Y-76849007D01*
X121247779Y-76840774D01*
X121287038Y-76830291D01*
X121326298Y-76817558D01*
X121365558Y-76802574D01*
X121404817Y-76785341D01*
X121404842Y-76785328D01*
X121404854Y-76785323D01*
X121444065Y-76765864D01*
X121444065Y-76765863D01*
X121444077Y-76765858D01*
X121483337Y-76744125D01*
X121518089Y-76722895D01*
X121526934Y-76721507D01*
X121527640Y-76721701D01*
G37*
%TD.AperFunction*%
%TD*%
%TA.AperFunction,Conductor*%
%TO.N,/D4*%
G36*
X120153067Y-76736143D02*
G01*
X120205422Y-76758442D01*
X120257662Y-76781638D01*
X120257660Y-76781640D01*
X120257672Y-76781642D01*
X120301887Y-76801351D01*
X120340960Y-76817782D01*
X120377743Y-76831131D01*
X120415099Y-76841602D01*
X120455890Y-76849395D01*
X120502979Y-76854712D01*
X120540478Y-76856740D01*
X120559225Y-76857754D01*
X120573535Y-76857957D01*
X120615966Y-76858560D01*
X120624190Y-76862104D01*
X120627500Y-76870259D01*
X120627500Y-77147188D01*
X120624073Y-77155461D01*
X120615966Y-77158887D01*
X120559225Y-77159692D01*
X120502987Y-77162734D01*
X120502983Y-77162734D01*
X120455888Y-77168052D01*
X120415100Y-77175844D01*
X120377741Y-77186315D01*
X120340943Y-77199671D01*
X120301915Y-77216083D01*
X120257662Y-77235808D01*
X120257647Y-77235814D01*
X120205508Y-77258966D01*
X120205345Y-77259037D01*
X120153144Y-77281271D01*
X120144189Y-77281360D01*
X120137795Y-77275092D01*
X120137763Y-77275018D01*
X120131086Y-77259037D01*
X120028383Y-77013233D01*
X120028357Y-77004280D01*
X120028362Y-77004266D01*
X120137764Y-76742427D01*
X120144115Y-76736117D01*
X120153067Y-76736143D01*
G37*
%TD.AperFunction*%
%TD*%
%TA.AperFunction,Conductor*%
%TO.N,/A4*%
G36*
X110921762Y-65903527D02*
G01*
X110928087Y-65909866D01*
X110928271Y-65910342D01*
X110990403Y-66081639D01*
X110990724Y-66082672D01*
X111032013Y-66240788D01*
X111032216Y-66241719D01*
X111056654Y-66380760D01*
X111056742Y-66381344D01*
X111072271Y-66506462D01*
X111086789Y-66622350D01*
X111086792Y-66622366D01*
X111108227Y-66733625D01*
X111108230Y-66733636D01*
X111144550Y-66845175D01*
X111196819Y-66948271D01*
X111203713Y-66961868D01*
X111238167Y-67010403D01*
X111293691Y-67088620D01*
X111414935Y-67222049D01*
X111417963Y-67230476D01*
X111414549Y-67238190D01*
X111218190Y-67434549D01*
X111209917Y-67437976D01*
X111202049Y-67434935D01*
X111068620Y-67313691D01*
X111005241Y-67268700D01*
X110941868Y-67223713D01*
X110941865Y-67223711D01*
X110941863Y-67223710D01*
X110825175Y-67164550D01*
X110825172Y-67164549D01*
X110825170Y-67164548D01*
X110783692Y-67151042D01*
X110713636Y-67128230D01*
X110713625Y-67128227D01*
X110602366Y-67106792D01*
X110602350Y-67106789D01*
X110486475Y-67092272D01*
X110486468Y-67092272D01*
X110422346Y-67084313D01*
X110361344Y-67076742D01*
X110360760Y-67076654D01*
X110221719Y-67052216D01*
X110220788Y-67052013D01*
X110062672Y-67010724D01*
X110061639Y-67010403D01*
X109890342Y-66948271D01*
X109883733Y-66942228D01*
X109883332Y-66933283D01*
X109883499Y-66932848D01*
X110182438Y-66208785D01*
X110188762Y-66202448D01*
X110188764Y-66202446D01*
X110912809Y-65903516D01*
X110921762Y-65903527D01*
G37*
%TD.AperFunction*%
%TD*%
%TA.AperFunction,Conductor*%
%TO.N,/A4*%
G36*
X112001558Y-67804470D02*
G01*
X112114063Y-67815534D01*
X112114070Y-67815534D01*
X112114095Y-67815537D01*
X112173064Y-67820211D01*
X112232066Y-67824888D01*
X112330208Y-67830797D01*
X112350082Y-67831994D01*
X112450344Y-67836117D01*
X112468072Y-67836847D01*
X112484929Y-67837219D01*
X112586063Y-67839452D01*
X112589867Y-67839463D01*
X112704077Y-67839806D01*
X112773979Y-67838682D01*
X112822042Y-67837911D01*
X112822062Y-67837910D01*
X112822080Y-67837910D01*
X112940083Y-67833765D01*
X113058086Y-67827369D01*
X113162650Y-67819708D01*
X113171151Y-67822521D01*
X113175173Y-67830522D01*
X113175177Y-67832168D01*
X113156355Y-68109866D01*
X113152377Y-68117889D01*
X113146202Y-68120676D01*
X112135641Y-68253048D01*
X112126992Y-68250725D01*
X112125939Y-68249809D01*
X112113374Y-68237502D01*
X112095400Y-68219896D01*
X112060785Y-68188241D01*
X112026177Y-68158843D01*
X111991577Y-68131701D01*
X111991571Y-68131696D01*
X111956965Y-68106799D01*
X111922358Y-68084151D01*
X111922341Y-68084141D01*
X111922324Y-68084130D01*
X111887788Y-68063774D01*
X111887767Y-68063762D01*
X111887751Y-68063753D01*
X111868837Y-68053835D01*
X111853143Y-68045605D01*
X111853140Y-68045604D01*
X111818537Y-68029708D01*
X111818538Y-68029708D01*
X111818535Y-68029707D01*
X111818531Y-68029705D01*
X111800524Y-68022604D01*
X111794085Y-68016381D01*
X111793932Y-68007428D01*
X111796541Y-68003449D01*
X111992149Y-67807841D01*
X112000421Y-67804415D01*
X112001558Y-67804470D01*
G37*
%TD.AperFunction*%
%TD*%
%TA.AperFunction,Conductor*%
%TO.N,/A3*%
G36*
X112227640Y-69101701D02*
G01*
X112433480Y-69165341D01*
X113119845Y-69377546D01*
X113126737Y-69383264D01*
X113127567Y-69392180D01*
X113121849Y-69399072D01*
X113119845Y-69399902D01*
X112227643Y-69675745D01*
X112218727Y-69674915D01*
X112218087Y-69674551D01*
X112183327Y-69653316D01*
X112144081Y-69631591D01*
X112144065Y-69631582D01*
X112104854Y-69612123D01*
X112104798Y-69612097D01*
X112065556Y-69594872D01*
X112026295Y-69579889D01*
X111987047Y-69567158D01*
X111947797Y-69556677D01*
X111947774Y-69556672D01*
X111908506Y-69548437D01*
X111869261Y-69542457D01*
X111869236Y-69542454D01*
X111840592Y-69539730D01*
X111832681Y-69535536D01*
X111830000Y-69528083D01*
X111830000Y-69249363D01*
X111833427Y-69241090D01*
X111840591Y-69237716D01*
X111853594Y-69236479D01*
X111869223Y-69234994D01*
X111869240Y-69234991D01*
X111869259Y-69234990D01*
X111908519Y-69229007D01*
X111947779Y-69220774D01*
X111987038Y-69210291D01*
X112026298Y-69197558D01*
X112065558Y-69182574D01*
X112104817Y-69165341D01*
X112104842Y-69165328D01*
X112104854Y-69165323D01*
X112144065Y-69145864D01*
X112144065Y-69145863D01*
X112144077Y-69145858D01*
X112183337Y-69124125D01*
X112218089Y-69102895D01*
X112226934Y-69101507D01*
X112227640Y-69101701D01*
G37*
%TD.AperFunction*%
%TD*%
%TA.AperFunction,Conductor*%
%TO.N,/A3*%
G36*
X110758089Y-68188454D02*
G01*
X110758858Y-68189304D01*
X110866204Y-68320506D01*
X110867452Y-68322371D01*
X110944922Y-68466329D01*
X110945644Y-68467957D01*
X110996671Y-68611619D01*
X110996987Y-68612659D01*
X111032301Y-68751924D01*
X111032356Y-68752149D01*
X111062674Y-68882482D01*
X111098761Y-68999030D01*
X111151482Y-69097312D01*
X111151485Y-69097317D01*
X111227796Y-69169240D01*
X111231732Y-69172950D01*
X111291063Y-69197249D01*
X111350394Y-69221549D01*
X111388282Y-69225423D01*
X111507851Y-69237649D01*
X111515733Y-69241899D01*
X111518361Y-69249288D01*
X111518361Y-69527035D01*
X111514934Y-69535308D01*
X111506672Y-69538735D01*
X111337034Y-69538898D01*
X111337022Y-69538899D01*
X111330814Y-69538918D01*
X111187699Y-69539375D01*
X111187685Y-69539376D01*
X111177386Y-69539433D01*
X111062360Y-69540078D01*
X111062349Y-69540079D01*
X111052497Y-69540155D01*
X110953021Y-69540932D01*
X110953014Y-69540933D01*
X110851680Y-69541862D01*
X110750345Y-69542790D01*
X110750329Y-69542790D01*
X110641010Y-69543644D01*
X110640985Y-69543644D01*
X110515675Y-69544347D01*
X110515646Y-69544347D01*
X110366338Y-69544824D01*
X110366312Y-69544824D01*
X110196696Y-69544988D01*
X110188420Y-69541569D01*
X110184985Y-69533303D01*
X110184977Y-69527035D01*
X110184006Y-68749859D01*
X110187422Y-68741583D01*
X110741544Y-68188439D01*
X110749819Y-68185020D01*
X110758089Y-68188454D01*
G37*
%TD.AperFunction*%
%TD*%
%TA.AperFunction,Conductor*%
%TO.N,/D5*%
G36*
X121527640Y-75451701D02*
G01*
X121733480Y-75515341D01*
X122419845Y-75727546D01*
X122426737Y-75733264D01*
X122427567Y-75742180D01*
X122421849Y-75749072D01*
X122419845Y-75749902D01*
X121527643Y-76025745D01*
X121518727Y-76024915D01*
X121518087Y-76024551D01*
X121483327Y-76003316D01*
X121444081Y-75981591D01*
X121444065Y-75981582D01*
X121404854Y-75962123D01*
X121404798Y-75962097D01*
X121365556Y-75944872D01*
X121326295Y-75929889D01*
X121287047Y-75917158D01*
X121247797Y-75906677D01*
X121247774Y-75906672D01*
X121208506Y-75898437D01*
X121169261Y-75892457D01*
X121169236Y-75892454D01*
X121140592Y-75889730D01*
X121132681Y-75885536D01*
X121130000Y-75878083D01*
X121130000Y-75599363D01*
X121133427Y-75591090D01*
X121140591Y-75587716D01*
X121153594Y-75586479D01*
X121169223Y-75584994D01*
X121169240Y-75584991D01*
X121169259Y-75584990D01*
X121208519Y-75579007D01*
X121247779Y-75570774D01*
X121287038Y-75560291D01*
X121326298Y-75547558D01*
X121365558Y-75532574D01*
X121404817Y-75515341D01*
X121404842Y-75515328D01*
X121404854Y-75515323D01*
X121444065Y-75495864D01*
X121444065Y-75495863D01*
X121444077Y-75495858D01*
X121483337Y-75474125D01*
X121518089Y-75452895D01*
X121526934Y-75451507D01*
X121527640Y-75451701D01*
G37*
%TD.AperFunction*%
%TD*%
%TA.AperFunction,Conductor*%
%TO.N,/D5*%
G36*
X121105567Y-75466143D02*
G01*
X121157922Y-75488442D01*
X121210162Y-75511638D01*
X121210160Y-75511640D01*
X121210172Y-75511642D01*
X121254387Y-75531351D01*
X121293460Y-75547782D01*
X121330243Y-75561131D01*
X121367599Y-75571602D01*
X121408390Y-75579395D01*
X121455479Y-75584712D01*
X121492978Y-75586740D01*
X121511725Y-75587754D01*
X121526035Y-75587957D01*
X121568466Y-75588560D01*
X121576690Y-75592104D01*
X121580000Y-75600259D01*
X121580000Y-75877188D01*
X121576573Y-75885461D01*
X121568466Y-75888887D01*
X121511725Y-75889692D01*
X121455487Y-75892734D01*
X121455483Y-75892734D01*
X121408388Y-75898052D01*
X121367600Y-75905844D01*
X121330241Y-75916315D01*
X121293443Y-75929671D01*
X121254415Y-75946083D01*
X121210162Y-75965808D01*
X121210147Y-75965814D01*
X121158008Y-75988966D01*
X121157845Y-75989037D01*
X121105644Y-76011271D01*
X121096689Y-76011360D01*
X121090295Y-76005092D01*
X121090263Y-76005018D01*
X121083586Y-75989037D01*
X120980883Y-75743233D01*
X120980857Y-75734280D01*
X120980862Y-75734266D01*
X121090264Y-75472427D01*
X121096615Y-75466117D01*
X121105567Y-75466143D01*
G37*
%TD.AperFunction*%
%TD*%
%TA.AperFunction,Conductor*%
%TO.N,/A5*%
G36*
X114091272Y-66562532D02*
G01*
X114091899Y-66562889D01*
X114126662Y-66584125D01*
X114126670Y-66584129D01*
X114126671Y-66584130D01*
X114165917Y-66605855D01*
X114165933Y-66605864D01*
X114205144Y-66625323D01*
X114205170Y-66625335D01*
X114205182Y-66625341D01*
X114244441Y-66642574D01*
X114283701Y-66657558D01*
X114312856Y-66667013D01*
X114322951Y-66670288D01*
X114322955Y-66670289D01*
X114322961Y-66670291D01*
X114362220Y-66680774D01*
X114401480Y-66689007D01*
X114401489Y-66689008D01*
X114401492Y-66689009D01*
X114440720Y-66694987D01*
X114440740Y-66694990D01*
X114440754Y-66694991D01*
X114440775Y-66694994D01*
X114457116Y-66696547D01*
X114469408Y-66697716D01*
X114477319Y-66701910D01*
X114480000Y-66709363D01*
X114480000Y-66988084D01*
X114476573Y-66996357D01*
X114469407Y-66999731D01*
X114440764Y-67002453D01*
X114440737Y-67002457D01*
X114401492Y-67008437D01*
X114362224Y-67016672D01*
X114362201Y-67016677D01*
X114322951Y-67027158D01*
X114283703Y-67039889D01*
X114244442Y-67054872D01*
X114205200Y-67072097D01*
X114205144Y-67072123D01*
X114165933Y-67091582D01*
X114165917Y-67091591D01*
X114126660Y-67113322D01*
X114091910Y-67134551D01*
X114083064Y-67135940D01*
X114082355Y-67135745D01*
X113545125Y-66969649D01*
X113190153Y-66859901D01*
X113183262Y-66854184D01*
X113182432Y-66845268D01*
X113188150Y-66838376D01*
X113190152Y-66837546D01*
X114082356Y-66561702D01*
X114091272Y-66562532D01*
G37*
%TD.AperFunction*%
%TD*%
%TA.AperFunction,Conductor*%
%TO.N,/A5*%
G36*
X114519704Y-66582355D02*
G01*
X114519736Y-66582429D01*
X114629115Y-66844213D01*
X114629142Y-66853168D01*
X114629115Y-66853235D01*
X114519736Y-67115018D01*
X114513384Y-67121330D01*
X114504429Y-67121303D01*
X114489674Y-67115018D01*
X114452153Y-67099037D01*
X114451990Y-67098966D01*
X114399851Y-67075814D01*
X114399839Y-67075802D01*
X114399837Y-67075808D01*
X114355583Y-67056083D01*
X114316555Y-67039671D01*
X114316542Y-67039666D01*
X114316539Y-67039665D01*
X114303781Y-67035034D01*
X114279757Y-67026315D01*
X114242398Y-67015844D01*
X114201610Y-67008052D01*
X114154513Y-67002734D01*
X114098273Y-66999692D01*
X114041534Y-66998887D01*
X114033310Y-66995343D01*
X114030000Y-66987188D01*
X114030000Y-66710259D01*
X114033427Y-66701986D01*
X114041533Y-66698560D01*
X114087693Y-66697904D01*
X114098273Y-66697754D01*
X114108498Y-66697200D01*
X114154520Y-66694712D01*
X114201609Y-66689395D01*
X114242400Y-66681602D01*
X114279756Y-66671131D01*
X114316539Y-66657782D01*
X114355612Y-66641351D01*
X114399824Y-66621643D01*
X114399839Y-66621643D01*
X114399837Y-66621638D01*
X114452077Y-66598442D01*
X114504356Y-66576175D01*
X114513310Y-66576087D01*
X114519704Y-66582355D01*
G37*
%TD.AperFunction*%
%TD*%
%TA.AperFunction,Conductor*%
%TO.N,/D2*%
G36*
X114091272Y-76722532D02*
G01*
X114091899Y-76722889D01*
X114126662Y-76744125D01*
X114126670Y-76744129D01*
X114126671Y-76744130D01*
X114165917Y-76765855D01*
X114165933Y-76765864D01*
X114205144Y-76785323D01*
X114205170Y-76785335D01*
X114205182Y-76785341D01*
X114244441Y-76802574D01*
X114283701Y-76817558D01*
X114312856Y-76827013D01*
X114322951Y-76830288D01*
X114322955Y-76830289D01*
X114322961Y-76830291D01*
X114362220Y-76840774D01*
X114401480Y-76849007D01*
X114401489Y-76849008D01*
X114401492Y-76849009D01*
X114440720Y-76854987D01*
X114440740Y-76854990D01*
X114440754Y-76854991D01*
X114440775Y-76854994D01*
X114457116Y-76856547D01*
X114469408Y-76857716D01*
X114477319Y-76861910D01*
X114480000Y-76869363D01*
X114480000Y-77148084D01*
X114476573Y-77156357D01*
X114469407Y-77159731D01*
X114440764Y-77162453D01*
X114440737Y-77162457D01*
X114401492Y-77168437D01*
X114362224Y-77176672D01*
X114362201Y-77176677D01*
X114322951Y-77187158D01*
X114283703Y-77199889D01*
X114244442Y-77214872D01*
X114205200Y-77232097D01*
X114205144Y-77232123D01*
X114165933Y-77251582D01*
X114165917Y-77251591D01*
X114126660Y-77273322D01*
X114091910Y-77294551D01*
X114083064Y-77295940D01*
X114082355Y-77295745D01*
X113545125Y-77129649D01*
X113190153Y-77019901D01*
X113183262Y-77014184D01*
X113182432Y-77005268D01*
X113188150Y-76998376D01*
X113190152Y-76997546D01*
X114082356Y-76721702D01*
X114091272Y-76722532D01*
G37*
%TD.AperFunction*%
%TD*%
%TA.AperFunction,Conductor*%
%TO.N,/D2*%
G36*
X115472204Y-76742355D02*
G01*
X115472236Y-76742429D01*
X115581615Y-77004213D01*
X115581642Y-77013168D01*
X115581615Y-77013235D01*
X115472236Y-77275018D01*
X115465884Y-77281330D01*
X115456929Y-77281303D01*
X115442174Y-77275018D01*
X115404653Y-77259037D01*
X115404490Y-77258966D01*
X115352351Y-77235814D01*
X115352339Y-77235802D01*
X115352337Y-77235808D01*
X115308083Y-77216083D01*
X115269055Y-77199671D01*
X115269042Y-77199666D01*
X115269039Y-77199665D01*
X115256281Y-77195034D01*
X115232257Y-77186315D01*
X115194898Y-77175844D01*
X115154110Y-77168052D01*
X115107013Y-77162734D01*
X115050773Y-77159692D01*
X114994034Y-77158887D01*
X114985810Y-77155343D01*
X114982500Y-77147188D01*
X114982500Y-76870259D01*
X114985927Y-76861986D01*
X114994033Y-76858560D01*
X115040193Y-76857904D01*
X115050773Y-76857754D01*
X115060998Y-76857200D01*
X115107020Y-76854712D01*
X115154109Y-76849395D01*
X115194900Y-76841602D01*
X115232256Y-76831131D01*
X115269039Y-76817782D01*
X115308112Y-76801351D01*
X115352324Y-76781643D01*
X115352339Y-76781643D01*
X115352337Y-76781638D01*
X115404577Y-76758442D01*
X115456856Y-76736175D01*
X115465810Y-76736087D01*
X115472204Y-76742355D01*
G37*
%TD.AperFunction*%
%TD*%
%TA.AperFunction,Conductor*%
%TO.N,/A10*%
G36*
X125421557Y-70488439D02*
G01*
X125425014Y-70496699D01*
X125425014Y-70496727D01*
X125425993Y-71280139D01*
X125422576Y-71288417D01*
X125422559Y-71288434D01*
X124868434Y-71841581D01*
X124860158Y-71845001D01*
X124851888Y-71841567D01*
X124851131Y-71840732D01*
X124744285Y-71710797D01*
X124743060Y-71708986D01*
X124665177Y-71566788D01*
X124664459Y-71565209D01*
X124612366Y-71423654D01*
X124612047Y-71422650D01*
X124575227Y-71285662D01*
X124575176Y-71285464D01*
X124543178Y-71157559D01*
X124543174Y-71157543D01*
X124505438Y-71043274D01*
X124451345Y-70947018D01*
X124370244Y-70873014D01*
X124251483Y-70825503D01*
X124251480Y-70825502D01*
X124094943Y-70809781D01*
X124087054Y-70805545D01*
X124084412Y-70798140D01*
X124084412Y-70520381D01*
X124087839Y-70512108D01*
X124096067Y-70508681D01*
X124236323Y-70508169D01*
X124266783Y-70508059D01*
X124416932Y-70506256D01*
X124540046Y-70503659D01*
X124542919Y-70503599D01*
X124652836Y-70500373D01*
X124754705Y-70496862D01*
X124856575Y-70493350D01*
X124966492Y-70490124D01*
X124966493Y-70490161D01*
X124966584Y-70490122D01*
X125092503Y-70487467D01*
X125242657Y-70485664D01*
X125413272Y-70485042D01*
X125421557Y-70488439D01*
G37*
%TD.AperFunction*%
%TD*%
%TA.AperFunction,Conductor*%
%TO.N,/A10*%
G36*
X123391272Y-70372532D02*
G01*
X123391899Y-70372889D01*
X123426662Y-70394125D01*
X123426670Y-70394129D01*
X123426671Y-70394130D01*
X123465917Y-70415855D01*
X123465933Y-70415864D01*
X123505144Y-70435323D01*
X123505170Y-70435335D01*
X123505182Y-70435341D01*
X123544441Y-70452574D01*
X123583701Y-70467558D01*
X123612856Y-70477013D01*
X123622951Y-70480288D01*
X123622955Y-70480289D01*
X123622961Y-70480291D01*
X123662220Y-70490774D01*
X123701480Y-70499007D01*
X123701489Y-70499008D01*
X123701492Y-70499009D01*
X123740720Y-70504987D01*
X123740740Y-70504990D01*
X123740754Y-70504991D01*
X123740775Y-70504994D01*
X123757116Y-70506547D01*
X123769408Y-70507716D01*
X123777319Y-70511910D01*
X123780000Y-70519363D01*
X123780000Y-70798084D01*
X123776573Y-70806357D01*
X123769407Y-70809731D01*
X123740764Y-70812453D01*
X123740737Y-70812457D01*
X123701492Y-70818437D01*
X123662224Y-70826672D01*
X123662201Y-70826677D01*
X123622951Y-70837158D01*
X123583703Y-70849889D01*
X123544442Y-70864872D01*
X123505200Y-70882097D01*
X123505144Y-70882123D01*
X123465933Y-70901582D01*
X123465917Y-70901591D01*
X123426660Y-70923322D01*
X123391910Y-70944551D01*
X123383064Y-70945940D01*
X123382355Y-70945745D01*
X122845125Y-70779649D01*
X122490153Y-70669901D01*
X122483262Y-70664184D01*
X122482432Y-70655268D01*
X122488150Y-70648376D01*
X122490152Y-70647546D01*
X123382356Y-70371702D01*
X123391272Y-70372532D01*
G37*
%TD.AperFunction*%
%TD*%
%TA.AperFunction,Conductor*%
%TO.N,/~{CE}*%
G36*
X121527640Y-71641701D02*
G01*
X121733480Y-71705341D01*
X122419845Y-71917546D01*
X122426737Y-71923264D01*
X122427567Y-71932180D01*
X122421849Y-71939072D01*
X122419845Y-71939902D01*
X121527643Y-72215745D01*
X121518727Y-72214915D01*
X121518087Y-72214551D01*
X121483327Y-72193316D01*
X121444081Y-72171591D01*
X121444065Y-72171582D01*
X121404854Y-72152123D01*
X121404798Y-72152097D01*
X121365556Y-72134872D01*
X121326295Y-72119889D01*
X121287047Y-72107158D01*
X121247797Y-72096677D01*
X121247774Y-72096672D01*
X121208506Y-72088437D01*
X121169261Y-72082457D01*
X121169236Y-72082454D01*
X121140592Y-72079730D01*
X121132681Y-72075536D01*
X121130000Y-72068083D01*
X121130000Y-71789363D01*
X121133427Y-71781090D01*
X121140591Y-71777716D01*
X121153594Y-71776479D01*
X121169223Y-71774994D01*
X121169240Y-71774991D01*
X121169259Y-71774990D01*
X121208519Y-71769007D01*
X121247779Y-71760774D01*
X121287038Y-71750291D01*
X121326298Y-71737558D01*
X121365558Y-71722574D01*
X121404817Y-71705341D01*
X121404842Y-71705328D01*
X121404854Y-71705323D01*
X121444065Y-71685864D01*
X121444065Y-71685863D01*
X121444077Y-71685858D01*
X121483337Y-71664125D01*
X121518089Y-71642895D01*
X121526934Y-71641507D01*
X121527640Y-71641701D01*
G37*
%TD.AperFunction*%
%TD*%
%TA.AperFunction,Conductor*%
%TO.N,/~{CE}*%
G36*
X121105567Y-71656143D02*
G01*
X121157922Y-71678442D01*
X121210162Y-71701638D01*
X121210160Y-71701640D01*
X121210172Y-71701642D01*
X121254387Y-71721351D01*
X121293460Y-71737782D01*
X121330243Y-71751131D01*
X121367599Y-71761602D01*
X121408390Y-71769395D01*
X121455479Y-71774712D01*
X121492978Y-71776740D01*
X121511725Y-71777754D01*
X121526035Y-71777957D01*
X121568466Y-71778560D01*
X121576690Y-71782104D01*
X121580000Y-71790259D01*
X121580000Y-72067188D01*
X121576573Y-72075461D01*
X121568466Y-72078887D01*
X121511725Y-72079692D01*
X121455487Y-72082734D01*
X121455483Y-72082734D01*
X121408388Y-72088052D01*
X121367600Y-72095844D01*
X121330241Y-72106315D01*
X121293443Y-72119671D01*
X121254415Y-72136083D01*
X121210162Y-72155808D01*
X121210147Y-72155814D01*
X121158008Y-72178966D01*
X121157845Y-72179037D01*
X121105644Y-72201271D01*
X121096689Y-72201360D01*
X121090295Y-72195092D01*
X121090263Y-72195018D01*
X121083586Y-72179037D01*
X120980883Y-71933233D01*
X120980857Y-71924280D01*
X120980862Y-71924266D01*
X121090264Y-71662427D01*
X121096615Y-71656117D01*
X121105567Y-71656143D01*
G37*
%TD.AperFunction*%
%TD*%
%TA.AperFunction,Conductor*%
%TO.N,/A6*%
G36*
X114091272Y-65292532D02*
G01*
X114091899Y-65292889D01*
X114126662Y-65314125D01*
X114126670Y-65314129D01*
X114126671Y-65314130D01*
X114165917Y-65335855D01*
X114165933Y-65335864D01*
X114205144Y-65355323D01*
X114205170Y-65355335D01*
X114205182Y-65355341D01*
X114244441Y-65372574D01*
X114283701Y-65387558D01*
X114312856Y-65397013D01*
X114322951Y-65400288D01*
X114322955Y-65400289D01*
X114322961Y-65400291D01*
X114362220Y-65410774D01*
X114401480Y-65419007D01*
X114401489Y-65419008D01*
X114401492Y-65419009D01*
X114440720Y-65424987D01*
X114440740Y-65424990D01*
X114440754Y-65424991D01*
X114440775Y-65424994D01*
X114457116Y-65426547D01*
X114469408Y-65427716D01*
X114477319Y-65431910D01*
X114480000Y-65439363D01*
X114480000Y-65718084D01*
X114476573Y-65726357D01*
X114469407Y-65729731D01*
X114440764Y-65732453D01*
X114440737Y-65732457D01*
X114401492Y-65738437D01*
X114362224Y-65746672D01*
X114362201Y-65746677D01*
X114322951Y-65757158D01*
X114283703Y-65769889D01*
X114244442Y-65784872D01*
X114205200Y-65802097D01*
X114205144Y-65802123D01*
X114165933Y-65821582D01*
X114165917Y-65821591D01*
X114126660Y-65843322D01*
X114091910Y-65864551D01*
X114083064Y-65865940D01*
X114082355Y-65865745D01*
X113545125Y-65699649D01*
X113190153Y-65589901D01*
X113183262Y-65584184D01*
X113182432Y-65575268D01*
X113188150Y-65568376D01*
X113190152Y-65567546D01*
X114082356Y-65291702D01*
X114091272Y-65292532D01*
G37*
%TD.AperFunction*%
%TD*%
%TA.AperFunction,Conductor*%
%TO.N,/A6*%
G36*
X114519704Y-65312355D02*
G01*
X114519736Y-65312429D01*
X114629115Y-65574213D01*
X114629142Y-65583168D01*
X114629115Y-65583235D01*
X114519736Y-65845018D01*
X114513384Y-65851330D01*
X114504429Y-65851303D01*
X114489674Y-65845018D01*
X114452153Y-65829037D01*
X114451990Y-65828966D01*
X114399851Y-65805814D01*
X114399839Y-65805802D01*
X114399837Y-65805808D01*
X114355583Y-65786083D01*
X114316555Y-65769671D01*
X114316542Y-65769666D01*
X114316539Y-65769665D01*
X114303781Y-65765034D01*
X114279757Y-65756315D01*
X114242398Y-65745844D01*
X114201610Y-65738052D01*
X114154513Y-65732734D01*
X114098273Y-65729692D01*
X114041534Y-65728887D01*
X114033310Y-65725343D01*
X114030000Y-65717188D01*
X114030000Y-65440259D01*
X114033427Y-65431986D01*
X114041533Y-65428560D01*
X114087693Y-65427904D01*
X114098273Y-65427754D01*
X114108498Y-65427200D01*
X114154520Y-65424712D01*
X114201609Y-65419395D01*
X114242400Y-65411602D01*
X114279756Y-65401131D01*
X114316539Y-65387782D01*
X114355612Y-65371351D01*
X114399824Y-65351643D01*
X114399839Y-65351643D01*
X114399837Y-65351638D01*
X114452077Y-65328442D01*
X114504356Y-65306175D01*
X114513310Y-65306087D01*
X114519704Y-65312355D01*
G37*
%TD.AperFunction*%
%TD*%
%TA.AperFunction,Conductor*%
%TO.N,/D0*%
G36*
X114091272Y-74182532D02*
G01*
X114091899Y-74182889D01*
X114126662Y-74204125D01*
X114126670Y-74204129D01*
X114126671Y-74204130D01*
X114165917Y-74225855D01*
X114165933Y-74225864D01*
X114205144Y-74245323D01*
X114205170Y-74245335D01*
X114205182Y-74245341D01*
X114244441Y-74262574D01*
X114283701Y-74277558D01*
X114312856Y-74287013D01*
X114322951Y-74290288D01*
X114322955Y-74290289D01*
X114322961Y-74290291D01*
X114362220Y-74300774D01*
X114401480Y-74309007D01*
X114401489Y-74309008D01*
X114401492Y-74309009D01*
X114440720Y-74314987D01*
X114440740Y-74314990D01*
X114440754Y-74314991D01*
X114440775Y-74314994D01*
X114457116Y-74316547D01*
X114469408Y-74317716D01*
X114477319Y-74321910D01*
X114480000Y-74329363D01*
X114480000Y-74608084D01*
X114476573Y-74616357D01*
X114469407Y-74619731D01*
X114440764Y-74622453D01*
X114440737Y-74622457D01*
X114401492Y-74628437D01*
X114362224Y-74636672D01*
X114362201Y-74636677D01*
X114322951Y-74647158D01*
X114283703Y-74659889D01*
X114244442Y-74674872D01*
X114205200Y-74692097D01*
X114205144Y-74692123D01*
X114165933Y-74711582D01*
X114165917Y-74711591D01*
X114126660Y-74733322D01*
X114091910Y-74754551D01*
X114083064Y-74755940D01*
X114082355Y-74755745D01*
X113545125Y-74589649D01*
X113190153Y-74479901D01*
X113183262Y-74474184D01*
X113182432Y-74465268D01*
X113188150Y-74458376D01*
X113190152Y-74457546D01*
X114082356Y-74181702D01*
X114091272Y-74182532D01*
G37*
%TD.AperFunction*%
%TD*%
%TA.AperFunction,Conductor*%
%TO.N,/D0*%
G36*
X114519704Y-74202355D02*
G01*
X114519736Y-74202429D01*
X114629115Y-74464213D01*
X114629142Y-74473168D01*
X114629115Y-74473235D01*
X114519736Y-74735018D01*
X114513384Y-74741330D01*
X114504429Y-74741303D01*
X114489674Y-74735018D01*
X114452153Y-74719037D01*
X114451990Y-74718966D01*
X114399851Y-74695814D01*
X114399839Y-74695802D01*
X114399837Y-74695808D01*
X114355583Y-74676083D01*
X114316555Y-74659671D01*
X114316542Y-74659666D01*
X114316539Y-74659665D01*
X114303781Y-74655034D01*
X114279757Y-74646315D01*
X114242398Y-74635844D01*
X114201610Y-74628052D01*
X114154513Y-74622734D01*
X114098273Y-74619692D01*
X114041534Y-74618887D01*
X114033310Y-74615343D01*
X114030000Y-74607188D01*
X114030000Y-74330259D01*
X114033427Y-74321986D01*
X114041533Y-74318560D01*
X114087693Y-74317904D01*
X114098273Y-74317754D01*
X114108498Y-74317200D01*
X114154520Y-74314712D01*
X114201609Y-74309395D01*
X114242400Y-74301602D01*
X114279756Y-74291131D01*
X114316539Y-74277782D01*
X114355612Y-74261351D01*
X114399824Y-74241643D01*
X114399839Y-74241643D01*
X114399837Y-74241638D01*
X114452077Y-74218442D01*
X114504356Y-74196175D01*
X114513310Y-74196087D01*
X114519704Y-74202355D01*
G37*
%TD.AperFunction*%
%TD*%
%TA.AperFunction,Conductor*%
%TO.N,/D7*%
G36*
X121527640Y-72911701D02*
G01*
X121733480Y-72975341D01*
X122419845Y-73187546D01*
X122426737Y-73193264D01*
X122427567Y-73202180D01*
X122421849Y-73209072D01*
X122419845Y-73209902D01*
X121527643Y-73485745D01*
X121518727Y-73484915D01*
X121518087Y-73484551D01*
X121483327Y-73463316D01*
X121444081Y-73441591D01*
X121444065Y-73441582D01*
X121404854Y-73422123D01*
X121404798Y-73422097D01*
X121365556Y-73404872D01*
X121326295Y-73389889D01*
X121287047Y-73377158D01*
X121247797Y-73366677D01*
X121247774Y-73366672D01*
X121208506Y-73358437D01*
X121169261Y-73352457D01*
X121169236Y-73352454D01*
X121140592Y-73349730D01*
X121132681Y-73345536D01*
X121130000Y-73338083D01*
X121130000Y-73059363D01*
X121133427Y-73051090D01*
X121140591Y-73047716D01*
X121153594Y-73046479D01*
X121169223Y-73044994D01*
X121169240Y-73044991D01*
X121169259Y-73044990D01*
X121208519Y-73039007D01*
X121247779Y-73030774D01*
X121287038Y-73020291D01*
X121326298Y-73007558D01*
X121365558Y-72992574D01*
X121404817Y-72975341D01*
X121404842Y-72975328D01*
X121404854Y-72975323D01*
X121444065Y-72955864D01*
X121444065Y-72955863D01*
X121444077Y-72955858D01*
X121483337Y-72934125D01*
X121518089Y-72912895D01*
X121526934Y-72911507D01*
X121527640Y-72911701D01*
G37*
%TD.AperFunction*%
%TD*%
%TA.AperFunction,Conductor*%
%TO.N,/D7*%
G36*
X121105567Y-72926143D02*
G01*
X121157922Y-72948442D01*
X121210162Y-72971638D01*
X121210160Y-72971640D01*
X121210172Y-72971642D01*
X121254387Y-72991351D01*
X121293460Y-73007782D01*
X121330243Y-73021131D01*
X121367599Y-73031602D01*
X121408390Y-73039395D01*
X121455479Y-73044712D01*
X121492978Y-73046740D01*
X121511725Y-73047754D01*
X121526035Y-73047957D01*
X121568466Y-73048560D01*
X121576690Y-73052104D01*
X121580000Y-73060259D01*
X121580000Y-73337188D01*
X121576573Y-73345461D01*
X121568466Y-73348887D01*
X121511725Y-73349692D01*
X121455487Y-73352734D01*
X121455483Y-73352734D01*
X121408388Y-73358052D01*
X121367600Y-73365844D01*
X121330241Y-73376315D01*
X121293443Y-73389671D01*
X121254415Y-73406083D01*
X121210162Y-73425808D01*
X121210147Y-73425814D01*
X121158008Y-73448966D01*
X121157845Y-73449037D01*
X121105644Y-73471271D01*
X121096689Y-73471360D01*
X121090295Y-73465092D01*
X121090263Y-73465018D01*
X121083586Y-73449037D01*
X120980883Y-73203233D01*
X120980857Y-73194280D01*
X120980862Y-73194266D01*
X121090264Y-72932427D01*
X121096615Y-72926117D01*
X121105567Y-72926143D01*
G37*
%TD.AperFunction*%
%TD*%
%TA.AperFunction,Conductor*%
%TO.N,/A8*%
G36*
X121527640Y-65291701D02*
G01*
X121733480Y-65355341D01*
X122419845Y-65567546D01*
X122426737Y-65573264D01*
X122427567Y-65582180D01*
X122421849Y-65589072D01*
X122419845Y-65589902D01*
X121527643Y-65865745D01*
X121518727Y-65864915D01*
X121518087Y-65864551D01*
X121483327Y-65843316D01*
X121444081Y-65821591D01*
X121444065Y-65821582D01*
X121404854Y-65802123D01*
X121404798Y-65802097D01*
X121365556Y-65784872D01*
X121326295Y-65769889D01*
X121287047Y-65757158D01*
X121247797Y-65746677D01*
X121247774Y-65746672D01*
X121208506Y-65738437D01*
X121169261Y-65732457D01*
X121169236Y-65732454D01*
X121140592Y-65729730D01*
X121132681Y-65725536D01*
X121130000Y-65718083D01*
X121130000Y-65439363D01*
X121133427Y-65431090D01*
X121140591Y-65427716D01*
X121153594Y-65426479D01*
X121169223Y-65424994D01*
X121169240Y-65424991D01*
X121169259Y-65424990D01*
X121208519Y-65419007D01*
X121247779Y-65410774D01*
X121287038Y-65400291D01*
X121326298Y-65387558D01*
X121365558Y-65372574D01*
X121404817Y-65355341D01*
X121404842Y-65355328D01*
X121404854Y-65355323D01*
X121444065Y-65335864D01*
X121444065Y-65335863D01*
X121444077Y-65335858D01*
X121483337Y-65314125D01*
X121518089Y-65292895D01*
X121526934Y-65291507D01*
X121527640Y-65291701D01*
G37*
%TD.AperFunction*%
%TD*%
%TA.AperFunction,Conductor*%
%TO.N,/A8*%
G36*
X121105567Y-65306143D02*
G01*
X121157922Y-65328442D01*
X121210162Y-65351638D01*
X121210160Y-65351640D01*
X121210172Y-65351642D01*
X121254387Y-65371351D01*
X121293460Y-65387782D01*
X121330243Y-65401131D01*
X121367599Y-65411602D01*
X121408390Y-65419395D01*
X121455479Y-65424712D01*
X121492978Y-65426740D01*
X121511725Y-65427754D01*
X121526035Y-65427957D01*
X121568466Y-65428560D01*
X121576690Y-65432104D01*
X121580000Y-65440259D01*
X121580000Y-65717188D01*
X121576573Y-65725461D01*
X121568466Y-65728887D01*
X121511725Y-65729692D01*
X121455487Y-65732734D01*
X121455483Y-65732734D01*
X121408388Y-65738052D01*
X121367600Y-65745844D01*
X121330241Y-65756315D01*
X121293443Y-65769671D01*
X121254415Y-65786083D01*
X121210162Y-65805808D01*
X121210147Y-65805814D01*
X121158008Y-65828966D01*
X121157845Y-65829037D01*
X121105644Y-65851271D01*
X121096689Y-65851360D01*
X121090295Y-65845092D01*
X121090263Y-65845018D01*
X121083586Y-65829037D01*
X120980883Y-65583233D01*
X120980857Y-65574280D01*
X120980862Y-65574266D01*
X121090264Y-65312427D01*
X121096615Y-65306117D01*
X121105567Y-65306143D01*
G37*
%TD.AperFunction*%
%TD*%
%TA.AperFunction,Conductor*%
%TO.N,/A0*%
G36*
X114091272Y-72912532D02*
G01*
X114091899Y-72912889D01*
X114126662Y-72934125D01*
X114126670Y-72934129D01*
X114126671Y-72934130D01*
X114165917Y-72955855D01*
X114165933Y-72955864D01*
X114205144Y-72975323D01*
X114205170Y-72975335D01*
X114205182Y-72975341D01*
X114244441Y-72992574D01*
X114283701Y-73007558D01*
X114312856Y-73017013D01*
X114322951Y-73020288D01*
X114322955Y-73020289D01*
X114322961Y-73020291D01*
X114362220Y-73030774D01*
X114401480Y-73039007D01*
X114401489Y-73039008D01*
X114401492Y-73039009D01*
X114440720Y-73044987D01*
X114440740Y-73044990D01*
X114440754Y-73044991D01*
X114440775Y-73044994D01*
X114457116Y-73046547D01*
X114469408Y-73047716D01*
X114477319Y-73051910D01*
X114480000Y-73059363D01*
X114480000Y-73338084D01*
X114476573Y-73346357D01*
X114469407Y-73349731D01*
X114440764Y-73352453D01*
X114440737Y-73352457D01*
X114401492Y-73358437D01*
X114362224Y-73366672D01*
X114362201Y-73366677D01*
X114322951Y-73377158D01*
X114283703Y-73389889D01*
X114244442Y-73404872D01*
X114205200Y-73422097D01*
X114205144Y-73422123D01*
X114165933Y-73441582D01*
X114165917Y-73441591D01*
X114126660Y-73463322D01*
X114091910Y-73484551D01*
X114083064Y-73485940D01*
X114082355Y-73485745D01*
X113545125Y-73319649D01*
X113190153Y-73209901D01*
X113183262Y-73204184D01*
X113182432Y-73195268D01*
X113188150Y-73188376D01*
X113190152Y-73187546D01*
X114082356Y-72911702D01*
X114091272Y-72912532D01*
G37*
%TD.AperFunction*%
%TD*%
%TA.AperFunction,Conductor*%
%TO.N,/A0*%
G36*
X114519704Y-72932355D02*
G01*
X114519736Y-72932429D01*
X114629115Y-73194213D01*
X114629142Y-73203168D01*
X114629115Y-73203235D01*
X114519736Y-73465018D01*
X114513384Y-73471330D01*
X114504429Y-73471303D01*
X114489674Y-73465018D01*
X114452153Y-73449037D01*
X114451990Y-73448966D01*
X114399851Y-73425814D01*
X114399839Y-73425802D01*
X114399837Y-73425808D01*
X114355583Y-73406083D01*
X114316555Y-73389671D01*
X114316542Y-73389666D01*
X114316539Y-73389665D01*
X114303781Y-73385034D01*
X114279757Y-73376315D01*
X114242398Y-73365844D01*
X114201610Y-73358052D01*
X114154513Y-73352734D01*
X114098273Y-73349692D01*
X114041534Y-73348887D01*
X114033310Y-73345343D01*
X114030000Y-73337188D01*
X114030000Y-73060259D01*
X114033427Y-73051986D01*
X114041533Y-73048560D01*
X114087693Y-73047904D01*
X114098273Y-73047754D01*
X114108498Y-73047200D01*
X114154520Y-73044712D01*
X114201609Y-73039395D01*
X114242400Y-73031602D01*
X114279756Y-73021131D01*
X114316539Y-73007782D01*
X114355612Y-72991351D01*
X114399824Y-72971643D01*
X114399839Y-72971643D01*
X114399837Y-72971638D01*
X114452077Y-72948442D01*
X114504356Y-72926175D01*
X114513310Y-72926087D01*
X114519704Y-72932355D01*
G37*
%TD.AperFunction*%
%TD*%
%TA.AperFunction,Conductor*%
%TO.N,/D1*%
G36*
X114091272Y-75452532D02*
G01*
X114091899Y-75452889D01*
X114126662Y-75474125D01*
X114126670Y-75474129D01*
X114126671Y-75474130D01*
X114165917Y-75495855D01*
X114165933Y-75495864D01*
X114205144Y-75515323D01*
X114205170Y-75515335D01*
X114205182Y-75515341D01*
X114244441Y-75532574D01*
X114283701Y-75547558D01*
X114312856Y-75557013D01*
X114322951Y-75560288D01*
X114322955Y-75560289D01*
X114322961Y-75560291D01*
X114362220Y-75570774D01*
X114401480Y-75579007D01*
X114401489Y-75579008D01*
X114401492Y-75579009D01*
X114440720Y-75584987D01*
X114440740Y-75584990D01*
X114440754Y-75584991D01*
X114440775Y-75584994D01*
X114457116Y-75586547D01*
X114469408Y-75587716D01*
X114477319Y-75591910D01*
X114480000Y-75599363D01*
X114480000Y-75878084D01*
X114476573Y-75886357D01*
X114469407Y-75889731D01*
X114440764Y-75892453D01*
X114440737Y-75892457D01*
X114401492Y-75898437D01*
X114362224Y-75906672D01*
X114362201Y-75906677D01*
X114322951Y-75917158D01*
X114283703Y-75929889D01*
X114244442Y-75944872D01*
X114205200Y-75962097D01*
X114205144Y-75962123D01*
X114165933Y-75981582D01*
X114165917Y-75981591D01*
X114126660Y-76003322D01*
X114091910Y-76024551D01*
X114083064Y-76025940D01*
X114082355Y-76025745D01*
X113545125Y-75859649D01*
X113190153Y-75749901D01*
X113183262Y-75744184D01*
X113182432Y-75735268D01*
X113188150Y-75728376D01*
X113190152Y-75727546D01*
X114082356Y-75451702D01*
X114091272Y-75452532D01*
G37*
%TD.AperFunction*%
%TD*%
%TA.AperFunction,Conductor*%
%TO.N,/D1*%
G36*
X114519704Y-75472355D02*
G01*
X114519736Y-75472429D01*
X114629115Y-75734213D01*
X114629142Y-75743168D01*
X114629115Y-75743235D01*
X114519736Y-76005018D01*
X114513384Y-76011330D01*
X114504429Y-76011303D01*
X114489674Y-76005018D01*
X114452153Y-75989037D01*
X114451990Y-75988966D01*
X114399851Y-75965814D01*
X114399839Y-75965802D01*
X114399837Y-75965808D01*
X114355583Y-75946083D01*
X114316555Y-75929671D01*
X114316542Y-75929666D01*
X114316539Y-75929665D01*
X114303781Y-75925034D01*
X114279757Y-75916315D01*
X114242398Y-75905844D01*
X114201610Y-75898052D01*
X114154513Y-75892734D01*
X114098273Y-75889692D01*
X114041534Y-75888887D01*
X114033310Y-75885343D01*
X114030000Y-75877188D01*
X114030000Y-75600259D01*
X114033427Y-75591986D01*
X114041533Y-75588560D01*
X114087693Y-75587904D01*
X114098273Y-75587754D01*
X114108498Y-75587200D01*
X114154520Y-75584712D01*
X114201609Y-75579395D01*
X114242400Y-75571602D01*
X114279756Y-75561131D01*
X114316539Y-75547782D01*
X114355612Y-75531351D01*
X114399824Y-75511643D01*
X114399839Y-75511643D01*
X114399837Y-75511638D01*
X114452077Y-75488442D01*
X114504356Y-75466175D01*
X114513310Y-75466087D01*
X114519704Y-75472355D01*
G37*
%TD.AperFunction*%
%TD*%
%TA.AperFunction,Conductor*%
%TO.N,/D6*%
G36*
X121527640Y-74181701D02*
G01*
X121733480Y-74245341D01*
X122419845Y-74457546D01*
X122426737Y-74463264D01*
X122427567Y-74472180D01*
X122421849Y-74479072D01*
X122419845Y-74479902D01*
X121527643Y-74755745D01*
X121518727Y-74754915D01*
X121518087Y-74754551D01*
X121483327Y-74733316D01*
X121444081Y-74711591D01*
X121444065Y-74711582D01*
X121404854Y-74692123D01*
X121404798Y-74692097D01*
X121365556Y-74674872D01*
X121326295Y-74659889D01*
X121287047Y-74647158D01*
X121247797Y-74636677D01*
X121247774Y-74636672D01*
X121208506Y-74628437D01*
X121169261Y-74622457D01*
X121169236Y-74622454D01*
X121140592Y-74619730D01*
X121132681Y-74615536D01*
X121130000Y-74608083D01*
X121130000Y-74329363D01*
X121133427Y-74321090D01*
X121140591Y-74317716D01*
X121153594Y-74316479D01*
X121169223Y-74314994D01*
X121169240Y-74314991D01*
X121169259Y-74314990D01*
X121208519Y-74309007D01*
X121247779Y-74300774D01*
X121287038Y-74290291D01*
X121326298Y-74277558D01*
X121365558Y-74262574D01*
X121404817Y-74245341D01*
X121404842Y-74245328D01*
X121404854Y-74245323D01*
X121444065Y-74225864D01*
X121444065Y-74225863D01*
X121444077Y-74225858D01*
X121483337Y-74204125D01*
X121518089Y-74182895D01*
X121526934Y-74181507D01*
X121527640Y-74181701D01*
G37*
%TD.AperFunction*%
%TD*%
%TA.AperFunction,Conductor*%
%TO.N,/D6*%
G36*
X121105567Y-74196143D02*
G01*
X121157922Y-74218442D01*
X121210162Y-74241638D01*
X121210160Y-74241640D01*
X121210172Y-74241642D01*
X121254387Y-74261351D01*
X121293460Y-74277782D01*
X121330243Y-74291131D01*
X121367599Y-74301602D01*
X121408390Y-74309395D01*
X121455479Y-74314712D01*
X121492978Y-74316740D01*
X121511725Y-74317754D01*
X121526035Y-74317957D01*
X121568466Y-74318560D01*
X121576690Y-74322104D01*
X121580000Y-74330259D01*
X121580000Y-74607188D01*
X121576573Y-74615461D01*
X121568466Y-74618887D01*
X121511725Y-74619692D01*
X121455487Y-74622734D01*
X121455483Y-74622734D01*
X121408388Y-74628052D01*
X121367600Y-74635844D01*
X121330241Y-74646315D01*
X121293443Y-74659671D01*
X121254415Y-74676083D01*
X121210162Y-74695808D01*
X121210147Y-74695814D01*
X121158008Y-74718966D01*
X121157845Y-74719037D01*
X121105644Y-74741271D01*
X121096689Y-74741360D01*
X121090295Y-74735092D01*
X121090263Y-74735018D01*
X121083586Y-74719037D01*
X120980883Y-74473233D01*
X120980857Y-74464280D01*
X120980862Y-74464266D01*
X121090264Y-74202427D01*
X121096615Y-74196117D01*
X121105567Y-74196143D01*
G37*
%TD.AperFunction*%
%TD*%
%TA.AperFunction,Conductor*%
%TO.N,/~{OE}*%
G36*
X124867599Y-68187665D02*
G01*
X124868456Y-68188440D01*
X125422559Y-68741565D01*
X125425993Y-68749835D01*
X125425993Y-68749860D01*
X125425014Y-69533303D01*
X125421577Y-69541571D01*
X125413303Y-69544988D01*
X125243686Y-69544824D01*
X125243673Y-69544818D01*
X125243661Y-69544824D01*
X125094352Y-69544347D01*
X125094338Y-69544341D01*
X125094324Y-69544347D01*
X124969012Y-69543644D01*
X124969000Y-69543639D01*
X124968988Y-69543644D01*
X124859668Y-69542790D01*
X124859660Y-69542786D01*
X124859653Y-69542790D01*
X124758319Y-69541862D01*
X124656984Y-69540933D01*
X124656976Y-69540932D01*
X124557574Y-69540156D01*
X124547649Y-69540079D01*
X124547637Y-69540078D01*
X124432669Y-69539434D01*
X124422314Y-69539376D01*
X124422299Y-69539375D01*
X124279204Y-69538918D01*
X124272977Y-69538899D01*
X124272964Y-69538898D01*
X124103328Y-69538735D01*
X124095058Y-69535300D01*
X124091639Y-69527035D01*
X124091639Y-69249288D01*
X124095066Y-69241015D01*
X124102148Y-69237649D01*
X124259604Y-69221549D01*
X124378266Y-69172950D01*
X124458515Y-69097314D01*
X124511239Y-68999028D01*
X124547325Y-68882478D01*
X124577645Y-68752131D01*
X124577696Y-68751924D01*
X124613015Y-68612641D01*
X124613320Y-68611636D01*
X124664357Y-68467946D01*
X124665070Y-68466339D01*
X124742550Y-68322362D01*
X124743787Y-68320514D01*
X124851137Y-68189309D01*
X124859026Y-68185078D01*
X124867599Y-68187665D01*
G37*
%TD.AperFunction*%
%TD*%
%TA.AperFunction,Conductor*%
%TO.N,/~{OE}*%
G36*
X123391272Y-69102532D02*
G01*
X123391899Y-69102889D01*
X123426662Y-69124125D01*
X123426670Y-69124129D01*
X123426671Y-69124130D01*
X123465917Y-69145855D01*
X123465933Y-69145864D01*
X123505144Y-69165323D01*
X123505170Y-69165335D01*
X123505182Y-69165341D01*
X123544441Y-69182574D01*
X123583701Y-69197558D01*
X123612856Y-69207013D01*
X123622951Y-69210288D01*
X123622955Y-69210289D01*
X123622961Y-69210291D01*
X123662220Y-69220774D01*
X123701480Y-69229007D01*
X123701489Y-69229008D01*
X123701492Y-69229009D01*
X123740720Y-69234987D01*
X123740740Y-69234990D01*
X123740754Y-69234991D01*
X123740775Y-69234994D01*
X123757116Y-69236547D01*
X123769408Y-69237716D01*
X123777319Y-69241910D01*
X123780000Y-69249363D01*
X123780000Y-69528084D01*
X123776573Y-69536357D01*
X123769407Y-69539731D01*
X123740764Y-69542453D01*
X123740737Y-69542457D01*
X123701492Y-69548437D01*
X123662224Y-69556672D01*
X123662201Y-69556677D01*
X123622951Y-69567158D01*
X123583703Y-69579889D01*
X123544442Y-69594872D01*
X123505200Y-69612097D01*
X123505144Y-69612123D01*
X123465933Y-69631582D01*
X123465917Y-69631591D01*
X123426660Y-69653322D01*
X123391910Y-69674551D01*
X123383064Y-69675940D01*
X123382355Y-69675745D01*
X122845125Y-69509649D01*
X122490153Y-69399901D01*
X122483262Y-69394184D01*
X122482432Y-69385268D01*
X122488150Y-69378376D01*
X122490152Y-69377546D01*
X123382356Y-69101702D01*
X123391272Y-69102532D01*
G37*
%TD.AperFunction*%
%TD*%
%TA.AperFunction,Conductor*%
%TO.N,/A7*%
G36*
X114091272Y-64022532D02*
G01*
X114091899Y-64022889D01*
X114126662Y-64044125D01*
X114126670Y-64044129D01*
X114126671Y-64044130D01*
X114165917Y-64065855D01*
X114165933Y-64065864D01*
X114205144Y-64085323D01*
X114205170Y-64085335D01*
X114205182Y-64085341D01*
X114244441Y-64102574D01*
X114283701Y-64117558D01*
X114312856Y-64127013D01*
X114322951Y-64130288D01*
X114322955Y-64130289D01*
X114322961Y-64130291D01*
X114362220Y-64140774D01*
X114401480Y-64149007D01*
X114401489Y-64149008D01*
X114401492Y-64149009D01*
X114440720Y-64154987D01*
X114440740Y-64154990D01*
X114440754Y-64154991D01*
X114440775Y-64154994D01*
X114457116Y-64156547D01*
X114469408Y-64157716D01*
X114477319Y-64161910D01*
X114480000Y-64169363D01*
X114480000Y-64448084D01*
X114476573Y-64456357D01*
X114469407Y-64459731D01*
X114440764Y-64462453D01*
X114440737Y-64462457D01*
X114401492Y-64468437D01*
X114362224Y-64476672D01*
X114362201Y-64476677D01*
X114322951Y-64487158D01*
X114283703Y-64499889D01*
X114244442Y-64514872D01*
X114205200Y-64532097D01*
X114205144Y-64532123D01*
X114165933Y-64551582D01*
X114165917Y-64551591D01*
X114126660Y-64573322D01*
X114091910Y-64594551D01*
X114083064Y-64595940D01*
X114082355Y-64595745D01*
X113545125Y-64429649D01*
X113190153Y-64319901D01*
X113183262Y-64314184D01*
X113182432Y-64305268D01*
X113188150Y-64298376D01*
X113190152Y-64297546D01*
X114082356Y-64021702D01*
X114091272Y-64022532D01*
G37*
%TD.AperFunction*%
%TD*%
%TA.AperFunction,Conductor*%
%TO.N,/A7*%
G36*
X114519704Y-64042355D02*
G01*
X114519736Y-64042429D01*
X114629115Y-64304213D01*
X114629142Y-64313168D01*
X114629115Y-64313235D01*
X114519736Y-64575018D01*
X114513384Y-64581330D01*
X114504429Y-64581303D01*
X114489674Y-64575018D01*
X114452153Y-64559037D01*
X114451990Y-64558966D01*
X114399851Y-64535814D01*
X114399839Y-64535802D01*
X114399837Y-64535808D01*
X114355583Y-64516083D01*
X114316555Y-64499671D01*
X114316542Y-64499666D01*
X114316539Y-64499665D01*
X114303781Y-64495034D01*
X114279757Y-64486315D01*
X114242398Y-64475844D01*
X114201610Y-64468052D01*
X114154513Y-64462734D01*
X114098273Y-64459692D01*
X114041534Y-64458887D01*
X114033310Y-64455343D01*
X114030000Y-64447188D01*
X114030000Y-64170259D01*
X114033427Y-64161986D01*
X114041533Y-64158560D01*
X114087693Y-64157904D01*
X114098273Y-64157754D01*
X114108498Y-64157200D01*
X114154520Y-64154712D01*
X114201609Y-64149395D01*
X114242400Y-64141602D01*
X114279756Y-64131131D01*
X114316539Y-64117782D01*
X114355612Y-64101351D01*
X114399824Y-64081643D01*
X114399839Y-64081643D01*
X114399837Y-64081638D01*
X114452077Y-64058442D01*
X114504356Y-64036175D01*
X114513310Y-64036087D01*
X114519704Y-64042355D01*
G37*
%TD.AperFunction*%
%TD*%
%TA.AperFunction,Conductor*%
%TO.N,/A9*%
G36*
X121527640Y-66561701D02*
G01*
X121733480Y-66625341D01*
X122419845Y-66837546D01*
X122426737Y-66843264D01*
X122427567Y-66852180D01*
X122421849Y-66859072D01*
X122419845Y-66859902D01*
X121527643Y-67135745D01*
X121518727Y-67134915D01*
X121518087Y-67134551D01*
X121483327Y-67113316D01*
X121444081Y-67091591D01*
X121444065Y-67091582D01*
X121404854Y-67072123D01*
X121404798Y-67072097D01*
X121365556Y-67054872D01*
X121326295Y-67039889D01*
X121287047Y-67027158D01*
X121247797Y-67016677D01*
X121247774Y-67016672D01*
X121208506Y-67008437D01*
X121169261Y-67002457D01*
X121169236Y-67002454D01*
X121140592Y-66999730D01*
X121132681Y-66995536D01*
X121130000Y-66988083D01*
X121130000Y-66709363D01*
X121133427Y-66701090D01*
X121140591Y-66697716D01*
X121153594Y-66696479D01*
X121169223Y-66694994D01*
X121169240Y-66694991D01*
X121169259Y-66694990D01*
X121208519Y-66689007D01*
X121247779Y-66680774D01*
X121287038Y-66670291D01*
X121326298Y-66657558D01*
X121365558Y-66642574D01*
X121404817Y-66625341D01*
X121404842Y-66625328D01*
X121404854Y-66625323D01*
X121444065Y-66605864D01*
X121444065Y-66605863D01*
X121444077Y-66605858D01*
X121483337Y-66584125D01*
X121518089Y-66562895D01*
X121526934Y-66561507D01*
X121527640Y-66561701D01*
G37*
%TD.AperFunction*%
%TD*%
%TA.AperFunction,Conductor*%
%TO.N,/A9*%
G36*
X121105567Y-66576143D02*
G01*
X121157922Y-66598442D01*
X121210162Y-66621638D01*
X121210160Y-66621640D01*
X121210172Y-66621642D01*
X121254387Y-66641351D01*
X121293460Y-66657782D01*
X121330243Y-66671131D01*
X121367599Y-66681602D01*
X121408390Y-66689395D01*
X121455479Y-66694712D01*
X121492978Y-66696740D01*
X121511725Y-66697754D01*
X121526035Y-66697957D01*
X121568466Y-66698560D01*
X121576690Y-66702104D01*
X121580000Y-66710259D01*
X121580000Y-66987188D01*
X121576573Y-66995461D01*
X121568466Y-66998887D01*
X121511725Y-66999692D01*
X121455487Y-67002734D01*
X121455483Y-67002734D01*
X121408388Y-67008052D01*
X121367600Y-67015844D01*
X121330241Y-67026315D01*
X121293443Y-67039671D01*
X121254415Y-67056083D01*
X121210162Y-67075808D01*
X121210147Y-67075814D01*
X121158008Y-67098966D01*
X121157845Y-67099037D01*
X121105644Y-67121271D01*
X121096689Y-67121360D01*
X121090295Y-67115092D01*
X121090263Y-67115018D01*
X121083586Y-67099037D01*
X120980883Y-66853233D01*
X120980857Y-66844280D01*
X120980862Y-66844266D01*
X121090264Y-66582427D01*
X121096615Y-66576117D01*
X121105567Y-66576143D01*
G37*
%TD.AperFunction*%
%TD*%
%TA.AperFunction,Conductor*%
%TO.N,/D3*%
G36*
X122463258Y-78286009D02*
G01*
X122747827Y-78571527D01*
X122751240Y-78579805D01*
X122748879Y-78586834D01*
X122740002Y-78598595D01*
X122725001Y-78620721D01*
X122709995Y-78645104D01*
X122695008Y-78671708D01*
X122679990Y-78700616D01*
X122665003Y-78731715D01*
X122649993Y-78765112D01*
X122635003Y-78800714D01*
X122619995Y-78838608D01*
X122607842Y-78871121D01*
X122601736Y-78877670D01*
X122596883Y-78878724D01*
X122313117Y-78878724D01*
X122304844Y-78875297D01*
X122302158Y-78871121D01*
X122290004Y-78838608D01*
X122274996Y-78800714D01*
X122260005Y-78765111D01*
X122244996Y-78731715D01*
X122230009Y-78700616D01*
X122214998Y-78671721D01*
X122214991Y-78671708D01*
X122200000Y-78645099D01*
X122199990Y-78645082D01*
X122185005Y-78620731D01*
X122170004Y-78598605D01*
X122170000Y-78598599D01*
X122161119Y-78586831D01*
X122158872Y-78578167D01*
X122162170Y-78571529D01*
X122446714Y-78286037D01*
X122454981Y-78282597D01*
X122463258Y-78286009D01*
G37*
%TD.AperFunction*%
%TD*%
%TA.AperFunction,Conductor*%
%TO.N,/D3*%
G36*
X124407949Y-85295063D02*
G01*
X124541384Y-85416311D01*
X124668131Y-85506285D01*
X124784829Y-85565450D01*
X124896367Y-85601770D01*
X125007638Y-85623207D01*
X125123531Y-85637726D01*
X125248681Y-85653259D01*
X125249207Y-85653338D01*
X125388287Y-85677784D01*
X125389200Y-85677983D01*
X125547342Y-85719278D01*
X125548336Y-85719587D01*
X125719659Y-85781729D01*
X125726266Y-85787771D01*
X125726667Y-85796717D01*
X125726483Y-85797192D01*
X125427562Y-86521212D01*
X125421237Y-86527551D01*
X125421212Y-86527562D01*
X124697192Y-86826483D01*
X124688237Y-86826472D01*
X124681912Y-86820133D01*
X124681739Y-86819686D01*
X124619587Y-86648336D01*
X124619278Y-86647342D01*
X124577983Y-86489200D01*
X124577782Y-86488278D01*
X124553338Y-86349207D01*
X124553259Y-86348681D01*
X124537726Y-86223531D01*
X124523207Y-86107638D01*
X124501770Y-85996367D01*
X124465450Y-85884829D01*
X124406285Y-85768131D01*
X124316311Y-85641384D01*
X124195063Y-85507949D01*
X124192036Y-85499523D01*
X124195449Y-85491810D01*
X124391810Y-85295449D01*
X124400082Y-85292023D01*
X124407949Y-85295063D01*
G37*
%TD.AperFunction*%
%TD*%
%TA.AperFunction,Conductor*%
%TO.N,/~{WE}*%
G36*
X121527640Y-62751701D02*
G01*
X121733480Y-62815341D01*
X122419845Y-63027546D01*
X122426737Y-63033264D01*
X122427567Y-63042180D01*
X122421849Y-63049072D01*
X122419845Y-63049902D01*
X121527643Y-63325745D01*
X121518727Y-63324915D01*
X121518087Y-63324551D01*
X121483327Y-63303316D01*
X121444081Y-63281591D01*
X121444065Y-63281582D01*
X121404854Y-63262123D01*
X121404798Y-63262097D01*
X121365556Y-63244872D01*
X121326295Y-63229889D01*
X121287047Y-63217158D01*
X121247797Y-63206677D01*
X121247774Y-63206672D01*
X121208506Y-63198437D01*
X121169261Y-63192457D01*
X121169236Y-63192454D01*
X121140592Y-63189730D01*
X121132681Y-63185536D01*
X121130000Y-63178083D01*
X121130000Y-62899363D01*
X121133427Y-62891090D01*
X121140591Y-62887716D01*
X121153594Y-62886479D01*
X121169223Y-62884994D01*
X121169240Y-62884991D01*
X121169259Y-62884990D01*
X121208519Y-62879007D01*
X121247779Y-62870774D01*
X121287038Y-62860291D01*
X121326298Y-62847558D01*
X121365558Y-62832574D01*
X121404817Y-62815341D01*
X121404842Y-62815328D01*
X121404854Y-62815323D01*
X121444065Y-62795864D01*
X121444065Y-62795863D01*
X121444077Y-62795858D01*
X121483337Y-62774125D01*
X121518089Y-62752895D01*
X121526934Y-62751507D01*
X121527640Y-62751701D01*
G37*
%TD.AperFunction*%
%TD*%
%TA.AperFunction,Conductor*%
%TO.N,/~{WE}*%
G36*
X120470567Y-62766143D02*
G01*
X120522922Y-62788442D01*
X120575162Y-62811638D01*
X120575160Y-62811640D01*
X120575172Y-62811642D01*
X120619387Y-62831351D01*
X120658460Y-62847782D01*
X120695243Y-62861131D01*
X120732599Y-62871602D01*
X120773390Y-62879395D01*
X120820479Y-62884712D01*
X120857978Y-62886740D01*
X120876725Y-62887754D01*
X120891035Y-62887957D01*
X120933466Y-62888560D01*
X120941690Y-62892104D01*
X120945000Y-62900259D01*
X120945000Y-63177188D01*
X120941573Y-63185461D01*
X120933466Y-63188887D01*
X120876725Y-63189692D01*
X120820487Y-63192734D01*
X120820483Y-63192734D01*
X120773388Y-63198052D01*
X120732600Y-63205844D01*
X120695241Y-63216315D01*
X120658443Y-63229671D01*
X120619415Y-63246083D01*
X120575162Y-63265808D01*
X120575147Y-63265814D01*
X120523008Y-63288966D01*
X120522845Y-63289037D01*
X120470644Y-63311271D01*
X120461689Y-63311360D01*
X120455295Y-63305092D01*
X120455263Y-63305018D01*
X120448586Y-63289037D01*
X120345883Y-63043233D01*
X120345857Y-63034280D01*
X120345862Y-63034266D01*
X120455264Y-62772427D01*
X120461615Y-62766117D01*
X120470567Y-62766143D01*
G37*
%TD.AperFunction*%
%TD*%
%TA.AperFunction,Conductor*%
%TO.N,/A11*%
G36*
X124697165Y-65903505D02*
G01*
X125421212Y-66202437D01*
X125427551Y-66208762D01*
X125427562Y-66208787D01*
X125726483Y-66932807D01*
X125726472Y-66941762D01*
X125720133Y-66948087D01*
X125719657Y-66948271D01*
X125548358Y-67010403D01*
X125547325Y-67010724D01*
X125389209Y-67052013D01*
X125388278Y-67052216D01*
X125249237Y-67076654D01*
X125248653Y-67076742D01*
X125166678Y-67086916D01*
X125123531Y-67092272D01*
X125123523Y-67092272D01*
X125007648Y-67106789D01*
X125007632Y-67106792D01*
X124896372Y-67128227D01*
X124896361Y-67128230D01*
X124784823Y-67164550D01*
X124668135Y-67223710D01*
X124541378Y-67313691D01*
X124407950Y-67434935D01*
X124399523Y-67437963D01*
X124391809Y-67434549D01*
X124195450Y-67238190D01*
X124192023Y-67229917D01*
X124195063Y-67222050D01*
X124316311Y-67088615D01*
X124406285Y-66961868D01*
X124465450Y-66845170D01*
X124501770Y-66733631D01*
X124523207Y-66622361D01*
X124537726Y-66506468D01*
X124553259Y-66381311D01*
X124553337Y-66380796D01*
X124577784Y-66241705D01*
X124577981Y-66240802D01*
X124619273Y-66082674D01*
X124619594Y-66081643D01*
X124637756Y-66031571D01*
X124681729Y-65910340D01*
X124687771Y-65903733D01*
X124696716Y-65903332D01*
X124697165Y-65903505D01*
G37*
%TD.AperFunction*%
%TD*%
%TA.AperFunction,Conductor*%
%TO.N,/A11*%
G36*
X123617002Y-67807072D02*
G01*
X123617851Y-67807842D01*
X123813456Y-68003447D01*
X123816883Y-68011720D01*
X123813456Y-68019993D01*
X123809475Y-68022604D01*
X123791467Y-68029705D01*
X123791463Y-68029707D01*
X123756859Y-68045604D01*
X123756855Y-68045605D01*
X123722250Y-68063753D01*
X123722239Y-68063759D01*
X123687643Y-68084149D01*
X123687632Y-68084156D01*
X123653041Y-68106795D01*
X123618421Y-68131702D01*
X123583821Y-68158843D01*
X123549213Y-68188243D01*
X123514597Y-68219897D01*
X123484065Y-68249805D01*
X123475757Y-68253146D01*
X123474358Y-68253048D01*
X122536713Y-68130227D01*
X122463796Y-68120675D01*
X122456039Y-68116204D01*
X122453644Y-68109868D01*
X122434822Y-67832167D01*
X122437681Y-67823682D01*
X122445704Y-67819704D01*
X122447342Y-67819707D01*
X122551913Y-67827369D01*
X122669916Y-67833765D01*
X122787919Y-67837910D01*
X122787934Y-67837910D01*
X122787956Y-67837911D01*
X122838001Y-67838714D01*
X122905922Y-67839806D01*
X123020448Y-67839462D01*
X123023936Y-67839452D01*
X123116640Y-67837405D01*
X123141927Y-67836847D01*
X123168517Y-67835753D01*
X123259916Y-67831994D01*
X123274282Y-67831128D01*
X123377933Y-67824888D01*
X123447021Y-67819411D01*
X123495903Y-67815537D01*
X123495923Y-67815535D01*
X123495936Y-67815534D01*
X123608434Y-67804471D01*
X123617002Y-67807072D01*
G37*
%TD.AperFunction*%
%TD*%
%TA.AperFunction,Conductor*%
%TO.N,/A1*%
G36*
X111218190Y-72595450D02*
G01*
X111414549Y-72791809D01*
X111417976Y-72800082D01*
X111414935Y-72807950D01*
X111293691Y-72941378D01*
X111203710Y-73068135D01*
X111144550Y-73184823D01*
X111108230Y-73296361D01*
X111108227Y-73296372D01*
X111086792Y-73407632D01*
X111086789Y-73407648D01*
X111072272Y-73523523D01*
X111072273Y-73523524D01*
X111056742Y-73648653D01*
X111056654Y-73649237D01*
X111032216Y-73788278D01*
X111032013Y-73789209D01*
X110990724Y-73947325D01*
X110990403Y-73948358D01*
X110928271Y-74119657D01*
X110922228Y-74126266D01*
X110913283Y-74126667D01*
X110912807Y-74126483D01*
X110912281Y-74126266D01*
X110481368Y-73948358D01*
X110188787Y-73827562D01*
X110182448Y-73821237D01*
X110182437Y-73821212D01*
X110059533Y-73523524D01*
X109883516Y-73097190D01*
X109883527Y-73088237D01*
X109889866Y-73081912D01*
X109890314Y-73081738D01*
X110011571Y-73037756D01*
X110061643Y-73019594D01*
X110062676Y-73019273D01*
X110220802Y-72977981D01*
X110221705Y-72977784D01*
X110360796Y-72953337D01*
X110361311Y-72953259D01*
X110486468Y-72937726D01*
X110602361Y-72923207D01*
X110713631Y-72901770D01*
X110825170Y-72865450D01*
X110941868Y-72806285D01*
X111068615Y-72716311D01*
X111202050Y-72595063D01*
X111210476Y-72592036D01*
X111218190Y-72595450D01*
G37*
%TD.AperFunction*%
%TD*%
%TA.AperFunction,Conductor*%
%TO.N,/A1*%
G36*
X112135617Y-71784334D02*
G01*
X113146250Y-71926685D01*
X113153963Y-71931232D01*
X113156295Y-71937549D01*
X113173444Y-72215218D01*
X113170533Y-72223686D01*
X113162487Y-72227617D01*
X113160793Y-72227598D01*
X113055976Y-72218851D01*
X112937597Y-72211223D01*
X112819267Y-72205849D01*
X112700942Y-72202725D01*
X112582562Y-72201849D01*
X112464289Y-72203224D01*
X112464258Y-72203224D01*
X112464253Y-72203225D01*
X112416674Y-72204682D01*
X112345911Y-72206851D01*
X112271954Y-72210522D01*
X112227578Y-72212726D01*
X112109241Y-72220851D01*
X112109224Y-72220852D01*
X112109202Y-72220854D01*
X111996340Y-72230750D01*
X111987799Y-72228059D01*
X111987045Y-72227368D01*
X111791530Y-72031853D01*
X111788103Y-72023580D01*
X111791530Y-72015307D01*
X111795624Y-72012652D01*
X111813895Y-72005665D01*
X111849018Y-71989985D01*
X111884141Y-71972055D01*
X111919263Y-71951874D01*
X111954386Y-71929444D01*
X111989509Y-71904764D01*
X112024631Y-71877833D01*
X112059754Y-71848653D01*
X112094877Y-71817223D01*
X112125899Y-71787475D01*
X112134240Y-71784224D01*
X112135617Y-71784334D01*
G37*
%TD.AperFunction*%
%TD*%
%TA.AperFunction,Conductor*%
%TO.N,/A12*%
G36*
X114091272Y-62752532D02*
G01*
X114091899Y-62752889D01*
X114126662Y-62774125D01*
X114126670Y-62774129D01*
X114126671Y-62774130D01*
X114165917Y-62795855D01*
X114165933Y-62795864D01*
X114205144Y-62815323D01*
X114205170Y-62815335D01*
X114205182Y-62815341D01*
X114244441Y-62832574D01*
X114283701Y-62847558D01*
X114312856Y-62857013D01*
X114322951Y-62860288D01*
X114322955Y-62860289D01*
X114322961Y-62860291D01*
X114362220Y-62870774D01*
X114401480Y-62879007D01*
X114401489Y-62879008D01*
X114401492Y-62879009D01*
X114440720Y-62884987D01*
X114440740Y-62884990D01*
X114440754Y-62884991D01*
X114440775Y-62884994D01*
X114457116Y-62886547D01*
X114469408Y-62887716D01*
X114477319Y-62891910D01*
X114480000Y-62899363D01*
X114480000Y-63178084D01*
X114476573Y-63186357D01*
X114469407Y-63189731D01*
X114440764Y-63192453D01*
X114440737Y-63192457D01*
X114401492Y-63198437D01*
X114362224Y-63206672D01*
X114362201Y-63206677D01*
X114322951Y-63217158D01*
X114283703Y-63229889D01*
X114244442Y-63244872D01*
X114205200Y-63262097D01*
X114205144Y-63262123D01*
X114165933Y-63281582D01*
X114165917Y-63281591D01*
X114126660Y-63303322D01*
X114091910Y-63324551D01*
X114083064Y-63325940D01*
X114082355Y-63325745D01*
X113545125Y-63159649D01*
X113190153Y-63049901D01*
X113183262Y-63044184D01*
X113182432Y-63035268D01*
X113188150Y-63028376D01*
X113190152Y-63027546D01*
X114082356Y-62751702D01*
X114091272Y-62752532D01*
G37*
%TD.AperFunction*%
%TD*%
%TA.AperFunction,Conductor*%
%TO.N,/A12*%
G36*
X115472204Y-62772355D02*
G01*
X115472236Y-62772429D01*
X115581615Y-63034213D01*
X115581642Y-63043168D01*
X115581615Y-63043235D01*
X115472236Y-63305018D01*
X115465884Y-63311330D01*
X115456929Y-63311303D01*
X115442174Y-63305018D01*
X115404653Y-63289037D01*
X115404490Y-63288966D01*
X115352351Y-63265814D01*
X115352339Y-63265802D01*
X115352337Y-63265808D01*
X115308083Y-63246083D01*
X115269055Y-63229671D01*
X115269042Y-63229666D01*
X115269039Y-63229665D01*
X115256281Y-63225034D01*
X115232257Y-63216315D01*
X115194898Y-63205844D01*
X115154110Y-63198052D01*
X115107013Y-63192734D01*
X115050773Y-63189692D01*
X114994034Y-63188887D01*
X114985810Y-63185343D01*
X114982500Y-63177188D01*
X114982500Y-62900259D01*
X114985927Y-62891986D01*
X114994033Y-62888560D01*
X115040193Y-62887904D01*
X115050773Y-62887754D01*
X115060998Y-62887200D01*
X115107020Y-62884712D01*
X115154109Y-62879395D01*
X115194900Y-62871602D01*
X115232256Y-62861131D01*
X115269039Y-62847782D01*
X115308112Y-62831351D01*
X115352324Y-62811643D01*
X115352339Y-62811643D01*
X115352337Y-62811638D01*
X115404577Y-62788442D01*
X115456856Y-62766175D01*
X115465810Y-62766087D01*
X115472204Y-62772355D01*
G37*
%TD.AperFunction*%
%TD*%
%TA.AperFunction,Conductor*%
%TO.N,/A2*%
G36*
X110367342Y-70485664D02*
G01*
X110517495Y-70487467D01*
X110643413Y-70490122D01*
X110643505Y-70490162D01*
X110643507Y-70490124D01*
X110753424Y-70493350D01*
X110855293Y-70496862D01*
X110957163Y-70500373D01*
X111067080Y-70503599D01*
X111067127Y-70503600D01*
X111193065Y-70506256D01*
X111343215Y-70508059D01*
X111374519Y-70508173D01*
X111513932Y-70508681D01*
X111522191Y-70512138D01*
X111525588Y-70520381D01*
X111525588Y-70798140D01*
X111522161Y-70806413D01*
X111515057Y-70809781D01*
X111358517Y-70825502D01*
X111358514Y-70825503D01*
X111239756Y-70873013D01*
X111239754Y-70873014D01*
X111158654Y-70947017D01*
X111104560Y-71043274D01*
X111066827Y-71157532D01*
X111066819Y-71157559D01*
X111034822Y-71285464D01*
X111034771Y-71285662D01*
X110997951Y-71422650D01*
X110997632Y-71423654D01*
X110945538Y-71565209D01*
X110944820Y-71566788D01*
X110866938Y-71708986D01*
X110865713Y-71710797D01*
X110758868Y-71840732D01*
X110750967Y-71844946D01*
X110742400Y-71842338D01*
X110741565Y-71841581D01*
X110187440Y-71288434D01*
X110184006Y-71280164D01*
X110184006Y-71280139D01*
X110184598Y-70806413D01*
X110184985Y-70496726D01*
X110188422Y-70488459D01*
X110196698Y-70485042D01*
X110367342Y-70485664D01*
G37*
%TD.AperFunction*%
%TD*%
%TA.AperFunction,Conductor*%
%TO.N,/A2*%
G36*
X112227640Y-70371701D02*
G01*
X112433480Y-70435341D01*
X113119845Y-70647546D01*
X113126737Y-70653264D01*
X113127567Y-70662180D01*
X113121849Y-70669072D01*
X113119845Y-70669902D01*
X112227643Y-70945745D01*
X112218727Y-70944915D01*
X112218087Y-70944551D01*
X112183327Y-70923316D01*
X112144081Y-70901591D01*
X112144065Y-70901582D01*
X112104854Y-70882123D01*
X112104798Y-70882097D01*
X112065556Y-70864872D01*
X112026295Y-70849889D01*
X111987047Y-70837158D01*
X111947797Y-70826677D01*
X111947774Y-70826672D01*
X111908506Y-70818437D01*
X111869261Y-70812457D01*
X111869236Y-70812454D01*
X111840592Y-70809730D01*
X111832681Y-70805536D01*
X111830000Y-70798083D01*
X111830000Y-70519363D01*
X111833427Y-70511090D01*
X111840591Y-70507716D01*
X111853594Y-70506479D01*
X111869223Y-70504994D01*
X111869240Y-70504991D01*
X111869259Y-70504990D01*
X111908519Y-70499007D01*
X111947779Y-70490774D01*
X111987038Y-70480291D01*
X112026298Y-70467558D01*
X112065558Y-70452574D01*
X112104817Y-70435341D01*
X112104842Y-70435328D01*
X112104854Y-70435323D01*
X112144065Y-70415864D01*
X112144065Y-70415863D01*
X112144077Y-70415858D01*
X112183337Y-70394125D01*
X112218089Y-70372895D01*
X112226934Y-70371507D01*
X112227640Y-70371701D01*
G37*
%TD.AperFunction*%
%TD*%
M02*
