M48
; DRILL file {KiCad 8.0.8} date 2025-02-02T11:15:24+0100
; FORMAT={-:-/ absolute / inch / decimal}
; #@! TF.CreationDate,2025-02-02T11:15:24+01:00
; #@! TF.GenerationSoftware,Kicad,Pcbnew,8.0.8
; #@! TF.FileFunction,Plated,1,2,PTH
FMAT,2
INCH
; #@! TA.AperFunction,Plated,PTH,ViaDrill
T1C0.0118
; #@! TA.AperFunction,Plated,PTH,ComponentDrill
T2C0.0315
%
G90
G05
T1
X4.513Y-2.5318
X4.513Y-2.5818
X4.513Y-2.6318
X4.513Y-2.8818
X4.513Y-2.9318
X4.513Y-2.9818
X4.538Y-2.1565
X4.538Y-3.3565
X4.5505Y-2.4818
X4.5505Y-3.0318
X4.6692Y-2.8574
X4.6749Y-2.5068
X4.6749Y-2.6068
X4.7255Y-3.0318
X4.738Y-2.1565
X4.738Y-2.4818
X4.738Y-3.3565
X4.763Y-2.5818
X4.763Y-2.6318
X4.763Y-2.8318
X4.763Y-2.8818
X4.763Y-2.9318
X4.763Y-2.9818
T2
X4.338Y-2.1065
X4.338Y-2.2065
X4.338Y-2.3065
X4.338Y-2.4065
X4.338Y-2.5065
X4.338Y-2.6065
X4.338Y-2.7065
X4.338Y-2.8065
X4.338Y-2.9065
X4.338Y-3.0065
X4.338Y-3.1065
X4.338Y-3.2065
X4.338Y-3.3065
X4.338Y-3.4065
X4.938Y-2.1065
X4.938Y-2.2065
X4.938Y-2.3065
X4.938Y-2.4065
X4.938Y-2.5065
X4.938Y-2.6065
X4.938Y-2.7065
X4.938Y-2.8065
X4.938Y-2.9065
X4.938Y-3.0065
X4.938Y-3.1065
X4.938Y-3.2065
X4.938Y-3.3065
X4.938Y-3.4065
M30
