%TF.GenerationSoftware,KiCad,Pcbnew,8.0.8*%
%TF.CreationDate,2025-02-02T11:15:25+01:00*%
%TF.ProjectId,NoTimekeeper,4e6f5469-6d65-46b6-9565-7065722e6b69,rev?*%
%TF.SameCoordinates,Original*%
%TF.FileFunction,Drillmap*%
%TF.FilePolarity,Positive*%
%FSLAX45Y45*%
G04 Gerber Fmt 4.5, Leading zero omitted, Abs format (unit mm)*
G04 Created by KiCad (PCBNEW 8.0.8) date 2025-02-02 11:15:25*
%MOMM*%
%LPD*%
G01*
G04 APERTURE LIST*
%ADD10C,0.100000*%
%ADD11C,0.200000*%
G04 APERTURE END LIST*
D10*
X10859750Y-8652500D02*
X10859750Y-5350500D01*
X11653500Y-5191750D02*
X11018500Y-5191750D01*
X11668875Y-5207620D02*
X11668875Y-5211500D01*
X11891125Y-5211500D02*
X11891125Y-5207620D01*
X11907500Y-5191750D02*
X12542500Y-5191750D01*
X12542500Y-8811250D02*
X11018500Y-8811250D01*
X12701250Y-5350500D02*
X12701250Y-8652500D01*
X10859750Y-5350500D02*
G75*
G02*
X11018500Y-5191750I158750J0D01*
G01*
X11018500Y-8811250D02*
G75*
G02*
X10859750Y-8652500I0J158750D01*
G01*
X11653000Y-5191745D02*
G75*
G02*
X11668875Y-5207620I0J-15875D01*
G01*
X11891125Y-5207620D02*
G75*
G02*
X11907402Y-5191750I15875J0D01*
G01*
X11891625Y-5211500D02*
G75*
G02*
X11669375Y-5211500I-111125J0D01*
G01*
X12542500Y-5191750D02*
G75*
G02*
X12701250Y-5350500I0J-158750D01*
G01*
X12701250Y-8652500D02*
G75*
G02*
X12542500Y-8811250I-158750J0D01*
G01*
D11*
X11115527Y-9127734D02*
X11115527Y-8927734D01*
X11115527Y-8927734D02*
X11163146Y-8927734D01*
X11163146Y-8927734D02*
X11191717Y-8937258D01*
X11191717Y-8937258D02*
X11210765Y-8956305D01*
X11210765Y-8956305D02*
X11220289Y-8975353D01*
X11220289Y-8975353D02*
X11229812Y-9013448D01*
X11229812Y-9013448D02*
X11229812Y-9042020D01*
X11229812Y-9042020D02*
X11220289Y-9080115D01*
X11220289Y-9080115D02*
X11210765Y-9099162D01*
X11210765Y-9099162D02*
X11191717Y-9118210D01*
X11191717Y-9118210D02*
X11163146Y-9127734D01*
X11163146Y-9127734D02*
X11115527Y-9127734D01*
X11315527Y-9127734D02*
X11315527Y-8994400D01*
X11315527Y-9032496D02*
X11325051Y-9013448D01*
X11325051Y-9013448D02*
X11334574Y-9003924D01*
X11334574Y-9003924D02*
X11353622Y-8994400D01*
X11353622Y-8994400D02*
X11372670Y-8994400D01*
X11439336Y-9127734D02*
X11439336Y-8994400D01*
X11439336Y-8927734D02*
X11429812Y-8937258D01*
X11429812Y-8937258D02*
X11439336Y-8946781D01*
X11439336Y-8946781D02*
X11448860Y-8937258D01*
X11448860Y-8937258D02*
X11439336Y-8927734D01*
X11439336Y-8927734D02*
X11439336Y-8946781D01*
X11563146Y-9127734D02*
X11544098Y-9118210D01*
X11544098Y-9118210D02*
X11534574Y-9099162D01*
X11534574Y-9099162D02*
X11534574Y-8927734D01*
X11667908Y-9127734D02*
X11648860Y-9118210D01*
X11648860Y-9118210D02*
X11639336Y-9099162D01*
X11639336Y-9099162D02*
X11639336Y-8927734D01*
X11896479Y-9127734D02*
X11896479Y-8927734D01*
X11896479Y-8927734D02*
X11963146Y-9070591D01*
X11963146Y-9070591D02*
X12029812Y-8927734D01*
X12029812Y-8927734D02*
X12029812Y-9127734D01*
X12210765Y-9127734D02*
X12210765Y-9022972D01*
X12210765Y-9022972D02*
X12201241Y-9003924D01*
X12201241Y-9003924D02*
X12182193Y-8994400D01*
X12182193Y-8994400D02*
X12144098Y-8994400D01*
X12144098Y-8994400D02*
X12125051Y-9003924D01*
X12210765Y-9118210D02*
X12191717Y-9127734D01*
X12191717Y-9127734D02*
X12144098Y-9127734D01*
X12144098Y-9127734D02*
X12125051Y-9118210D01*
X12125051Y-9118210D02*
X12115527Y-9099162D01*
X12115527Y-9099162D02*
X12115527Y-9080115D01*
X12115527Y-9080115D02*
X12125051Y-9061067D01*
X12125051Y-9061067D02*
X12144098Y-9051543D01*
X12144098Y-9051543D02*
X12191717Y-9051543D01*
X12191717Y-9051543D02*
X12210765Y-9042020D01*
X12306003Y-8994400D02*
X12306003Y-9194400D01*
X12306003Y-9003924D02*
X12325051Y-8994400D01*
X12325051Y-8994400D02*
X12363146Y-8994400D01*
X12363146Y-8994400D02*
X12382193Y-9003924D01*
X12382193Y-9003924D02*
X12391717Y-9013448D01*
X12391717Y-9013448D02*
X12401241Y-9032496D01*
X12401241Y-9032496D02*
X12401241Y-9089639D01*
X12401241Y-9089639D02*
X12391717Y-9108686D01*
X12391717Y-9108686D02*
X12382193Y-9118210D01*
X12382193Y-9118210D02*
X12363146Y-9127734D01*
X12363146Y-9127734D02*
X12325051Y-9127734D01*
X12325051Y-9127734D02*
X12306003Y-9118210D01*
X12486955Y-9108686D02*
X12496479Y-9118210D01*
X12496479Y-9118210D02*
X12486955Y-9127734D01*
X12486955Y-9127734D02*
X12477432Y-9118210D01*
X12477432Y-9118210D02*
X12486955Y-9108686D01*
X12486955Y-9108686D02*
X12486955Y-9127734D01*
X12486955Y-9003924D02*
X12496479Y-9013448D01*
X12496479Y-9013448D02*
X12486955Y-9022972D01*
X12486955Y-9022972D02*
X12477432Y-9013448D01*
X12477432Y-9013448D02*
X12486955Y-9003924D01*
X12486955Y-9003924D02*
X12486955Y-9022972D01*
M02*
